G04 start of page 8 for group -4079 idx -4079 *
G04 Title: (unknown), topsilk *
G04 Creator: pcb 1.99z *
G04 CreationDate: Fri 24 Jun 2011 08:49:47 AM GMT UTC *
G04 For: russ *
G04 Format: Gerber/RS-274X *
G04 PCB-Dimensions: 86614 238188 *
G04 PCB-Coordinate-Origin: lower left *
%MOIN*%
%FSLAX25Y25*%
%LNTOPSILK*%
%ADD66C,0.0070*%
%ADD65C,0.0200*%
%ADD64C,0.0118*%
%ADD63C,0.0118*%
%ADD62C,0.0118*%
%ADD61C,0.0080*%
%ADD60C,0.0100*%
G54D60*X36147Y108738D02*X50047D01*
X36147D02*Y95938D01*
X50047D01*
Y108738D02*Y95938D01*
G54D61*X58665Y87772D02*X59451D01*
X58665Y93282D02*X59451D01*
X58665Y77534D02*X59451D01*
X58665Y72024D02*X59451D01*
G54D62*X78307Y230314D02*X86614D01*
G54D63*X56654D02*X66890D01*
X41299D02*Y220077D01*
Y181495D02*Y171259D01*
X56654D02*X66890D01*
X86614Y230314D02*Y171259D01*
X78307D02*X86614D01*
G54D64*X0Y230312D02*X4449D01*
X16260Y230313D02*X24134D01*
X16260Y171258D02*X24134D01*
X0Y230313D02*Y171257D01*
X4449D01*
X37008Y230313D02*Y220471D01*
X35945Y230313D02*X37008D01*
X35945Y171258D02*X37008D01*
Y181101D02*Y171258D01*
G54D61*X58665Y103520D02*X59451D01*
X58665Y109030D02*X59451D01*
X58665Y135016D02*X59451D01*
X58665Y140526D02*X59451D01*
X58665Y119268D02*X59451D01*
X58665Y124778D02*X59451D01*
G54D60*X36147Y128423D02*X50047D01*
X36147D02*Y115623D01*
X50047D01*
Y128423D02*Y115623D01*
X52602Y155511D02*G75*G03X52602Y155511I3500J0D01*G01*
X66811Y162479D02*Y2479D01*
X76811D01*
Y162479D01*
X66811D01*
Y152479D02*X76811D01*
Y162479D01*
G54D61*X27169Y93282D02*X27955D01*
X27169Y87772D02*X27955D01*
G54D65*X35862Y78279D02*Y71279D01*
G54D60*Y78279D02*X33362Y79279D01*
X20262D02*X33362D01*
X20262D02*Y70279D01*
X33362D01*
X35862Y71279D01*
G54D61*X27169Y109030D02*X27955D01*
X27169Y103520D02*X27955D01*
X27169Y124778D02*X27955D01*
X27169Y119268D02*X27955D01*
G54D60*X6811Y162479D02*Y2479D01*
X16811D01*
Y162479D01*
X6811D01*
Y152479D02*X16811D01*
Y162479D01*
G54D61*X27169Y140526D02*X27955D01*
X27169Y135016D02*X27955D01*
G54D66*X36179Y113962D02*Y110962D01*
Y113962D02*X36679Y114462D01*
X37679D01*
X38179Y113962D01*
Y110962D01*
X37679Y110462D02*X38179Y110962D01*
X36679Y110462D02*X37679D01*
X36179Y110962D02*X36679Y110462D01*
X37179Y111462D02*X38179Y110462D01*
X39380Y113962D02*X39880Y114462D01*
X41380D01*
X41880Y113962D01*
Y112962D01*
X39380Y110462D02*X41880Y112962D01*
X39380Y110462D02*X41880D01*
X55907Y100157D02*X57907D01*
X58407Y99657D01*
Y98657D01*
X57907Y98157D02*X58407Y98657D01*
X56407Y98157D02*X57907D01*
X56407Y100157D02*Y96157D01*
Y98157D02*X58407Y96157D01*
X60108D02*X61108D01*
X60608Y100157D02*Y96157D01*
X59608Y99157D02*X60608Y100157D01*
X56058Y84647D02*X58058D01*
X58558Y84147D01*
Y83147D01*
X58058Y82647D02*X58558Y83147D01*
X56558Y82647D02*X58058D01*
X56558Y84647D02*Y80647D01*
Y82647D02*X58558Y80647D01*
X59759Y84647D02*X61759D01*
X59759D02*Y82647D01*
X60259Y83147D01*
X61259D01*
X61759Y82647D01*
Y81147D01*
X61259Y80647D02*X61759Y81147D01*
X60259Y80647D02*X61259D01*
X59759Y81147D02*X60259Y80647D01*
X59555Y235217D02*Y231217D01*
X59055Y235217D02*X61055D01*
X61555Y234717D01*
Y233717D01*
X61055Y233217D02*X61555Y233717D01*
X59555Y233217D02*X61055D01*
X63256Y231217D02*X64256D01*
X63756Y235217D02*Y231217D01*
X62756Y234217D02*X63756Y235217D01*
X16248Y235219D02*Y231219D01*
X15748Y235219D02*X17748D01*
X18248Y234719D01*
Y233719D01*
X17748Y233219D02*X18248Y233719D01*
X16248Y233219D02*X17748D01*
X19449Y234719D02*X19949Y235219D01*
X21449D01*
X21949Y234719D01*
Y233719D01*
X19449Y231219D02*X21949Y233719D01*
X19449Y231219D02*X21949D01*
X55837Y116308D02*X57837D01*
X58337Y115808D01*
Y114808D01*
X57837Y114308D02*X58337Y114808D01*
X56337Y114308D02*X57837D01*
X56337Y116308D02*Y112308D01*
Y114308D02*X58337Y112308D01*
X59538Y114308D02*X61538Y116308D01*
X59538Y114308D02*X62038D01*
X61538Y116308D02*Y112308D01*
X56105Y148032D02*X58105D01*
X58605Y147532D01*
Y146532D01*
X58105Y146032D02*X58605Y146532D01*
X56605Y146032D02*X58105D01*
X56605Y148032D02*Y144032D01*
Y146032D02*X58605Y144032D01*
X59806Y147532D02*X60306Y148032D01*
X61306D01*
X61806Y147532D01*
Y144532D01*
X61306Y144032D02*X61806Y144532D01*
X60306Y144032D02*X61306D01*
X59806Y144532D02*X60306Y144032D01*
Y146032D02*X61806D01*
X56968Y128283D02*X58468D01*
X56468Y128783D02*X56968Y128283D01*
X56468Y131783D02*Y128783D01*
Y131783D02*X56968Y132283D01*
X58468D01*
X59669Y131783D02*X60169Y132283D01*
X61669D01*
X62169Y131783D01*
Y130783D01*
X59669Y128283D02*X62169Y130783D01*
X59669Y128283D02*X62169D01*
X36179Y133648D02*Y130648D01*
Y133648D02*X36679Y134148D01*
X37679D01*
X38179Y133648D01*
Y130648D01*
X37679Y130148D02*X38179Y130648D01*
X36679Y130148D02*X37679D01*
X36179Y130648D02*X36679Y130148D01*
X37179Y131148D02*X38179Y130148D01*
X39880D02*X40880D01*
X40380Y134148D02*Y130148D01*
X39380Y133148D02*X40380Y134148D01*
X41417Y157511D02*X43417D01*
X42417D02*Y153511D01*
X45118Y157511D02*Y153511D01*
X44618Y157511D02*X46618D01*
X47118Y157011D01*
Y156011D01*
X46618Y155511D02*X47118Y156011D01*
X45118Y155511D02*X46618D01*
X48319Y154011D02*X48819Y153511D01*
X48319Y157011D02*Y154011D01*
Y157011D02*X48819Y157511D01*
X49819D01*
X50319Y157011D01*
Y154011D01*
X49819Y153511D02*X50319Y154011D01*
X48819Y153511D02*X49819D01*
X48319Y154511D02*X50319Y156511D01*
X76213Y168465D02*Y164465D01*
X75713Y168465D02*X77713D01*
X78213Y167965D01*
Y166965D01*
X77713Y166465D02*X78213Y166965D01*
X76213Y166465D02*X77713D01*
X79414D02*X81414Y168465D01*
X79414Y166465D02*X81914D01*
X81414Y168465D02*Y164465D01*
X23230Y100551D02*X25230D01*
X25730Y100051D01*
Y99051D01*
X25230Y98551D02*X25730Y99051D01*
X23730Y98551D02*X25230D01*
X23730Y100551D02*Y96551D01*
Y98551D02*X25730Y96551D01*
X26931Y97051D02*X27431Y96551D01*
X26931Y98051D02*Y97051D01*
Y98051D02*X27431Y98551D01*
X28431D01*
X28931Y98051D01*
Y97051D01*
X28431Y96551D02*X28931Y97051D01*
X27431Y96551D02*X28431D01*
X26931Y99051D02*X27431Y98551D01*
X26931Y100051D02*Y99051D01*
Y100051D02*X27431Y100551D01*
X28431D01*
X28931Y100051D01*
Y99051D01*
X28431Y98551D02*X28931Y99051D01*
X23730Y84654D02*Y80654D01*
X25230Y84654D02*X25730Y84154D01*
Y81154D01*
X25230Y80654D02*X25730Y81154D01*
X23230Y80654D02*X25230D01*
X23230Y84654D02*X25230D01*
X27431Y80654D02*X28431D01*
X27931Y84654D02*Y80654D01*
X26931Y83654D02*X27931Y84654D01*
X24291Y112142D02*X25791D01*
X23791Y112642D02*X24291Y112142D01*
X23791Y115642D02*Y112642D01*
Y115642D02*X24291Y116142D01*
X25791D01*
X26992Y114142D02*X28992Y116142D01*
X26992Y114142D02*X29492D01*
X28992Y116142D02*Y112142D01*
X23138Y147638D02*X25138D01*
X25638Y147138D01*
Y146138D01*
X25138Y145638D02*X25638Y146138D01*
X23638Y145638D02*X25138D01*
X23638Y147638D02*Y143638D01*
Y145638D02*X25638Y143638D01*
X27339D02*X28339D01*
X27839Y147638D02*Y143638D01*
X26839Y146638D02*X27839Y147638D01*
X29540Y144138D02*X30040Y143638D01*
X29540Y147138D02*Y144138D01*
Y147138D02*X30040Y147638D01*
X31040D01*
X31540Y147138D01*
Y144138D01*
X31040Y143638D02*X31540Y144138D01*
X30040Y143638D02*X31040D01*
X29540Y144638D02*X31540Y146638D01*
X23231Y132048D02*X25231D01*
X25731Y131548D01*
Y130548D01*
X25231Y130048D02*X25731Y130548D01*
X23731Y130048D02*X25231D01*
X23731Y132048D02*Y128048D01*
Y130048D02*X25731Y128048D01*
X27432D02*X28432D01*
X27932Y132048D02*Y128048D01*
X26932Y131048D02*X27932Y132048D01*
X30133Y128048D02*X31133D01*
X30633Y132048D02*Y128048D01*
X29633Y131048D02*X30633Y132048D01*
X1367Y168903D02*Y164903D01*
X867Y168903D02*X2867D01*
X3367Y168403D01*
Y167403D01*
X2867Y166903D02*X3367Y167403D01*
X1367Y166903D02*X2867D01*
X4568Y168403D02*X5068Y168903D01*
X6068D01*
X6568Y168403D01*
Y165403D01*
X6068Y164903D02*X6568Y165403D01*
X5068Y164903D02*X6068D01*
X4568Y165403D02*X5068Y164903D01*
Y166903D02*X6568D01*
M02*
