G04 start of page 2 for group 0 idx 0 *
G04 Title: (unknown), top *
G04 Creator: pcb 1.99z *
G04 CreationDate: Fri 24 Jun 2011 08:49:47 AM GMT UTC *
G04 For: russ *
G04 Format: Gerber/RS-274X *
G04 PCB-Dimensions: 86614 238188 *
G04 PCB-Coordinate-Origin: lower left *
%MOIN*%
%FSLAX25Y25*%
%LNTOP*%
%ADD27C,0.1063*%
%ADD26C,0.0677*%
%ADD25C,0.0380*%
%ADD24C,0.1575*%
%ADD23C,0.0360*%
%ADD22C,0.0360*%
%ADD21C,0.0400*%
%ADD20R,0.0340X0.0340*%
%ADD19R,0.0510X0.0510*%
%ADD18R,0.0512X0.0512*%
%ADD17C,0.0118*%
%ADD16C,0.0913*%
%ADD15C,0.1299*%
%ADD14C,0.0817*%
%ADD13C,0.0600*%
%ADD12C,0.0100*%
%ADD11C,0.0200*%
G54D11*G36*
X72519Y73021D02*X73206Y73186D01*
X73860Y73457D01*
X74464Y73827D01*
X75003Y74287D01*
X75463Y74826D01*
X75833Y75430D01*
X76104Y76084D01*
X76269Y76773D01*
X76311Y77479D01*
X76269Y78185D01*
X76104Y78874D01*
X75876Y79424D01*
X77239Y80787D01*
Y75029D01*
X73755Y71545D01*
X73206Y71772D01*
X72519Y71937D01*
Y73021D01*
G37*
G36*
Y83021D02*X73206Y83186D01*
X73860Y83457D01*
X74464Y83827D01*
X75003Y84287D01*
X75272Y84602D01*
Y83062D01*
X73755Y81545D01*
X73206Y81772D01*
X72519Y81937D01*
Y83021D01*
G37*
G36*
Y93021D02*X73206Y93186D01*
X73860Y93457D01*
X74464Y93827D01*
X75003Y94287D01*
X75272Y94602D01*
Y90356D01*
X75003Y90671D01*
X74464Y91131D01*
X73860Y91501D01*
X73206Y91772D01*
X72519Y91937D01*
Y93021D01*
G37*
G36*
X77112Y236219D02*X84646D01*
Y1968D01*
X77112D01*
Y70660D01*
X79751Y73299D01*
X79804Y73344D01*
X79926Y73488D01*
X79958Y73523D01*
X80081Y73725D01*
X80171Y73943D01*
X80227Y74173D01*
X80245Y74408D01*
X80240Y74473D01*
Y162349D01*
X80244Y162401D01*
X80230Y162590D01*
X80227Y162636D01*
X80172Y162865D01*
X80082Y163084D01*
X79958Y163285D01*
X79805Y163465D01*
X79745Y163516D01*
X77112Y166149D01*
Y169163D01*
X77148Y169211D01*
X77407Y169641D01*
X77621Y170094D01*
X77793Y170564D01*
X77922Y171048D01*
X78008Y171542D01*
X78048Y172042D01*
X78044Y172543D01*
X77995Y173041D01*
X77901Y173533D01*
X77763Y174015D01*
X77582Y174483D01*
X77361Y174932D01*
X77112Y175339D01*
Y226249D01*
X77148Y226297D01*
X77407Y226727D01*
X77621Y227180D01*
X77793Y227650D01*
X77922Y228134D01*
X78008Y228628D01*
X78048Y229128D01*
X78044Y229629D01*
X77995Y230127D01*
X77901Y230619D01*
X77763Y231101D01*
X77582Y231569D01*
X77361Y232018D01*
X77112Y232425D01*
Y236219D01*
G37*
G36*
Y1968D02*X72519D01*
Y3021D01*
X73206Y3186D01*
X73860Y3457D01*
X74464Y3827D01*
X75003Y4287D01*
X75463Y4826D01*
X75833Y5430D01*
X76104Y6084D01*
X76269Y6773D01*
X76311Y7479D01*
X76269Y8185D01*
X76104Y8874D01*
X75833Y9528D01*
X75463Y10132D01*
X75003Y10671D01*
X74464Y11131D01*
X73860Y11501D01*
X73206Y11772D01*
X72519Y11937D01*
Y13021D01*
X73206Y13186D01*
X73860Y13457D01*
X74464Y13827D01*
X75003Y14287D01*
X75463Y14826D01*
X75833Y15430D01*
X76104Y16084D01*
X76269Y16773D01*
X76311Y17479D01*
X76269Y18185D01*
X76104Y18874D01*
X75833Y19528D01*
X75463Y20132D01*
X75003Y20671D01*
X74464Y21131D01*
X73860Y21501D01*
X73206Y21772D01*
X72519Y21937D01*
Y23021D01*
X73206Y23186D01*
X73860Y23457D01*
X74464Y23827D01*
X75003Y24287D01*
X75463Y24826D01*
X75833Y25430D01*
X76104Y26084D01*
X76269Y26773D01*
X76311Y27479D01*
X76269Y28185D01*
X76104Y28874D01*
X75833Y29528D01*
X75463Y30132D01*
X75003Y30671D01*
X74464Y31131D01*
X73860Y31501D01*
X73206Y31772D01*
X72519Y31937D01*
Y33021D01*
X73206Y33186D01*
X73860Y33457D01*
X74464Y33827D01*
X75003Y34287D01*
X75463Y34826D01*
X75833Y35430D01*
X76104Y36084D01*
X76269Y36773D01*
X76311Y37479D01*
X76269Y38185D01*
X76104Y38874D01*
X75833Y39528D01*
X75463Y40132D01*
X75003Y40671D01*
X74464Y41131D01*
X73860Y41501D01*
X73206Y41772D01*
X72519Y41937D01*
Y43021D01*
X73206Y43186D01*
X73860Y43457D01*
X74464Y43827D01*
X75003Y44287D01*
X75463Y44826D01*
X75833Y45430D01*
X76104Y46084D01*
X76269Y46773D01*
X76311Y47479D01*
X76269Y48185D01*
X76104Y48874D01*
X75833Y49528D01*
X75463Y50132D01*
X75003Y50671D01*
X74464Y51131D01*
X73860Y51501D01*
X73206Y51772D01*
X72519Y51937D01*
Y53021D01*
X73206Y53186D01*
X73860Y53457D01*
X74464Y53827D01*
X75003Y54287D01*
X75463Y54826D01*
X75833Y55430D01*
X76104Y56084D01*
X76269Y56773D01*
X76311Y57479D01*
X76269Y58185D01*
X76104Y58874D01*
X75833Y59528D01*
X75463Y60132D01*
X75003Y60671D01*
X74464Y61131D01*
X73860Y61501D01*
X73206Y61772D01*
X72519Y61937D01*
Y63021D01*
X73206Y63186D01*
X73860Y63457D01*
X74464Y63827D01*
X75003Y64287D01*
X75463Y64826D01*
X75833Y65430D01*
X76104Y66084D01*
X76269Y66773D01*
X76311Y67479D01*
X76269Y68185D01*
X76104Y68874D01*
X75876Y69424D01*
X77112Y70660D01*
Y1968D01*
G37*
G36*
X72519Y236219D02*X77112D01*
Y232425D01*
X77099Y232446D01*
X77050Y232508D01*
X76991Y232562D01*
X76925Y232605D01*
X76853Y232638D01*
X76776Y232660D01*
X76698Y232668D01*
X76618Y232665D01*
X76541Y232649D01*
X76466Y232621D01*
X76397Y232582D01*
X76335Y232533D01*
X76281Y232474D01*
X76238Y232408D01*
X76205Y232336D01*
X76183Y232259D01*
X76175Y232181D01*
X76178Y232101D01*
X76194Y232024D01*
X76222Y231949D01*
X76262Y231881D01*
X76480Y231533D01*
X76662Y231165D01*
X76810Y230782D01*
X76922Y230387D01*
X76999Y229983D01*
X77040Y229575D01*
X77043Y229164D01*
X77010Y228755D01*
X76940Y228350D01*
X76834Y227953D01*
X76693Y227568D01*
X76518Y227196D01*
X76310Y226842D01*
X76271Y226775D01*
X76245Y226701D01*
X76230Y226623D01*
X76228Y226545D01*
X76238Y226466D01*
X76260Y226391D01*
X76294Y226320D01*
X76339Y226255D01*
X76393Y226198D01*
X76455Y226150D01*
X76524Y226112D01*
X76598Y226086D01*
X76676Y226071D01*
X76754Y226069D01*
X76833Y226079D01*
X76908Y226101D01*
X76979Y226135D01*
X77044Y226180D01*
X77101Y226234D01*
X77112Y226249D01*
Y175339D01*
X77099Y175360D01*
X77050Y175422D01*
X76991Y175476D01*
X76925Y175519D01*
X76853Y175552D01*
X76776Y175574D01*
X76698Y175582D01*
X76618Y175579D01*
X76541Y175563D01*
X76466Y175535D01*
X76397Y175496D01*
X76335Y175447D01*
X76281Y175388D01*
X76238Y175322D01*
X76205Y175250D01*
X76183Y175173D01*
X76175Y175095D01*
X76178Y175015D01*
X76194Y174938D01*
X76222Y174863D01*
X76262Y174795D01*
X76480Y174447D01*
X76662Y174079D01*
X76810Y173696D01*
X76922Y173301D01*
X76999Y172897D01*
X77040Y172489D01*
X77043Y172078D01*
X77010Y171669D01*
X76940Y171264D01*
X76834Y170867D01*
X76693Y170482D01*
X76518Y170110D01*
X76310Y169756D01*
X76271Y169689D01*
X76245Y169615D01*
X76230Y169537D01*
X76228Y169459D01*
X76238Y169380D01*
X76260Y169305D01*
X76294Y169234D01*
X76339Y169169D01*
X76393Y169112D01*
X76455Y169064D01*
X76524Y169026D01*
X76598Y169000D01*
X76676Y168985D01*
X76754Y168983D01*
X76833Y168993D01*
X76908Y169015D01*
X76979Y169049D01*
X77044Y169094D01*
X77101Y169148D01*
X77112Y169163D01*
Y166149D01*
X76903Y166358D01*
X76852Y166418D01*
X76672Y166571D01*
X76471Y166695D01*
X76252Y166785D01*
X76023Y166840D01*
X75965Y166843D01*
X75788Y166857D01*
X75749Y166854D01*
X73881D01*
X74251Y166960D01*
X74719Y167141D01*
X75168Y167362D01*
X75596Y167624D01*
X75658Y167673D01*
X75712Y167732D01*
X75755Y167798D01*
X75788Y167870D01*
X75810Y167947D01*
X75818Y168025D01*
X75815Y168105D01*
X75799Y168182D01*
X75771Y168257D01*
X75732Y168326D01*
X75683Y168388D01*
X75624Y168442D01*
X75558Y168485D01*
X75486Y168518D01*
X75409Y168540D01*
X75331Y168548D01*
X75251Y168545D01*
X75174Y168529D01*
X75099Y168501D01*
X75031Y168461D01*
X74683Y168243D01*
X74315Y168061D01*
X73932Y167913D01*
X73537Y167801D01*
X73133Y167724D01*
X72725Y167683D01*
X72519Y167681D01*
Y176806D01*
X72645Y176807D01*
X73054Y176774D01*
X73459Y176704D01*
X73856Y176598D01*
X74241Y176457D01*
X74613Y176282D01*
X74967Y176074D01*
X75034Y176035D01*
X75108Y176009D01*
X75186Y175994D01*
X75264Y175992D01*
X75343Y176002D01*
X75418Y176024D01*
X75489Y176058D01*
X75554Y176103D01*
X75611Y176157D01*
X75659Y176219D01*
X75697Y176288D01*
X75723Y176362D01*
X75738Y176440D01*
X75740Y176518D01*
X75730Y176597D01*
X75708Y176672D01*
X75674Y176743D01*
X75629Y176808D01*
X75575Y176865D01*
X75512Y176912D01*
X75082Y177171D01*
X74629Y177385D01*
X74159Y177557D01*
X73675Y177686D01*
X73181Y177772D01*
X72681Y177812D01*
X72519Y177811D01*
Y223763D01*
X72779Y223765D01*
X73277Y223814D01*
X73769Y223908D01*
X74251Y224046D01*
X74719Y224227D01*
X75168Y224448D01*
X75596Y224710D01*
X75658Y224759D01*
X75712Y224818D01*
X75755Y224884D01*
X75788Y224956D01*
X75810Y225033D01*
X75818Y225111D01*
X75815Y225191D01*
X75799Y225268D01*
X75771Y225343D01*
X75732Y225412D01*
X75683Y225474D01*
X75624Y225528D01*
X75558Y225571D01*
X75486Y225604D01*
X75409Y225626D01*
X75331Y225634D01*
X75251Y225631D01*
X75174Y225615D01*
X75099Y225587D01*
X75031Y225547D01*
X74683Y225329D01*
X74315Y225147D01*
X73932Y224999D01*
X73537Y224887D01*
X73133Y224810D01*
X72725Y224769D01*
X72519Y224767D01*
Y233892D01*
X72645Y233893D01*
X73054Y233860D01*
X73459Y233790D01*
X73856Y233684D01*
X74241Y233543D01*
X74613Y233368D01*
X74967Y233160D01*
X75034Y233121D01*
X75108Y233095D01*
X75186Y233080D01*
X75264Y233078D01*
X75343Y233088D01*
X75418Y233110D01*
X75489Y233144D01*
X75554Y233189D01*
X75611Y233243D01*
X75659Y233305D01*
X75697Y233374D01*
X75723Y233448D01*
X75738Y233526D01*
X75740Y233604D01*
X75730Y233683D01*
X75708Y233758D01*
X75674Y233829D01*
X75629Y233894D01*
X75575Y233951D01*
X75512Y233998D01*
X75082Y234257D01*
X74629Y234471D01*
X74159Y234643D01*
X73675Y234772D01*
X73181Y234858D01*
X72681Y234898D01*
X72519Y234897D01*
Y236219D01*
G37*
G36*
Y31937D02*X72517D01*
X71811Y31993D01*
X71105Y31937D01*
X70416Y31772D01*
X69867Y31544D01*
X64100Y37311D01*
Y70834D01*
X65317Y70836D01*
X65470Y70873D01*
X65615Y70933D01*
X65750Y71015D01*
X65869Y71118D01*
X65972Y71237D01*
X66054Y71372D01*
X66114Y71517D01*
X66151Y71670D01*
X66160Y71827D01*
X66151Y77888D01*
X66114Y78041D01*
X66054Y78186D01*
X65972Y78321D01*
X65869Y78440D01*
X65750Y78543D01*
X65615Y78625D01*
X65470Y78685D01*
X65317Y78722D01*
X65160Y78731D01*
X64100Y78729D01*
Y79045D01*
X64105Y79111D01*
X64087Y79346D01*
X64032Y79576D01*
X63994Y79666D01*
X63942Y79793D01*
X63894Y79871D01*
X63818Y79995D01*
X63800Y80015D01*
X63665Y80174D01*
X63618Y80214D01*
X57250Y86582D01*
X58231Y86584D01*
X58384Y86621D01*
X58529Y86681D01*
X58664Y86763D01*
X58783Y86866D01*
X58886Y86985D01*
X58968Y87120D01*
X59028Y87265D01*
X59058Y87389D01*
X59088Y87265D01*
X59148Y87120D01*
X59230Y86985D01*
X59333Y86866D01*
X59452Y86763D01*
X59587Y86681D01*
X59732Y86621D01*
X59885Y86584D01*
X60042Y86575D01*
X65317Y86584D01*
X65470Y86621D01*
X65615Y86681D01*
X65750Y86763D01*
X65869Y86866D01*
X65972Y86985D01*
X66054Y87120D01*
X66114Y87265D01*
X66151Y87418D01*
X66160Y87575D01*
X66151Y93636D01*
X66114Y93789D01*
X66054Y93934D01*
X65972Y94069D01*
X65869Y94188D01*
X65750Y94291D01*
X65615Y94373D01*
X65470Y94433D01*
X65317Y94470D01*
X65160Y94479D01*
X64341Y94477D01*
X67300Y97436D01*
X67353Y96773D01*
X67518Y96084D01*
X67789Y95430D01*
X68159Y94826D01*
X68619Y94287D01*
X69158Y93827D01*
X69762Y93457D01*
X70416Y93186D01*
X71105Y93021D01*
X71811Y92965D01*
X72517Y93021D01*
X72519D01*
Y91937D01*
X72517D01*
X71811Y91993D01*
X71105Y91937D01*
X70416Y91772D01*
X69762Y91501D01*
X69158Y91131D01*
X68619Y90671D01*
X68159Y90132D01*
X67789Y89528D01*
X67518Y88874D01*
X67353Y88185D01*
X67297Y87479D01*
X67353Y86773D01*
X67518Y86084D01*
X67789Y85430D01*
X68159Y84826D01*
X68619Y84287D01*
X69158Y83827D01*
X69762Y83457D01*
X70416Y83186D01*
X71105Y83021D01*
X71811Y82965D01*
X72517Y83021D01*
X72519D01*
Y81937D01*
X72517D01*
X71811Y81993D01*
X71105Y81937D01*
X70416Y81772D01*
X69762Y81501D01*
X69158Y81131D01*
X68619Y80671D01*
X68159Y80132D01*
X67789Y79528D01*
X67518Y78874D01*
X67353Y78185D01*
X67297Y77479D01*
X67353Y76773D01*
X67518Y76084D01*
X67789Y75430D01*
X68159Y74826D01*
X68619Y74287D01*
X69158Y73827D01*
X69762Y73457D01*
X70416Y73186D01*
X71105Y73021D01*
X71811Y72965D01*
X72517Y73021D01*
X72519D01*
Y71937D01*
X72517D01*
X71811Y71993D01*
X71105Y71937D01*
X70416Y71772D01*
X69762Y71501D01*
X69158Y71131D01*
X68619Y70671D01*
X68159Y70132D01*
X67789Y69528D01*
X67518Y68874D01*
X67353Y68185D01*
X67297Y67479D01*
X67353Y66773D01*
X67518Y66084D01*
X67789Y65430D01*
X68159Y64826D01*
X68619Y64287D01*
X69158Y63827D01*
X69762Y63457D01*
X70416Y63186D01*
X71105Y63021D01*
X71811Y62965D01*
X72517Y63021D01*
X72519D01*
Y61937D01*
X72517D01*
X71811Y61993D01*
X71105Y61937D01*
X70416Y61772D01*
X69762Y61501D01*
X69158Y61131D01*
X68619Y60671D01*
X68159Y60132D01*
X67789Y59528D01*
X67518Y58874D01*
X67353Y58185D01*
X67297Y57479D01*
X67353Y56773D01*
X67518Y56084D01*
X67789Y55430D01*
X68159Y54826D01*
X68619Y54287D01*
X69158Y53827D01*
X69762Y53457D01*
X70416Y53186D01*
X71105Y53021D01*
X71811Y52965D01*
X72517Y53021D01*
X72519D01*
Y51937D01*
X72517D01*
X71811Y51993D01*
X71105Y51937D01*
X70416Y51772D01*
X69762Y51501D01*
X69158Y51131D01*
X68619Y50671D01*
X68159Y50132D01*
X67789Y49528D01*
X67518Y48874D01*
X67353Y48185D01*
X67297Y47479D01*
X67353Y46773D01*
X67518Y46084D01*
X67789Y45430D01*
X68159Y44826D01*
X68619Y44287D01*
X69158Y43827D01*
X69762Y43457D01*
X70416Y43186D01*
X71105Y43021D01*
X71811Y42965D01*
X72517Y43021D01*
X72519D01*
Y41937D01*
X72517D01*
X71811Y41993D01*
X71105Y41937D01*
X70416Y41772D01*
X69762Y41501D01*
X69158Y41131D01*
X68619Y40671D01*
X68159Y40132D01*
X67789Y39528D01*
X67518Y38874D01*
X67353Y38185D01*
X67297Y37479D01*
X67353Y36773D01*
X67518Y36084D01*
X67789Y35430D01*
X68159Y34826D01*
X68619Y34287D01*
X69158Y33827D01*
X69762Y33457D01*
X70416Y33186D01*
X71105Y33021D01*
X71811Y32965D01*
X72517Y33021D01*
X72519D01*
Y31937D01*
G37*
G36*
Y1968D02*X56364D01*
Y9870D01*
X57269Y10643D01*
X59282Y12999D01*
X60901Y15641D01*
X62086Y18503D01*
X62810Y21516D01*
X62992Y24605D01*
X62810Y27694D01*
X62086Y30707D01*
X60901Y33569D01*
X59282Y36211D01*
X57269Y38567D01*
X56364Y39340D01*
Y70833D01*
X58231Y70836D01*
X58384Y70873D01*
X58529Y70933D01*
X58664Y71015D01*
X58783Y71118D01*
X58886Y71237D01*
X58968Y71372D01*
X59028Y71517D01*
X59058Y71641D01*
X59088Y71517D01*
X59148Y71372D01*
X59230Y71237D01*
X59333Y71118D01*
X59452Y71015D01*
X59587Y70933D01*
X59732Y70873D01*
X59885Y70836D01*
X60042Y70827D01*
X61101Y70829D01*
Y36742D01*
X61097Y36690D01*
X61115Y36454D01*
X61170Y36225D01*
X61260Y36007D01*
X61383Y35805D01*
X61431Y35751D01*
X61538Y35626D01*
X61572Y35597D01*
X67746Y29423D01*
X67518Y28874D01*
X67353Y28185D01*
X67297Y27479D01*
X67353Y26773D01*
X67518Y26084D01*
X67789Y25430D01*
X68159Y24826D01*
X68619Y24287D01*
X69158Y23827D01*
X69762Y23457D01*
X70416Y23186D01*
X71105Y23021D01*
X71811Y22965D01*
X72517Y23021D01*
X72519D01*
Y21937D01*
X72517D01*
X71811Y21993D01*
X71105Y21937D01*
X70416Y21772D01*
X69762Y21501D01*
X69158Y21131D01*
X68619Y20671D01*
X68159Y20132D01*
X67789Y19528D01*
X67518Y18874D01*
X67353Y18185D01*
X67297Y17479D01*
X67353Y16773D01*
X67518Y16084D01*
X67789Y15430D01*
X68159Y14826D01*
X68619Y14287D01*
X69158Y13827D01*
X69762Y13457D01*
X70416Y13186D01*
X71105Y13021D01*
X71811Y12965D01*
X72517Y13021D01*
X72519D01*
Y11937D01*
X72517D01*
X71811Y11993D01*
X71105Y11937D01*
X70416Y11772D01*
X69762Y11501D01*
X69158Y11131D01*
X68619Y10671D01*
X68159Y10132D01*
X67789Y9528D01*
X67518Y8874D01*
X67353Y8185D01*
X67297Y7479D01*
X67353Y6773D01*
X67518Y6084D01*
X67789Y5430D01*
X68159Y4826D01*
X68619Y4287D01*
X69158Y3827D01*
X69762Y3457D01*
X70416Y3186D01*
X71105Y3021D01*
X71811Y2965D01*
X72517Y3021D01*
X72519D01*
Y1968D01*
G37*
G36*
X67848Y236219D02*X72519D01*
Y234897D01*
X72180Y234894D01*
X71682Y234845D01*
X71190Y234751D01*
X70708Y234613D01*
X70240Y234432D01*
X69791Y234211D01*
X69363Y233949D01*
X69301Y233900D01*
X69247Y233841D01*
X69204Y233775D01*
X69171Y233703D01*
X69149Y233626D01*
X69141Y233548D01*
X69144Y233468D01*
X69160Y233391D01*
X69188Y233316D01*
X69227Y233247D01*
X69276Y233185D01*
X69335Y233131D01*
X69401Y233088D01*
X69473Y233055D01*
X69550Y233033D01*
X69628Y233025D01*
X69708Y233028D01*
X69785Y233044D01*
X69860Y233072D01*
X69928Y233112D01*
X70276Y233330D01*
X70644Y233512D01*
X71027Y233660D01*
X71422Y233772D01*
X71826Y233849D01*
X72234Y233890D01*
X72519Y233892D01*
Y224767D01*
X72314Y224766D01*
X71905Y224799D01*
X71500Y224869D01*
X71103Y224975D01*
X70718Y225116D01*
X70346Y225291D01*
X69992Y225499D01*
X69925Y225538D01*
X69851Y225564D01*
X69773Y225579D01*
X69695Y225581D01*
X69616Y225571D01*
X69541Y225549D01*
X69470Y225515D01*
X69405Y225470D01*
X69348Y225416D01*
X69300Y225354D01*
X69262Y225285D01*
X69236Y225211D01*
X69221Y225133D01*
X69219Y225055D01*
X69229Y224976D01*
X69251Y224901D01*
X69285Y224830D01*
X69330Y224765D01*
X69384Y224708D01*
X69447Y224661D01*
X69877Y224402D01*
X70330Y224188D01*
X70800Y224016D01*
X71284Y223887D01*
X71778Y223801D01*
X72278Y223761D01*
X72519Y223763D01*
Y177811D01*
X72180Y177808D01*
X71682Y177759D01*
X71190Y177665D01*
X70708Y177527D01*
X70240Y177346D01*
X69791Y177125D01*
X69363Y176863D01*
X69301Y176814D01*
X69247Y176755D01*
X69204Y176689D01*
X69171Y176617D01*
X69149Y176540D01*
X69141Y176462D01*
X69144Y176382D01*
X69160Y176305D01*
X69188Y176230D01*
X69227Y176161D01*
X69276Y176099D01*
X69335Y176045D01*
X69401Y176002D01*
X69473Y175969D01*
X69550Y175947D01*
X69628Y175939D01*
X69708Y175942D01*
X69785Y175958D01*
X69860Y175986D01*
X69928Y176026D01*
X70276Y176244D01*
X70644Y176426D01*
X71027Y176574D01*
X71422Y176686D01*
X71826Y176763D01*
X72234Y176804D01*
X72519Y176806D01*
Y167681D01*
X72314Y167680D01*
X71905Y167713D01*
X71500Y167783D01*
X71103Y167889D01*
X70718Y168030D01*
X70346Y168205D01*
X69992Y168413D01*
X69925Y168452D01*
X69851Y168478D01*
X69773Y168493D01*
X69695Y168495D01*
X69616Y168485D01*
X69541Y168463D01*
X69470Y168429D01*
X69405Y168384D01*
X69348Y168330D01*
X69300Y168268D01*
X69262Y168199D01*
X69236Y168125D01*
X69221Y168047D01*
X69219Y167969D01*
X69229Y167890D01*
X69251Y167815D01*
X69285Y167744D01*
X69330Y167679D01*
X69384Y167622D01*
X69447Y167575D01*
X69877Y167316D01*
X70330Y167102D01*
X70800Y166930D01*
X71085Y166854D01*
X67848D01*
Y169147D01*
X67860Y169127D01*
X67909Y169065D01*
X67968Y169011D01*
X68034Y168968D01*
X68106Y168935D01*
X68183Y168913D01*
X68261Y168905D01*
X68341Y168908D01*
X68418Y168924D01*
X68493Y168952D01*
X68562Y168991D01*
X68624Y169040D01*
X68678Y169099D01*
X68721Y169165D01*
X68754Y169237D01*
X68776Y169314D01*
X68784Y169392D01*
X68781Y169472D01*
X68765Y169549D01*
X68737Y169624D01*
X68697Y169692D01*
X68479Y170040D01*
X68297Y170408D01*
X68149Y170791D01*
X68037Y171186D01*
X67960Y171590D01*
X67919Y171998D01*
X67916Y172409D01*
X67949Y172818D01*
X68019Y173223D01*
X68125Y173620D01*
X68266Y174005D01*
X68441Y174377D01*
X68649Y174731D01*
X68688Y174798D01*
X68714Y174872D01*
X68729Y174950D01*
X68731Y175028D01*
X68721Y175107D01*
X68699Y175182D01*
X68665Y175253D01*
X68620Y175318D01*
X68566Y175375D01*
X68504Y175423D01*
X68435Y175461D01*
X68361Y175487D01*
X68283Y175502D01*
X68205Y175504D01*
X68126Y175494D01*
X68051Y175472D01*
X67980Y175438D01*
X67915Y175393D01*
X67858Y175339D01*
X67848Y175326D01*
Y226233D01*
X67860Y226213D01*
X67909Y226151D01*
X67968Y226097D01*
X68034Y226054D01*
X68106Y226021D01*
X68183Y225999D01*
X68261Y225991D01*
X68341Y225994D01*
X68418Y226010D01*
X68493Y226038D01*
X68562Y226077D01*
X68624Y226126D01*
X68678Y226185D01*
X68721Y226251D01*
X68754Y226323D01*
X68776Y226400D01*
X68784Y226478D01*
X68781Y226558D01*
X68765Y226635D01*
X68737Y226710D01*
X68697Y226778D01*
X68479Y227126D01*
X68297Y227494D01*
X68149Y227877D01*
X68037Y228272D01*
X67960Y228676D01*
X67919Y229084D01*
X67916Y229495D01*
X67949Y229904D01*
X68019Y230309D01*
X68125Y230706D01*
X68266Y231091D01*
X68441Y231463D01*
X68649Y231817D01*
X68688Y231884D01*
X68714Y231958D01*
X68729Y232036D01*
X68731Y232114D01*
X68721Y232193D01*
X68699Y232268D01*
X68665Y232339D01*
X68620Y232404D01*
X68566Y232461D01*
X68504Y232509D01*
X68435Y232547D01*
X68361Y232573D01*
X68283Y232588D01*
X68205Y232590D01*
X68126Y232580D01*
X68051Y232558D01*
X67980Y232524D01*
X67915Y232479D01*
X67858Y232425D01*
X67848Y232412D01*
Y236219D01*
G37*
G36*
X56364D02*X67848D01*
Y232412D01*
X67811Y232362D01*
X67552Y231932D01*
X67338Y231479D01*
X67166Y231009D01*
X67037Y230525D01*
X66951Y230031D01*
X66911Y229531D01*
X66915Y229030D01*
X66964Y228532D01*
X67058Y228040D01*
X67196Y227558D01*
X67377Y227090D01*
X67598Y226641D01*
X67848Y226233D01*
Y175326D01*
X67811Y175276D01*
X67552Y174846D01*
X67338Y174393D01*
X67166Y173923D01*
X67037Y173439D01*
X66951Y172945D01*
X66911Y172445D01*
X66915Y171944D01*
X66964Y171446D01*
X67058Y170954D01*
X67196Y170472D01*
X67377Y170004D01*
X67598Y169555D01*
X67848Y169147D01*
Y166854D01*
X65581D01*
X64492Y167943D01*
Y187940D01*
X64496Y187992D01*
X64482Y188181D01*
X64479Y188227D01*
X64424Y188456D01*
X64334Y188675D01*
X64210Y188876D01*
X64057Y189056D01*
X63997Y189107D01*
X61155Y191949D01*
X61104Y192009D01*
X60924Y192162D01*
X60723Y192286D01*
X60504Y192376D01*
X60275Y192431D01*
X60217Y192434D01*
X60040Y192448D01*
X60001Y192445D01*
X56364D01*
Y197536D01*
X56433Y197550D01*
X56507Y197577D01*
X56576Y197616D01*
X56637Y197665D01*
X56690Y197723D01*
X56734Y197789D01*
X56765Y197861D01*
X56841Y198093D01*
X56894Y198332D01*
X56926Y198574D01*
X56936Y198818D01*
X56926Y199063D01*
X56894Y199305D01*
X56841Y199544D01*
X56767Y199777D01*
X56736Y199848D01*
X56692Y199914D01*
X56639Y199973D01*
X56577Y200022D01*
X56508Y200061D01*
X56435Y200089D01*
X56364Y200104D01*
Y203441D01*
X56433Y203455D01*
X56507Y203482D01*
X56576Y203521D01*
X56637Y203570D01*
X56690Y203628D01*
X56734Y203694D01*
X56765Y203766D01*
X56841Y203998D01*
X56894Y204237D01*
X56926Y204479D01*
X56936Y204723D01*
X56926Y204968D01*
X56894Y205210D01*
X56841Y205449D01*
X56767Y205682D01*
X56736Y205753D01*
X56692Y205819D01*
X56639Y205878D01*
X56577Y205927D01*
X56508Y205966D01*
X56435Y205994D01*
X56364Y206009D01*
Y209347D01*
X56433Y209361D01*
X56507Y209388D01*
X56576Y209427D01*
X56637Y209476D01*
X56690Y209534D01*
X56734Y209600D01*
X56765Y209672D01*
X56841Y209904D01*
X56894Y210143D01*
X56926Y210385D01*
X56936Y210629D01*
X56926Y210874D01*
X56894Y211116D01*
X56841Y211355D01*
X56767Y211588D01*
X56736Y211659D01*
X56692Y211725D01*
X56639Y211784D01*
X56577Y211833D01*
X56508Y211872D01*
X56435Y211900D01*
X56364Y211915D01*
Y215252D01*
X56433Y215266D01*
X56507Y215293D01*
X56576Y215332D01*
X56637Y215381D01*
X56690Y215439D01*
X56734Y215505D01*
X56765Y215577D01*
X56841Y215809D01*
X56894Y216048D01*
X56926Y216290D01*
X56936Y216534D01*
X56926Y216779D01*
X56894Y217021D01*
X56841Y217260D01*
X56767Y217493D01*
X56736Y217564D01*
X56692Y217630D01*
X56639Y217689D01*
X56577Y217738D01*
X56508Y217777D01*
X56435Y217805D01*
X56364Y217820D01*
Y227842D01*
X56407Y228036D01*
X56494Y228713D01*
X56519Y229395D01*
X56482Y230077D01*
X56383Y230752D01*
X56364Y230831D01*
Y236219D01*
G37*
G36*
Y192445D02*X54135D01*
Y196016D01*
X54378Y196026D01*
X54620Y196058D01*
X54859Y196111D01*
X55092Y196185D01*
X55163Y196216D01*
X55229Y196260D01*
X55288Y196313D01*
X55337Y196375D01*
X55376Y196444D01*
X55404Y196517D01*
X55420Y196595D01*
X55423Y196674D01*
X55414Y196752D01*
X55393Y196829D01*
X55361Y196900D01*
X55317Y196966D01*
X55264Y197025D01*
X55202Y197074D01*
X55133Y197113D01*
X55060Y197141D01*
X54982Y197157D01*
X54903Y197160D01*
X54825Y197151D01*
X54749Y197129D01*
X54599Y197080D01*
X54446Y197046D01*
X54290Y197025D01*
X54135Y197018D01*
Y200618D01*
X54290Y200612D01*
X54446Y200591D01*
X54599Y200557D01*
X54749Y200510D01*
X54824Y200488D01*
X54903Y200479D01*
X54981Y200482D01*
X55058Y200498D01*
X55132Y200525D01*
X55201Y200564D01*
X55262Y200613D01*
X55315Y200671D01*
X55359Y200737D01*
X55391Y200808D01*
X55412Y200884D01*
X55421Y200963D01*
X55418Y201041D01*
X55402Y201118D01*
X55375Y201192D01*
X55336Y201261D01*
X55287Y201322D01*
X55229Y201375D01*
X55163Y201419D01*
X55091Y201450D01*
X54859Y201526D01*
X54620Y201579D01*
X54378Y201611D01*
X54135Y201621D01*
Y201921D01*
X54378Y201931D01*
X54620Y201963D01*
X54859Y202016D01*
X55092Y202090D01*
X55163Y202121D01*
X55229Y202165D01*
X55288Y202218D01*
X55337Y202280D01*
X55376Y202349D01*
X55404Y202422D01*
X55420Y202500D01*
X55423Y202579D01*
X55414Y202657D01*
X55393Y202734D01*
X55361Y202805D01*
X55317Y202871D01*
X55264Y202930D01*
X55202Y202979D01*
X55133Y203018D01*
X55060Y203046D01*
X54982Y203062D01*
X54903Y203065D01*
X54825Y203056D01*
X54749Y203034D01*
X54599Y202985D01*
X54446Y202951D01*
X54290Y202930D01*
X54135Y202923D01*
Y206523D01*
X54290Y206517D01*
X54446Y206496D01*
X54599Y206462D01*
X54749Y206415D01*
X54824Y206393D01*
X54903Y206384D01*
X54981Y206387D01*
X55058Y206403D01*
X55132Y206430D01*
X55201Y206469D01*
X55262Y206518D01*
X55315Y206576D01*
X55359Y206642D01*
X55391Y206713D01*
X55412Y206789D01*
X55421Y206868D01*
X55418Y206946D01*
X55402Y207023D01*
X55375Y207097D01*
X55336Y207166D01*
X55287Y207227D01*
X55229Y207280D01*
X55163Y207324D01*
X55091Y207355D01*
X54859Y207431D01*
X54620Y207484D01*
X54378Y207516D01*
X54135Y207526D01*
Y207827D01*
X54378Y207837D01*
X54620Y207869D01*
X54859Y207922D01*
X55092Y207996D01*
X55163Y208027D01*
X55229Y208071D01*
X55288Y208124D01*
X55337Y208186D01*
X55376Y208255D01*
X55404Y208328D01*
X55420Y208406D01*
X55423Y208485D01*
X55414Y208563D01*
X55393Y208640D01*
X55361Y208711D01*
X55317Y208777D01*
X55264Y208836D01*
X55202Y208885D01*
X55133Y208924D01*
X55060Y208952D01*
X54982Y208968D01*
X54903Y208971D01*
X54825Y208962D01*
X54749Y208940D01*
X54599Y208891D01*
X54446Y208857D01*
X54290Y208836D01*
X54135Y208829D01*
Y212429D01*
X54290Y212423D01*
X54446Y212402D01*
X54599Y212368D01*
X54749Y212321D01*
X54824Y212299D01*
X54903Y212290D01*
X54981Y212293D01*
X55058Y212309D01*
X55132Y212336D01*
X55201Y212375D01*
X55262Y212424D01*
X55315Y212482D01*
X55359Y212548D01*
X55391Y212619D01*
X55412Y212695D01*
X55421Y212774D01*
X55418Y212852D01*
X55402Y212929D01*
X55375Y213003D01*
X55336Y213072D01*
X55287Y213133D01*
X55229Y213186D01*
X55163Y213230D01*
X55091Y213261D01*
X54859Y213337D01*
X54620Y213390D01*
X54378Y213422D01*
X54135Y213432D01*
Y213732D01*
X54378Y213742D01*
X54620Y213774D01*
X54859Y213827D01*
X55092Y213901D01*
X55163Y213932D01*
X55229Y213976D01*
X55288Y214029D01*
X55337Y214091D01*
X55376Y214160D01*
X55404Y214233D01*
X55420Y214311D01*
X55423Y214390D01*
X55414Y214468D01*
X55393Y214545D01*
X55361Y214616D01*
X55317Y214682D01*
X55264Y214741D01*
X55202Y214790D01*
X55133Y214829D01*
X55060Y214857D01*
X54982Y214873D01*
X54903Y214876D01*
X54825Y214867D01*
X54749Y214845D01*
X54599Y214796D01*
X54446Y214762D01*
X54290Y214741D01*
X54135Y214734D01*
Y218334D01*
X54290Y218328D01*
X54446Y218307D01*
X54599Y218273D01*
X54749Y218226D01*
X54824Y218204D01*
X54903Y218195D01*
X54981Y218198D01*
X55058Y218214D01*
X55132Y218241D01*
X55201Y218280D01*
X55262Y218329D01*
X55315Y218387D01*
X55359Y218453D01*
X55391Y218524D01*
X55412Y218600D01*
X55421Y218679D01*
X55418Y218757D01*
X55402Y218834D01*
X55375Y218908D01*
X55336Y218977D01*
X55287Y219038D01*
X55229Y219091D01*
X55163Y219135D01*
X55091Y219166D01*
X54859Y219242D01*
X54620Y219295D01*
X54378Y219327D01*
X54135Y219337D01*
Y233345D01*
X54154Y233301D01*
X54198Y233235D01*
X54537Y232751D01*
X54825Y232235D01*
X55065Y231695D01*
X55255Y231136D01*
X55394Y230561D01*
X55479Y229976D01*
X55511Y229386D01*
X55490Y228796D01*
X55414Y228209D01*
X55286Y227633D01*
X55106Y227070D01*
X54875Y226526D01*
X54596Y226005D01*
X54271Y225511D01*
X54228Y225445D01*
X54198Y225372D01*
X54179Y225295D01*
X54173Y225217D01*
X54179Y225138D01*
X54198Y225062D01*
X54228Y224989D01*
X54269Y224922D01*
X54320Y224862D01*
X54380Y224811D01*
X54447Y224770D01*
X54520Y224740D01*
X54597Y224721D01*
X54675Y224715D01*
X54754Y224721D01*
X54830Y224740D01*
X54903Y224770D01*
X54970Y224811D01*
X55030Y224862D01*
X55080Y224923D01*
X55462Y225489D01*
X55784Y226091D01*
X56051Y226719D01*
X56259Y227369D01*
X56364Y227842D01*
Y217820D01*
X56357Y217821D01*
X56278Y217824D01*
X56200Y217815D01*
X56123Y217794D01*
X56052Y217762D01*
X55986Y217718D01*
X55927Y217665D01*
X55878Y217603D01*
X55839Y217534D01*
X55811Y217461D01*
X55795Y217383D01*
X55792Y217304D01*
X55801Y217226D01*
X55823Y217150D01*
X55872Y217000D01*
X55906Y216847D01*
X55927Y216691D01*
X55934Y216534D01*
X55927Y216378D01*
X55906Y216222D01*
X55872Y216069D01*
X55825Y215919D01*
X55803Y215844D01*
X55794Y215765D01*
X55797Y215687D01*
X55813Y215610D01*
X55840Y215536D01*
X55879Y215467D01*
X55928Y215406D01*
X55986Y215353D01*
X56052Y215309D01*
X56123Y215277D01*
X56199Y215256D01*
X56278Y215247D01*
X56356Y215250D01*
X56364Y215252D01*
Y211915D01*
X56357Y211916D01*
X56278Y211919D01*
X56200Y211910D01*
X56123Y211889D01*
X56052Y211857D01*
X55986Y211813D01*
X55927Y211760D01*
X55878Y211698D01*
X55839Y211629D01*
X55811Y211556D01*
X55795Y211478D01*
X55792Y211399D01*
X55801Y211321D01*
X55823Y211245D01*
X55872Y211095D01*
X55906Y210942D01*
X55927Y210786D01*
X55934Y210629D01*
X55927Y210473D01*
X55906Y210317D01*
X55872Y210164D01*
X55825Y210014D01*
X55803Y209939D01*
X55794Y209860D01*
X55797Y209782D01*
X55813Y209705D01*
X55840Y209631D01*
X55879Y209562D01*
X55928Y209501D01*
X55986Y209448D01*
X56052Y209404D01*
X56123Y209372D01*
X56199Y209351D01*
X56278Y209342D01*
X56356Y209345D01*
X56364Y209347D01*
Y206009D01*
X56357Y206010D01*
X56278Y206013D01*
X56200Y206004D01*
X56123Y205983D01*
X56052Y205951D01*
X55986Y205907D01*
X55927Y205854D01*
X55878Y205792D01*
X55839Y205723D01*
X55811Y205650D01*
X55795Y205572D01*
X55792Y205493D01*
X55801Y205415D01*
X55823Y205339D01*
X55872Y205189D01*
X55906Y205036D01*
X55927Y204880D01*
X55934Y204723D01*
X55927Y204567D01*
X55906Y204411D01*
X55872Y204258D01*
X55825Y204108D01*
X55803Y204033D01*
X55794Y203954D01*
X55797Y203876D01*
X55813Y203799D01*
X55840Y203725D01*
X55879Y203656D01*
X55928Y203595D01*
X55986Y203542D01*
X56052Y203498D01*
X56123Y203466D01*
X56199Y203445D01*
X56278Y203436D01*
X56356Y203439D01*
X56364Y203441D01*
Y200104D01*
X56357Y200105D01*
X56278Y200108D01*
X56200Y200099D01*
X56123Y200078D01*
X56052Y200046D01*
X55986Y200002D01*
X55927Y199949D01*
X55878Y199887D01*
X55839Y199818D01*
X55811Y199745D01*
X55795Y199667D01*
X55792Y199588D01*
X55801Y199510D01*
X55823Y199434D01*
X55872Y199284D01*
X55906Y199131D01*
X55927Y198975D01*
X55934Y198818D01*
X55927Y198662D01*
X55906Y198506D01*
X55872Y198353D01*
X55825Y198203D01*
X55803Y198128D01*
X55794Y198049D01*
X55797Y197971D01*
X55813Y197894D01*
X55840Y197820D01*
X55879Y197751D01*
X55928Y197690D01*
X55986Y197637D01*
X56052Y197593D01*
X56123Y197561D01*
X56199Y197540D01*
X56278Y197531D01*
X56356Y197534D01*
X56364Y197536D01*
Y192445D01*
G37*
G36*
Y39340D02*X54913Y40580D01*
X54135Y41057D01*
Y70829D01*
X56364Y70833D01*
Y39340D01*
G37*
G36*
Y1968D02*X54135D01*
Y8153D01*
X54913Y8630D01*
X56364Y9870D01*
Y1968D01*
G37*
G36*
X54135Y236219D02*X56364D01*
Y230831D01*
X56223Y231416D01*
X56004Y232062D01*
X55727Y232686D01*
X55394Y233282D01*
X55008Y233845D01*
X54956Y233906D01*
X54895Y233957D01*
X54826Y233997D01*
X54752Y234026D01*
X54674Y234044D01*
X54594Y234048D01*
X54515Y234041D01*
X54438Y234021D01*
X54364Y233989D01*
X54297Y233946D01*
X54237Y233893D01*
X54186Y233832D01*
X54146Y233763D01*
X54135Y233735D01*
Y236219D01*
G37*
G36*
Y41057D02*X52271Y42199D01*
X49409Y43384D01*
X46396Y44108D01*
X43307Y44351D01*
X41831Y44235D01*
Y73279D01*
X51963D01*
X51965Y71670D01*
X52002Y71517D01*
X52062Y71372D01*
X52144Y71237D01*
X52247Y71118D01*
X52366Y71015D01*
X52501Y70933D01*
X52646Y70873D01*
X52799Y70836D01*
X52956Y70827D01*
X54135Y70829D01*
Y41057D01*
G37*
G36*
Y1968D02*X41831D01*
Y4975D01*
X43307Y4859D01*
X46396Y5102D01*
X49409Y5826D01*
X52271Y7011D01*
X54135Y8153D01*
Y1968D01*
G37*
G36*
X49068Y235821D02*X49549Y235804D01*
X50136Y235728D01*
X50712Y235600D01*
X51275Y235420D01*
X51819Y235189D01*
X52340Y234910D01*
X52834Y234585D01*
X52900Y234542D01*
X52973Y234512D01*
X53050Y234493D01*
X53128Y234487D01*
X53207Y234493D01*
X53283Y234512D01*
X53356Y234542D01*
X53423Y234583D01*
X53483Y234634D01*
X53534Y234694D01*
X53575Y234761D01*
X53605Y234834D01*
X53624Y234911D01*
X53630Y234989D01*
X53624Y235068D01*
X53605Y235144D01*
X53575Y235217D01*
X53534Y235284D01*
X53483Y235344D01*
X53422Y235394D01*
X52856Y235776D01*
X52254Y236098D01*
X51969Y236219D01*
X54135D01*
Y233735D01*
X54117Y233689D01*
X54099Y233611D01*
X54095Y233531D01*
X54102Y233452D01*
X54122Y233375D01*
X54135Y233345D01*
Y219337D01*
X54134D01*
X53889Y219327D01*
X53647Y219295D01*
X53408Y219242D01*
X53175Y219168D01*
X53104Y219137D01*
X53038Y219093D01*
X52979Y219040D01*
X52930Y218978D01*
X52891Y218909D01*
X52863Y218836D01*
X52847Y218758D01*
X52844Y218679D01*
X52853Y218601D01*
X52874Y218524D01*
X52906Y218453D01*
X52950Y218387D01*
X53003Y218328D01*
X53065Y218279D01*
X53134Y218240D01*
X53207Y218212D01*
X53285Y218196D01*
X53364Y218193D01*
X53442Y218202D01*
X53518Y218224D01*
X53668Y218273D01*
X53821Y218307D01*
X53977Y218328D01*
X54134Y218334D01*
X54135D01*
Y214734D01*
X54134D01*
X53977Y214741D01*
X53821Y214762D01*
X53668Y214796D01*
X53518Y214843D01*
X53443Y214865D01*
X53364Y214874D01*
X53286Y214871D01*
X53209Y214855D01*
X53135Y214828D01*
X53066Y214789D01*
X53005Y214740D01*
X52952Y214682D01*
X52908Y214616D01*
X52876Y214545D01*
X52855Y214469D01*
X52846Y214390D01*
X52849Y214312D01*
X52865Y214235D01*
X52892Y214161D01*
X52931Y214092D01*
X52980Y214031D01*
X53038Y213978D01*
X53104Y213934D01*
X53176Y213903D01*
X53408Y213827D01*
X53647Y213774D01*
X53889Y213742D01*
X54134Y213732D01*
X54135D01*
Y213432D01*
X54134D01*
X53889Y213422D01*
X53647Y213390D01*
X53408Y213337D01*
X53175Y213263D01*
X53104Y213232D01*
X53038Y213188D01*
X52979Y213135D01*
X52930Y213073D01*
X52891Y213004D01*
X52863Y212931D01*
X52847Y212853D01*
X52844Y212774D01*
X52853Y212696D01*
X52874Y212619D01*
X52906Y212548D01*
X52950Y212482D01*
X53003Y212423D01*
X53065Y212374D01*
X53134Y212335D01*
X53207Y212307D01*
X53285Y212291D01*
X53364Y212288D01*
X53442Y212297D01*
X53518Y212319D01*
X53668Y212368D01*
X53821Y212402D01*
X53977Y212423D01*
X54134Y212429D01*
X54135D01*
Y208829D01*
X54134D01*
X53977Y208836D01*
X53821Y208857D01*
X53668Y208891D01*
X53518Y208938D01*
X53443Y208960D01*
X53364Y208969D01*
X53286Y208966D01*
X53209Y208950D01*
X53135Y208923D01*
X53066Y208884D01*
X53005Y208835D01*
X52952Y208777D01*
X52908Y208711D01*
X52876Y208640D01*
X52855Y208564D01*
X52846Y208485D01*
X52849Y208407D01*
X52865Y208330D01*
X52892Y208256D01*
X52931Y208187D01*
X52980Y208126D01*
X53038Y208073D01*
X53104Y208029D01*
X53176Y207998D01*
X53408Y207922D01*
X53647Y207869D01*
X53889Y207837D01*
X54134Y207827D01*
X54135D01*
Y207526D01*
X54134D01*
X53889Y207516D01*
X53647Y207484D01*
X53408Y207431D01*
X53175Y207357D01*
X53104Y207326D01*
X53038Y207282D01*
X52979Y207229D01*
X52930Y207167D01*
X52891Y207098D01*
X52863Y207025D01*
X52847Y206947D01*
X52844Y206868D01*
X52853Y206790D01*
X52874Y206713D01*
X52906Y206642D01*
X52950Y206576D01*
X53003Y206517D01*
X53065Y206468D01*
X53134Y206429D01*
X53207Y206401D01*
X53285Y206385D01*
X53364Y206382D01*
X53442Y206391D01*
X53518Y206413D01*
X53668Y206462D01*
X53821Y206496D01*
X53977Y206517D01*
X54134Y206523D01*
X54135D01*
Y202923D01*
X54134D01*
X53977Y202930D01*
X53821Y202951D01*
X53668Y202985D01*
X53518Y203032D01*
X53443Y203054D01*
X53364Y203063D01*
X53286Y203060D01*
X53209Y203044D01*
X53135Y203017D01*
X53066Y202978D01*
X53005Y202929D01*
X52952Y202871D01*
X52908Y202805D01*
X52876Y202734D01*
X52855Y202658D01*
X52846Y202579D01*
X52849Y202501D01*
X52865Y202424D01*
X52892Y202350D01*
X52931Y202281D01*
X52980Y202220D01*
X53038Y202167D01*
X53104Y202123D01*
X53176Y202092D01*
X53408Y202016D01*
X53647Y201963D01*
X53889Y201931D01*
X54134Y201921D01*
X54135D01*
Y201621D01*
X54134D01*
X53889Y201611D01*
X53647Y201579D01*
X53408Y201526D01*
X53175Y201452D01*
X53104Y201421D01*
X53038Y201377D01*
X52979Y201324D01*
X52930Y201262D01*
X52891Y201193D01*
X52863Y201120D01*
X52847Y201042D01*
X52844Y200963D01*
X52853Y200885D01*
X52874Y200808D01*
X52906Y200737D01*
X52950Y200671D01*
X53003Y200612D01*
X53065Y200563D01*
X53134Y200524D01*
X53207Y200496D01*
X53285Y200480D01*
X53364Y200477D01*
X53442Y200486D01*
X53518Y200508D01*
X53668Y200557D01*
X53821Y200591D01*
X53977Y200612D01*
X54134Y200618D01*
X54135D01*
Y197018D01*
X54134D01*
X53977Y197025D01*
X53821Y197046D01*
X53668Y197080D01*
X53518Y197127D01*
X53443Y197149D01*
X53364Y197158D01*
X53286Y197155D01*
X53209Y197139D01*
X53135Y197112D01*
X53066Y197073D01*
X53005Y197024D01*
X52952Y196966D01*
X52908Y196900D01*
X52876Y196829D01*
X52855Y196753D01*
X52846Y196674D01*
X52849Y196596D01*
X52865Y196519D01*
X52892Y196445D01*
X52931Y196376D01*
X52980Y196315D01*
X53038Y196262D01*
X53104Y196218D01*
X53176Y196187D01*
X53408Y196111D01*
X53647Y196058D01*
X53889Y196026D01*
X54134Y196016D01*
X54135D01*
Y192445D01*
X52666D01*
X52718Y192662D01*
X52738Y192912D01*
X52718Y193162D01*
X52660Y193405D01*
X52564Y193637D01*
X52433Y193850D01*
X52393Y193896D01*
X52433Y193943D01*
X52564Y194156D01*
X52660Y194388D01*
X52718Y194631D01*
X52738Y194881D01*
X52718Y195131D01*
X52660Y195374D01*
X52564Y195606D01*
X52433Y195819D01*
X52394Y195865D01*
X52433Y195911D01*
X52564Y196124D01*
X52660Y196356D01*
X52718Y196599D01*
X52738Y196849D01*
X52718Y197099D01*
X52660Y197342D01*
X52564Y197574D01*
X52433Y197787D01*
X52419Y197803D01*
X52428Y197819D01*
X52456Y197892D01*
X52464Y197930D01*
X52564Y198093D01*
X52660Y198325D01*
X52718Y198568D01*
X52738Y198818D01*
X52718Y199068D01*
X52660Y199311D01*
X52564Y199543D01*
X52461Y199711D01*
X52454Y199743D01*
X52427Y199817D01*
X52419Y199831D01*
X52433Y199848D01*
X52564Y200061D01*
X52660Y200293D01*
X52718Y200536D01*
X52738Y200786D01*
X52718Y201036D01*
X52660Y201279D01*
X52564Y201511D01*
X52433Y201724D01*
X52393Y201770D01*
X52433Y201817D01*
X52564Y202030D01*
X52660Y202262D01*
X52718Y202505D01*
X52738Y202755D01*
X52718Y203005D01*
X52660Y203248D01*
X52564Y203480D01*
X52433Y203693D01*
X52419Y203709D01*
X52428Y203724D01*
X52456Y203797D01*
X52464Y203835D01*
X52564Y203998D01*
X52660Y204230D01*
X52718Y204473D01*
X52738Y204723D01*
X52718Y204973D01*
X52660Y205216D01*
X52564Y205448D01*
X52461Y205616D01*
X52454Y205648D01*
X52427Y205722D01*
X52418Y205737D01*
X52433Y205754D01*
X52564Y205967D01*
X52660Y206199D01*
X52718Y206442D01*
X52738Y206692D01*
X52718Y206942D01*
X52660Y207185D01*
X52564Y207417D01*
X52433Y207630D01*
X52394Y207676D01*
X52433Y207722D01*
X52564Y207935D01*
X52660Y208167D01*
X52718Y208410D01*
X52738Y208660D01*
X52718Y208910D01*
X52660Y209153D01*
X52564Y209385D01*
X52433Y209598D01*
X52419Y209614D01*
X52428Y209630D01*
X52456Y209703D01*
X52464Y209741D01*
X52564Y209904D01*
X52660Y210136D01*
X52718Y210379D01*
X52738Y210629D01*
X52718Y210879D01*
X52660Y211122D01*
X52564Y211354D01*
X52461Y211522D01*
X52454Y211554D01*
X52427Y211628D01*
X52419Y211642D01*
X52433Y211659D01*
X52564Y211872D01*
X52660Y212104D01*
X52718Y212347D01*
X52738Y212597D01*
X52718Y212847D01*
X52660Y213090D01*
X52564Y213322D01*
X52433Y213535D01*
X52393Y213581D01*
X52433Y213628D01*
X52564Y213841D01*
X52660Y214073D01*
X52718Y214316D01*
X52738Y214566D01*
X52718Y214816D01*
X52660Y215059D01*
X52564Y215291D01*
X52433Y215504D01*
X52419Y215520D01*
X52428Y215535D01*
X52456Y215608D01*
X52464Y215646D01*
X52564Y215809D01*
X52660Y216041D01*
X52718Y216284D01*
X52738Y216534D01*
X52718Y216784D01*
X52660Y217027D01*
X52564Y217259D01*
X52461Y217427D01*
X52454Y217459D01*
X52427Y217533D01*
X52418Y217548D01*
X52433Y217565D01*
X52564Y217778D01*
X52660Y218010D01*
X52718Y218253D01*
X52738Y218503D01*
X52718Y218753D01*
X52660Y218996D01*
X52564Y219228D01*
X52433Y219441D01*
X52270Y219631D01*
X52080Y219794D01*
X51867Y219925D01*
X51635Y220021D01*
X51392Y220079D01*
X51142Y220094D01*
X49068D01*
Y221826D01*
X49081D01*
X49763Y221863D01*
X50438Y221962D01*
X51102Y222122D01*
X51748Y222341D01*
X52372Y222618D01*
X52968Y222951D01*
X53531Y223337D01*
X53592Y223389D01*
X53643Y223450D01*
X53683Y223519D01*
X53712Y223593D01*
X53730Y223671D01*
X53734Y223751D01*
X53727Y223830D01*
X53707Y223907D01*
X53675Y223981D01*
X53632Y224048D01*
X53579Y224108D01*
X53518Y224159D01*
X53449Y224199D01*
X53375Y224228D01*
X53297Y224246D01*
X53217Y224250D01*
X53138Y224243D01*
X53061Y224223D01*
X52987Y224191D01*
X52921Y224147D01*
X52437Y223808D01*
X51921Y223520D01*
X51381Y223280D01*
X50822Y223090D01*
X50247Y222951D01*
X49662Y222866D01*
X49072Y222834D01*
X49068D01*
Y235821D01*
G37*
G36*
X41831Y236219D02*X46060D01*
X45659Y236041D01*
X45063Y235708D01*
X44500Y235322D01*
X44439Y235270D01*
X44388Y235209D01*
X44348Y235140D01*
X44319Y235066D01*
X44301Y234988D01*
X44297Y234908D01*
X44304Y234829D01*
X44324Y234752D01*
X44356Y234678D01*
X44399Y234611D01*
X44452Y234551D01*
X44513Y234500D01*
X44582Y234460D01*
X44656Y234431D01*
X44734Y234413D01*
X44814Y234409D01*
X44893Y234416D01*
X44970Y234436D01*
X45044Y234468D01*
X45110Y234512D01*
X45594Y234851D01*
X46110Y235139D01*
X46650Y235379D01*
X47209Y235569D01*
X47784Y235708D01*
X48369Y235793D01*
X48959Y235825D01*
X49068Y235821D01*
Y222834D01*
X48482Y222855D01*
X47895Y222931D01*
X47319Y223059D01*
X46756Y223239D01*
X46212Y223470D01*
X45691Y223749D01*
X45197Y224074D01*
X45131Y224117D01*
X45058Y224147D01*
X44981Y224166D01*
X44903Y224172D01*
X44824Y224166D01*
X44748Y224147D01*
X44675Y224117D01*
X44608Y224076D01*
X44548Y224025D01*
X44497Y223965D01*
X44456Y223898D01*
X44426Y223825D01*
X44407Y223748D01*
X44401Y223670D01*
X44407Y223591D01*
X44426Y223515D01*
X44456Y223442D01*
X44497Y223375D01*
X44548Y223315D01*
X44609Y223265D01*
X45175Y222883D01*
X45777Y222561D01*
X46405Y222294D01*
X47055Y222086D01*
X47722Y221938D01*
X48399Y221851D01*
X49068Y221826D01*
Y220094D01*
X41831D01*
Y227175D01*
X42027Y226597D01*
X42304Y225973D01*
X42637Y225377D01*
X43023Y224814D01*
X43075Y224753D01*
X43136Y224702D01*
X43205Y224662D01*
X43279Y224633D01*
X43357Y224615D01*
X43437Y224611D01*
X43516Y224618D01*
X43593Y224638D01*
X43667Y224670D01*
X43734Y224713D01*
X43794Y224766D01*
X43845Y224827D01*
X43885Y224896D01*
X43914Y224970D01*
X43932Y225048D01*
X43936Y225128D01*
X43929Y225207D01*
X43909Y225284D01*
X43877Y225358D01*
X43833Y225424D01*
X43494Y225908D01*
X43206Y226424D01*
X42966Y226964D01*
X42776Y227523D01*
X42637Y228098D01*
X42552Y228683D01*
X42520Y229273D01*
X42541Y229863D01*
X42617Y230450D01*
X42745Y231026D01*
X42925Y231589D01*
X43156Y232133D01*
X43435Y232654D01*
X43760Y233148D01*
X43803Y233214D01*
X43833Y233287D01*
X43852Y233364D01*
X43858Y233442D01*
X43852Y233521D01*
X43833Y233597D01*
X43803Y233670D01*
X43762Y233737D01*
X43711Y233797D01*
X43651Y233848D01*
X43584Y233889D01*
X43511Y233919D01*
X43434Y233938D01*
X43356Y233944D01*
X43277Y233938D01*
X43201Y233919D01*
X43128Y233889D01*
X43061Y233848D01*
X43001Y233797D01*
X42951Y233736D01*
X42569Y233170D01*
X42247Y232568D01*
X41980Y231940D01*
X41831Y231474D01*
Y236219D01*
G37*
G36*
X27297Y13056D02*X27332Y12999D01*
X29345Y10643D01*
X31701Y8630D01*
X34343Y7011D01*
X37205Y5826D01*
X40218Y5102D01*
X41831Y4975D01*
Y1968D01*
X27297D01*
Y13056D01*
G37*
G36*
Y70418D02*X27386Y70521D01*
X27485Y70683D01*
X27557Y70857D01*
X27562Y70878D01*
X27567Y70857D01*
X27639Y70683D01*
X27738Y70521D01*
X27861Y70378D01*
X28004Y70255D01*
X28166Y70156D01*
X28340Y70084D01*
X28524Y70040D01*
X28712Y70029D01*
X34000Y70040D01*
X34184Y70084D01*
X34358Y70156D01*
X34520Y70255D01*
X34663Y70378D01*
X34786Y70521D01*
X34885Y70683D01*
X34957Y70857D01*
X35001Y71041D01*
X35012Y71229D01*
X35009Y73279D01*
X41831D01*
Y44235D01*
X40218Y44108D01*
X37205Y43384D01*
X34343Y42199D01*
X31701Y40580D01*
X29345Y38567D01*
X27332Y36211D01*
X27297Y36154D01*
Y70418D01*
G37*
G36*
X34332Y236219D02*X41831D01*
Y231474D01*
X41772Y231290D01*
X41624Y230623D01*
X41537Y229946D01*
X41512Y229264D01*
X41549Y228582D01*
X41648Y227907D01*
X41808Y227243D01*
X41831Y227175D01*
Y220094D01*
X40906D01*
X40656Y220079D01*
X40413Y220021D01*
X40367Y220002D01*
X38453D01*
X38407Y220021D01*
X38164Y220079D01*
X37914Y220094D01*
X34332D01*
Y226519D01*
X34385Y226571D01*
X34431Y226635D01*
X34654Y227019D01*
X34838Y227423D01*
X34986Y227841D01*
X35097Y228271D01*
X35170Y228709D01*
X35205Y229152D01*
X35201Y229596D01*
X35159Y230038D01*
X35078Y230474D01*
X34959Y230902D01*
X34804Y231318D01*
X34613Y231719D01*
X34387Y232102D01*
X34340Y232166D01*
X34332Y232173D01*
Y236219D01*
G37*
G36*
X27297D02*X34332D01*
Y232173D01*
X34282Y232220D01*
X34217Y232265D01*
X34145Y232300D01*
X34069Y232322D01*
X33990Y232332D01*
X33911Y232330D01*
X33833Y232316D01*
X33758Y232289D01*
X33688Y232251D01*
X33625Y232203D01*
X33571Y232145D01*
X33526Y232080D01*
X33491Y232008D01*
X33469Y231932D01*
X33459Y231853D01*
X33461Y231774D01*
X33475Y231696D01*
X33502Y231621D01*
X33541Y231552D01*
X33725Y231247D01*
X33879Y230926D01*
X34004Y230592D01*
X34099Y230248D01*
X34164Y229898D01*
X34198Y229543D01*
X34201Y229187D01*
X34173Y228832D01*
X34114Y228480D01*
X34025Y228135D01*
X33906Y227799D01*
X33758Y227475D01*
X33583Y227165D01*
X33545Y227096D01*
X33520Y227021D01*
X33507Y226944D01*
Y226865D01*
X33518Y226787D01*
X33542Y226712D01*
X33577Y226642D01*
X33623Y226578D01*
X33678Y226522D01*
X33741Y226475D01*
X33811Y226438D01*
X33886Y226413D01*
X33963Y226400D01*
X34042D01*
X34120Y226411D01*
X34195Y226435D01*
X34265Y226470D01*
X34329Y226516D01*
X34332Y226519D01*
Y220094D01*
X32205D01*
X31955Y220078D01*
X31712Y220020D01*
X31480Y219924D01*
X31267Y219793D01*
X31077Y219630D01*
X30914Y219440D01*
X30783Y219227D01*
X30697Y219018D01*
X30681Y219038D01*
X30623Y219091D01*
X30557Y219135D01*
X30485Y219166D01*
X30253Y219242D01*
X30014Y219295D01*
X29772Y219327D01*
X29528Y219337D01*
X29283Y219327D01*
X29041Y219295D01*
X28802Y219242D01*
X28569Y219168D01*
X28498Y219137D01*
X28432Y219093D01*
X28373Y219040D01*
X28324Y218978D01*
X28285Y218909D01*
X28257Y218836D01*
X28241Y218758D01*
X28238Y218679D01*
X28247Y218601D01*
X28268Y218524D01*
X28300Y218453D01*
X28344Y218387D01*
X28397Y218328D01*
X28459Y218279D01*
X28528Y218240D01*
X28601Y218212D01*
X28679Y218196D01*
X28758Y218193D01*
X28836Y218202D01*
X28912Y218224D01*
X29062Y218273D01*
X29215Y218307D01*
X29371Y218328D01*
X29528Y218334D01*
X29684Y218328D01*
X29840Y218307D01*
X29993Y218273D01*
X30143Y218226D01*
X30218Y218204D01*
X30297Y218195D01*
X30375Y218198D01*
X30452Y218214D01*
X30526Y218241D01*
X30595Y218280D01*
X30625Y218304D01*
X30629Y218252D01*
X30687Y218009D01*
X30783Y217777D01*
X30914Y217564D01*
X30953Y217518D01*
X30914Y217472D01*
X30783Y217259D01*
X30687Y217027D01*
X30629Y216784D01*
X30609Y216534D01*
X30629Y216284D01*
X30687Y216041D01*
X30783Y215809D01*
X30914Y215596D01*
X30954Y215550D01*
X30914Y215503D01*
X30783Y215290D01*
X30687Y215058D01*
X30629Y214815D01*
X30625Y214767D01*
X30596Y214790D01*
X30527Y214829D01*
X30454Y214857D01*
X30376Y214873D01*
X30297Y214876D01*
X30219Y214867D01*
X30143Y214845D01*
X29993Y214796D01*
X29840Y214762D01*
X29684Y214741D01*
X29528Y214734D01*
X29371Y214741D01*
X29215Y214762D01*
X29062Y214796D01*
X28912Y214843D01*
X28837Y214865D01*
X28758Y214874D01*
X28680Y214871D01*
X28603Y214855D01*
X28529Y214828D01*
X28460Y214789D01*
X28399Y214740D01*
X28346Y214682D01*
X28302Y214616D01*
X28270Y214545D01*
X28249Y214469D01*
X28240Y214390D01*
X28243Y214312D01*
X28259Y214235D01*
X28286Y214161D01*
X28325Y214092D01*
X28374Y214031D01*
X28432Y213978D01*
X28498Y213934D01*
X28570Y213903D01*
X28802Y213827D01*
X29041Y213774D01*
X29283Y213742D01*
X29528Y213732D01*
X29772Y213742D01*
X30014Y213774D01*
X30253Y213827D01*
X30486Y213901D01*
X30557Y213932D01*
X30623Y213976D01*
X30682Y214029D01*
X30697Y214048D01*
X30783Y213840D01*
X30914Y213627D01*
X30953Y213581D01*
X30914Y213535D01*
X30783Y213322D01*
X30697Y213113D01*
X30681Y213133D01*
X30623Y213186D01*
X30557Y213230D01*
X30485Y213261D01*
X30253Y213337D01*
X30014Y213390D01*
X29772Y213422D01*
X29528Y213432D01*
X29283Y213422D01*
X29041Y213390D01*
X28802Y213337D01*
X28569Y213263D01*
X28498Y213232D01*
X28432Y213188D01*
X28373Y213135D01*
X28324Y213073D01*
X28285Y213004D01*
X28257Y212931D01*
X28241Y212853D01*
X28238Y212774D01*
X28247Y212696D01*
X28268Y212619D01*
X28300Y212548D01*
X28344Y212482D01*
X28397Y212423D01*
X28459Y212374D01*
X28528Y212335D01*
X28601Y212307D01*
X28679Y212291D01*
X28758Y212288D01*
X28836Y212297D01*
X28912Y212319D01*
X29062Y212368D01*
X29215Y212402D01*
X29371Y212423D01*
X29528Y212429D01*
X29684Y212423D01*
X29840Y212402D01*
X29993Y212368D01*
X30143Y212321D01*
X30218Y212299D01*
X30297Y212290D01*
X30375Y212293D01*
X30452Y212309D01*
X30526Y212336D01*
X30595Y212375D01*
X30625Y212399D01*
X30629Y212347D01*
X30687Y212104D01*
X30783Y211872D01*
X30914Y211659D01*
X30954Y211613D01*
X30914Y211566D01*
X30783Y211353D01*
X30687Y211121D01*
X30629Y210878D01*
X30609Y210628D01*
X30629Y210378D01*
X30687Y210135D01*
X30783Y209903D01*
X30914Y209690D01*
X30953Y209644D01*
X30914Y209598D01*
X30783Y209385D01*
X30687Y209153D01*
X30629Y208910D01*
X30625Y208862D01*
X30596Y208885D01*
X30527Y208924D01*
X30454Y208952D01*
X30376Y208968D01*
X30297Y208971D01*
X30219Y208962D01*
X30143Y208940D01*
X29993Y208891D01*
X29840Y208857D01*
X29684Y208836D01*
X29528Y208829D01*
X29371Y208836D01*
X29215Y208857D01*
X29062Y208891D01*
X28912Y208938D01*
X28837Y208960D01*
X28758Y208969D01*
X28680Y208966D01*
X28603Y208950D01*
X28529Y208923D01*
X28460Y208884D01*
X28399Y208835D01*
X28346Y208777D01*
X28302Y208711D01*
X28270Y208640D01*
X28249Y208564D01*
X28240Y208485D01*
X28243Y208407D01*
X28259Y208330D01*
X28286Y208256D01*
X28325Y208187D01*
X28374Y208126D01*
X28432Y208073D01*
X28498Y208029D01*
X28570Y207998D01*
X28802Y207922D01*
X29041Y207869D01*
X29283Y207837D01*
X29528Y207827D01*
X29772Y207837D01*
X30014Y207869D01*
X30253Y207922D01*
X30486Y207996D01*
X30557Y208027D01*
X30623Y208071D01*
X30682Y208124D01*
X30697Y208143D01*
X30783Y207935D01*
X30914Y207722D01*
X30954Y207676D01*
X30914Y207629D01*
X30783Y207416D01*
X30697Y207207D01*
X30681Y207227D01*
X30623Y207280D01*
X30557Y207324D01*
X30485Y207355D01*
X30253Y207431D01*
X30014Y207484D01*
X29772Y207516D01*
X29528Y207526D01*
X29283Y207516D01*
X29041Y207484D01*
X28802Y207431D01*
X28569Y207357D01*
X28498Y207326D01*
X28432Y207282D01*
X28373Y207229D01*
X28324Y207167D01*
X28285Y207098D01*
X28257Y207025D01*
X28241Y206947D01*
X28238Y206868D01*
X28247Y206790D01*
X28268Y206713D01*
X28300Y206642D01*
X28344Y206576D01*
X28397Y206517D01*
X28459Y206468D01*
X28528Y206429D01*
X28601Y206401D01*
X28679Y206385D01*
X28758Y206382D01*
X28836Y206391D01*
X28912Y206413D01*
X29062Y206462D01*
X29215Y206496D01*
X29371Y206517D01*
X29528Y206523D01*
X29684Y206517D01*
X29840Y206496D01*
X29993Y206462D01*
X30143Y206415D01*
X30218Y206393D01*
X30297Y206384D01*
X30375Y206387D01*
X30452Y206403D01*
X30526Y206430D01*
X30595Y206469D01*
X30625Y206493D01*
X30629Y206441D01*
X30687Y206198D01*
X30783Y205966D01*
X30914Y205753D01*
X30953Y205707D01*
X30914Y205661D01*
X30783Y205448D01*
X30687Y205216D01*
X30629Y204973D01*
X30609Y204723D01*
X30629Y204473D01*
X30687Y204230D01*
X30783Y203998D01*
X30914Y203785D01*
X30954Y203739D01*
X30914Y203692D01*
X30783Y203479D01*
X30687Y203247D01*
X30629Y203004D01*
X30625Y202956D01*
X30596Y202979D01*
X30527Y203018D01*
X30454Y203046D01*
X30376Y203062D01*
X30297Y203065D01*
X30219Y203056D01*
X30143Y203034D01*
X29993Y202985D01*
X29840Y202951D01*
X29684Y202930D01*
X29528Y202923D01*
X29371Y202930D01*
X29215Y202951D01*
X29062Y202985D01*
X28912Y203032D01*
X28837Y203054D01*
X28758Y203063D01*
X28680Y203060D01*
X28603Y203044D01*
X28529Y203017D01*
X28460Y202978D01*
X28399Y202929D01*
X28346Y202871D01*
X28302Y202805D01*
X28270Y202734D01*
X28249Y202658D01*
X28240Y202579D01*
X28243Y202501D01*
X28259Y202424D01*
X28286Y202350D01*
X28325Y202281D01*
X28374Y202220D01*
X28432Y202167D01*
X28498Y202123D01*
X28570Y202092D01*
X28802Y202016D01*
X29041Y201963D01*
X29283Y201931D01*
X29528Y201921D01*
X29772Y201931D01*
X30014Y201963D01*
X30253Y202016D01*
X30486Y202090D01*
X30557Y202121D01*
X30623Y202165D01*
X30682Y202218D01*
X30697Y202237D01*
X30783Y202029D01*
X30914Y201816D01*
X30953Y201770D01*
X30914Y201724D01*
X30783Y201511D01*
X30697Y201302D01*
X30681Y201322D01*
X30623Y201375D01*
X30557Y201419D01*
X30485Y201450D01*
X30253Y201526D01*
X30014Y201579D01*
X29772Y201611D01*
X29528Y201621D01*
X29283Y201611D01*
X29041Y201579D01*
X28802Y201526D01*
X28569Y201452D01*
X28498Y201421D01*
X28432Y201377D01*
X28373Y201324D01*
X28324Y201262D01*
X28285Y201193D01*
X28257Y201120D01*
X28241Y201042D01*
X28238Y200963D01*
X28247Y200885D01*
X28268Y200808D01*
X28300Y200737D01*
X28344Y200671D01*
X28397Y200612D01*
X28459Y200563D01*
X28528Y200524D01*
X28601Y200496D01*
X28679Y200480D01*
X28758Y200477D01*
X28836Y200486D01*
X28912Y200508D01*
X29062Y200557D01*
X29215Y200591D01*
X29371Y200612D01*
X29528Y200618D01*
X29684Y200612D01*
X29840Y200591D01*
X29993Y200557D01*
X30143Y200510D01*
X30218Y200488D01*
X30297Y200479D01*
X30375Y200482D01*
X30452Y200498D01*
X30526Y200525D01*
X30595Y200564D01*
X30625Y200588D01*
X30629Y200536D01*
X30687Y200293D01*
X30783Y200061D01*
X30914Y199848D01*
X30954Y199802D01*
X30914Y199755D01*
X30783Y199542D01*
X30687Y199310D01*
X30629Y199067D01*
X30609Y198817D01*
X30629Y198567D01*
X30687Y198324D01*
X30783Y198092D01*
X30914Y197879D01*
X30953Y197833D01*
X30914Y197787D01*
X30783Y197574D01*
X30687Y197342D01*
X30629Y197099D01*
X30625Y197051D01*
X30596Y197074D01*
X30527Y197113D01*
X30454Y197141D01*
X30376Y197157D01*
X30297Y197160D01*
X30219Y197151D01*
X30143Y197129D01*
X29993Y197080D01*
X29840Y197046D01*
X29684Y197025D01*
X29528Y197018D01*
X29371Y197025D01*
X29215Y197046D01*
X29062Y197080D01*
X28912Y197127D01*
X28837Y197149D01*
X28758Y197158D01*
X28680Y197155D01*
X28603Y197139D01*
X28529Y197112D01*
X28460Y197073D01*
X28399Y197024D01*
X28346Y196966D01*
X28302Y196900D01*
X28270Y196829D01*
X28249Y196753D01*
X28240Y196674D01*
X28243Y196596D01*
X28259Y196519D01*
X28286Y196445D01*
X28322Y196381D01*
X27297D01*
Y197533D01*
X27304Y197532D01*
X27383Y197529D01*
X27461Y197538D01*
X27538Y197559D01*
X27609Y197591D01*
X27675Y197635D01*
X27734Y197688D01*
X27783Y197750D01*
X27822Y197819D01*
X27850Y197892D01*
X27866Y197970D01*
X27869Y198049D01*
X27860Y198127D01*
X27838Y198203D01*
X27789Y198353D01*
X27755Y198506D01*
X27734Y198662D01*
X27728Y198818D01*
X27734Y198975D01*
X27755Y199131D01*
X27789Y199284D01*
X27836Y199434D01*
X27858Y199509D01*
X27867Y199588D01*
X27864Y199666D01*
X27848Y199743D01*
X27821Y199817D01*
X27782Y199886D01*
X27733Y199947D01*
X27675Y200000D01*
X27609Y200044D01*
X27538Y200076D01*
X27462Y200097D01*
X27383Y200106D01*
X27305Y200103D01*
X27297Y200101D01*
Y203438D01*
X27304Y203437D01*
X27383Y203434D01*
X27461Y203443D01*
X27538Y203464D01*
X27609Y203496D01*
X27675Y203540D01*
X27734Y203593D01*
X27783Y203655D01*
X27822Y203724D01*
X27850Y203797D01*
X27866Y203875D01*
X27869Y203954D01*
X27860Y204032D01*
X27838Y204108D01*
X27789Y204258D01*
X27755Y204411D01*
X27734Y204567D01*
X27728Y204723D01*
X27734Y204880D01*
X27755Y205036D01*
X27789Y205189D01*
X27836Y205339D01*
X27858Y205414D01*
X27867Y205493D01*
X27864Y205571D01*
X27848Y205648D01*
X27821Y205722D01*
X27782Y205791D01*
X27733Y205852D01*
X27675Y205905D01*
X27609Y205949D01*
X27538Y205981D01*
X27462Y206002D01*
X27383Y206011D01*
X27305Y206008D01*
X27297Y206006D01*
Y209344D01*
X27304Y209343D01*
X27383Y209340D01*
X27461Y209349D01*
X27538Y209370D01*
X27609Y209402D01*
X27675Y209446D01*
X27734Y209499D01*
X27783Y209561D01*
X27822Y209630D01*
X27850Y209703D01*
X27866Y209781D01*
X27869Y209860D01*
X27860Y209938D01*
X27838Y210014D01*
X27789Y210164D01*
X27755Y210317D01*
X27734Y210473D01*
X27728Y210629D01*
X27734Y210786D01*
X27755Y210942D01*
X27789Y211095D01*
X27836Y211245D01*
X27858Y211320D01*
X27867Y211399D01*
X27864Y211477D01*
X27848Y211554D01*
X27821Y211628D01*
X27782Y211697D01*
X27733Y211758D01*
X27675Y211811D01*
X27609Y211855D01*
X27538Y211887D01*
X27462Y211908D01*
X27383Y211917D01*
X27305Y211914D01*
X27297Y211912D01*
Y215249D01*
X27304Y215248D01*
X27383Y215245D01*
X27461Y215254D01*
X27538Y215275D01*
X27609Y215307D01*
X27675Y215351D01*
X27734Y215404D01*
X27783Y215466D01*
X27822Y215535D01*
X27850Y215608D01*
X27866Y215686D01*
X27869Y215765D01*
X27860Y215843D01*
X27838Y215919D01*
X27789Y216069D01*
X27755Y216222D01*
X27734Y216378D01*
X27728Y216534D01*
X27734Y216691D01*
X27755Y216847D01*
X27789Y217000D01*
X27836Y217150D01*
X27858Y217225D01*
X27867Y217304D01*
X27864Y217382D01*
X27848Y217459D01*
X27821Y217533D01*
X27782Y217602D01*
X27733Y217663D01*
X27675Y217716D01*
X27609Y217760D01*
X27538Y217792D01*
X27462Y217813D01*
X27383Y217822D01*
X27305Y217819D01*
X27297Y217817D01*
Y225130D01*
X27305Y225119D01*
X27360Y225063D01*
X27424Y225017D01*
X27808Y224794D01*
X28212Y224610D01*
X28630Y224462D01*
X29060Y224351D01*
X29498Y224278D01*
X29941Y224243D01*
X30385Y224247D01*
X30827Y224289D01*
X31263Y224370D01*
X31691Y224489D01*
X32107Y224644D01*
X32508Y224835D01*
X32891Y225061D01*
X32955Y225108D01*
X33009Y225166D01*
X33054Y225231D01*
X33089Y225303D01*
X33111Y225379D01*
X33121Y225458D01*
X33119Y225537D01*
X33105Y225615D01*
X33078Y225690D01*
X33040Y225760D01*
X32992Y225823D01*
X32934Y225877D01*
X32869Y225922D01*
X32797Y225957D01*
X32721Y225979D01*
X32642Y225989D01*
X32563Y225987D01*
X32485Y225973D01*
X32410Y225946D01*
X32341Y225907D01*
X32036Y225723D01*
X31715Y225569D01*
X31381Y225444D01*
X31037Y225349D01*
X30687Y225284D01*
X30332Y225250D01*
X29976Y225247D01*
X29621Y225275D01*
X29269Y225334D01*
X28924Y225423D01*
X28588Y225542D01*
X28264Y225690D01*
X27954Y225865D01*
X27885Y225903D01*
X27810Y225928D01*
X27733Y225941D01*
X27654D01*
X27576Y225930D01*
X27501Y225906D01*
X27431Y225871D01*
X27367Y225825D01*
X27311Y225770D01*
X27297Y225751D01*
Y232788D01*
X27303Y232782D01*
X27368Y232737D01*
X27440Y232702D01*
X27516Y232680D01*
X27595Y232670D01*
X27674Y232672D01*
X27752Y232686D01*
X27827Y232713D01*
X27896Y232752D01*
X28201Y232936D01*
X28522Y233090D01*
X28856Y233215D01*
X29200Y233310D01*
X29550Y233375D01*
X29905Y233409D01*
X30261Y233412D01*
X30616Y233384D01*
X30968Y233325D01*
X31313Y233236D01*
X31649Y233117D01*
X31973Y232969D01*
X32283Y232794D01*
X32352Y232756D01*
X32427Y232731D01*
X32504Y232718D01*
X32583D01*
X32661Y232729D01*
X32736Y232753D01*
X32806Y232788D01*
X32870Y232834D01*
X32926Y232889D01*
X32973Y232952D01*
X33010Y233022D01*
X33035Y233097D01*
X33048Y233174D01*
Y233253D01*
X33037Y233331D01*
X33013Y233406D01*
X32978Y233476D01*
X32932Y233540D01*
X32877Y233596D01*
X32813Y233642D01*
X32429Y233865D01*
X32025Y234049D01*
X31607Y234197D01*
X31177Y234308D01*
X30739Y234381D01*
X30296Y234416D01*
X29852Y234412D01*
X29410Y234370D01*
X28974Y234289D01*
X28546Y234170D01*
X28130Y234015D01*
X27729Y233824D01*
X27346Y233598D01*
X27297Y233562D01*
Y236219D01*
G37*
G36*
X11804Y72966D02*X11811Y72965D01*
X12517Y73021D01*
X13206Y73186D01*
X13860Y73457D01*
X14464Y73827D01*
X15003Y74287D01*
X15463Y74826D01*
X15512Y74906D01*
X15514Y74903D01*
X15535Y74879D01*
X15668Y74723D01*
X15715Y74683D01*
X16613Y73785D01*
X16653Y73738D01*
X16810Y73605D01*
X16833Y73584D01*
X16958Y73508D01*
X17034Y73461D01*
X17252Y73371D01*
X17482Y73316D01*
X17718Y73298D01*
X17770Y73302D01*
X20120D01*
X20123Y71041D01*
X20167Y70857D01*
X20239Y70683D01*
X20338Y70521D01*
X20461Y70378D01*
X20604Y70255D01*
X20766Y70156D01*
X20940Y70084D01*
X21124Y70040D01*
X21312Y70029D01*
X22124Y70031D01*
Y69269D01*
X21974Y69177D01*
X21639Y68891D01*
X21353Y68556D01*
X21122Y68180D01*
X20954Y67773D01*
X20851Y67344D01*
X20816Y66905D01*
X20851Y66466D01*
X20954Y66037D01*
X21122Y65630D01*
X21353Y65254D01*
X21639Y64919D01*
X21974Y64633D01*
X22350Y64402D01*
X22757Y64234D01*
X23186Y64131D01*
X23625Y64096D01*
X24064Y64131D01*
X24493Y64234D01*
X24900Y64402D01*
X25276Y64633D01*
X25611Y64919D01*
X25897Y65254D01*
X26128Y65630D01*
X26296Y66037D01*
X26399Y66466D01*
X26425Y66905D01*
X26399Y67344D01*
X26296Y67773D01*
X26128Y68180D01*
X25897Y68556D01*
X25611Y68891D01*
X25276Y69177D01*
X25125Y69270D01*
Y70037D01*
X26600Y70040D01*
X26784Y70084D01*
X26958Y70156D01*
X27120Y70255D01*
X27263Y70378D01*
X27297Y70418D01*
Y36154D01*
X25713Y33569D01*
X24528Y30707D01*
X23804Y27694D01*
X23561Y24605D01*
X23804Y21516D01*
X24528Y18503D01*
X25713Y15641D01*
X27297Y13056D01*
Y1968D01*
X11804D01*
Y2966D01*
X11811Y2965D01*
X12517Y3021D01*
X13206Y3186D01*
X13860Y3457D01*
X14464Y3827D01*
X15003Y4287D01*
X15463Y4826D01*
X15833Y5430D01*
X16104Y6084D01*
X16269Y6773D01*
X16311Y7479D01*
X16269Y8185D01*
X16104Y8874D01*
X15833Y9528D01*
X15463Y10132D01*
X15003Y10671D01*
X14464Y11131D01*
X13860Y11501D01*
X13206Y11772D01*
X12517Y11937D01*
X11811Y11993D01*
X11804Y11992D01*
Y12966D01*
X11811Y12965D01*
X12517Y13021D01*
X13206Y13186D01*
X13860Y13457D01*
X14464Y13827D01*
X15003Y14287D01*
X15463Y14826D01*
X15833Y15430D01*
X16104Y16084D01*
X16269Y16773D01*
X16311Y17479D01*
X16269Y18185D01*
X16104Y18874D01*
X15833Y19528D01*
X15463Y20132D01*
X15003Y20671D01*
X14464Y21131D01*
X13860Y21501D01*
X13206Y21772D01*
X12517Y21937D01*
X11811Y21993D01*
X11804Y21992D01*
Y22966D01*
X11811Y22965D01*
X12517Y23021D01*
X13206Y23186D01*
X13860Y23457D01*
X14464Y23827D01*
X15003Y24287D01*
X15463Y24826D01*
X15833Y25430D01*
X16104Y26084D01*
X16269Y26773D01*
X16311Y27479D01*
X16269Y28185D01*
X16104Y28874D01*
X15833Y29528D01*
X15463Y30132D01*
X15003Y30671D01*
X14464Y31131D01*
X13860Y31501D01*
X13206Y31772D01*
X12517Y31937D01*
X11811Y31993D01*
X11804Y31992D01*
Y32966D01*
X11811Y32965D01*
X12517Y33021D01*
X13206Y33186D01*
X13860Y33457D01*
X14464Y33827D01*
X15003Y34287D01*
X15463Y34826D01*
X15833Y35430D01*
X16104Y36084D01*
X16269Y36773D01*
X16311Y37479D01*
X16269Y38185D01*
X16104Y38874D01*
X15833Y39528D01*
X15463Y40132D01*
X15003Y40671D01*
X14464Y41131D01*
X13860Y41501D01*
X13206Y41772D01*
X12517Y41937D01*
X11811Y41993D01*
X11804Y41992D01*
Y42966D01*
X11811Y42965D01*
X12517Y43021D01*
X13206Y43186D01*
X13860Y43457D01*
X14464Y43827D01*
X15003Y44287D01*
X15463Y44826D01*
X15833Y45430D01*
X16104Y46084D01*
X16269Y46773D01*
X16311Y47479D01*
X16269Y48185D01*
X16104Y48874D01*
X15833Y49528D01*
X15463Y50132D01*
X15003Y50671D01*
X14464Y51131D01*
X13860Y51501D01*
X13206Y51772D01*
X12517Y51937D01*
X11811Y51993D01*
X11804Y51992D01*
Y52966D01*
X11811Y52965D01*
X12517Y53021D01*
X13206Y53186D01*
X13860Y53457D01*
X14464Y53827D01*
X15003Y54287D01*
X15463Y54826D01*
X15833Y55430D01*
X16104Y56084D01*
X16269Y56773D01*
X16311Y57479D01*
X16269Y58185D01*
X16104Y58874D01*
X15833Y59528D01*
X15463Y60132D01*
X15003Y60671D01*
X14464Y61131D01*
X13860Y61501D01*
X13206Y61772D01*
X12517Y61937D01*
X11811Y61993D01*
X11804Y61992D01*
Y62966D01*
X11811Y62965D01*
X12517Y63021D01*
X13206Y63186D01*
X13860Y63457D01*
X14464Y63827D01*
X15003Y64287D01*
X15463Y64826D01*
X15833Y65430D01*
X16104Y66084D01*
X16269Y66773D01*
X16311Y67479D01*
X16269Y68185D01*
X16104Y68874D01*
X15833Y69528D01*
X15463Y70132D01*
X15003Y70671D01*
X14464Y71131D01*
X13860Y71501D01*
X13206Y71772D01*
X12517Y71937D01*
X11811Y71993D01*
X11804Y71992D01*
Y72966D01*
G37*
G36*
X25905Y236219D02*X27297D01*
Y233562D01*
X27282Y233551D01*
X27228Y233493D01*
X27183Y233428D01*
X27148Y233356D01*
X27126Y233280D01*
X27116Y233201D01*
X27118Y233122D01*
X27132Y233044D01*
X27159Y232969D01*
X27197Y232899D01*
X27245Y232836D01*
X27297Y232788D01*
Y225751D01*
X27264Y225707D01*
X27227Y225637D01*
X27202Y225562D01*
X27189Y225485D01*
Y225406D01*
X27200Y225328D01*
X27224Y225253D01*
X27259Y225183D01*
X27297Y225130D01*
Y217817D01*
X27228Y217803D01*
X27154Y217776D01*
X27085Y217737D01*
X27024Y217688D01*
X26971Y217630D01*
X26927Y217564D01*
X26896Y217492D01*
X26820Y217260D01*
X26767Y217021D01*
X26735Y216779D01*
X26725Y216534D01*
X26735Y216290D01*
X26767Y216048D01*
X26820Y215809D01*
X26894Y215576D01*
X26925Y215505D01*
X26969Y215439D01*
X27022Y215380D01*
X27084Y215331D01*
X27153Y215292D01*
X27226Y215264D01*
X27297Y215249D01*
Y211912D01*
X27228Y211898D01*
X27154Y211871D01*
X27085Y211832D01*
X27024Y211783D01*
X26971Y211725D01*
X26927Y211659D01*
X26896Y211587D01*
X26820Y211355D01*
X26767Y211116D01*
X26735Y210874D01*
X26725Y210629D01*
X26735Y210385D01*
X26767Y210143D01*
X26820Y209904D01*
X26894Y209671D01*
X26925Y209600D01*
X26969Y209534D01*
X27022Y209475D01*
X27084Y209426D01*
X27153Y209387D01*
X27226Y209359D01*
X27297Y209344D01*
Y206006D01*
X27228Y205992D01*
X27154Y205965D01*
X27085Y205926D01*
X27024Y205877D01*
X26971Y205819D01*
X26927Y205753D01*
X26896Y205681D01*
X26820Y205449D01*
X26767Y205210D01*
X26735Y204968D01*
X26725Y204723D01*
X26735Y204479D01*
X26767Y204237D01*
X26820Y203998D01*
X26894Y203765D01*
X26925Y203694D01*
X26969Y203628D01*
X27022Y203569D01*
X27084Y203520D01*
X27153Y203481D01*
X27226Y203453D01*
X27297Y203438D01*
Y200101D01*
X27228Y200087D01*
X27154Y200060D01*
X27085Y200021D01*
X27024Y199972D01*
X26971Y199914D01*
X26927Y199848D01*
X26896Y199776D01*
X26820Y199544D01*
X26767Y199305D01*
X26735Y199063D01*
X26725Y198818D01*
X26735Y198574D01*
X26767Y198332D01*
X26820Y198093D01*
X26894Y197860D01*
X26925Y197789D01*
X26969Y197723D01*
X27022Y197664D01*
X27084Y197615D01*
X27153Y197576D01*
X27226Y197548D01*
X27297Y197533D01*
Y196381D01*
X25905D01*
Y226486D01*
X25955Y226439D01*
X26020Y226394D01*
X26092Y226359D01*
X26168Y226337D01*
X26247Y226327D01*
X26326Y226329D01*
X26404Y226343D01*
X26479Y226370D01*
X26549Y226408D01*
X26612Y226456D01*
X26666Y226514D01*
X26711Y226579D01*
X26746Y226651D01*
X26768Y226727D01*
X26778Y226806D01*
X26776Y226885D01*
X26762Y226963D01*
X26735Y227038D01*
X26696Y227107D01*
X26512Y227412D01*
X26358Y227733D01*
X26233Y228067D01*
X26138Y228411D01*
X26073Y228761D01*
X26039Y229116D01*
X26036Y229472D01*
X26064Y229827D01*
X26123Y230179D01*
X26212Y230524D01*
X26331Y230860D01*
X26479Y231184D01*
X26654Y231494D01*
X26692Y231563D01*
X26717Y231638D01*
X26730Y231715D01*
Y231794D01*
X26719Y231872D01*
X26695Y231947D01*
X26660Y232017D01*
X26614Y232081D01*
X26559Y232137D01*
X26496Y232184D01*
X26426Y232221D01*
X26351Y232246D01*
X26274Y232259D01*
X26195D01*
X26117Y232248D01*
X26042Y232224D01*
X25972Y232189D01*
X25908Y232143D01*
X25905Y232140D01*
Y236219D01*
G37*
G36*
X14647D02*X25905D01*
Y232140D01*
X25852Y232088D01*
X25806Y232024D01*
X25583Y231640D01*
X25399Y231236D01*
X25251Y230818D01*
X25140Y230388D01*
X25067Y229950D01*
X25032Y229507D01*
X25036Y229063D01*
X25078Y228621D01*
X25159Y228185D01*
X25278Y227757D01*
X25433Y227341D01*
X25624Y226940D01*
X25850Y226557D01*
X25897Y226493D01*
X25905Y226486D01*
Y196381D01*
X24671D01*
X24606Y196386D01*
X24371Y196368D01*
X24141Y196312D01*
X23923Y196222D01*
X23721Y196099D01*
X23677Y196060D01*
X23542Y195945D01*
X23508Y195905D01*
X20642Y193039D01*
X20589Y192994D01*
X20436Y192814D01*
X20312Y192613D01*
X20222Y192394D01*
X20167Y192165D01*
X20161Y192068D01*
X20150Y191929D01*
X20153Y191892D01*
Y167943D01*
X19063Y166853D01*
X14647D01*
Y169433D01*
X14700Y169485D01*
X14746Y169549D01*
X14969Y169933D01*
X15153Y170337D01*
X15301Y170755D01*
X15412Y171185D01*
X15485Y171623D01*
X15520Y172066D01*
X15516Y172510D01*
X15474Y172952D01*
X15393Y173388D01*
X15274Y173816D01*
X15119Y174232D01*
X14928Y174633D01*
X14702Y175016D01*
X14655Y175080D01*
X14647Y175087D01*
Y226519D01*
X14700Y226571D01*
X14746Y226635D01*
X14969Y227019D01*
X15153Y227423D01*
X15301Y227841D01*
X15412Y228271D01*
X15485Y228709D01*
X15520Y229152D01*
X15516Y229596D01*
X15474Y230038D01*
X15393Y230474D01*
X15274Y230902D01*
X15119Y231318D01*
X14928Y231719D01*
X14702Y232102D01*
X14655Y232166D01*
X14647Y232173D01*
Y236219D01*
G37*
G36*
X11804D02*X14647D01*
Y232173D01*
X14597Y232220D01*
X14532Y232265D01*
X14460Y232300D01*
X14384Y232322D01*
X14305Y232332D01*
X14226Y232330D01*
X14148Y232316D01*
X14073Y232289D01*
X14003Y232251D01*
X13940Y232203D01*
X13886Y232145D01*
X13841Y232080D01*
X13806Y232008D01*
X13784Y231932D01*
X13774Y231853D01*
X13776Y231774D01*
X13790Y231696D01*
X13817Y231621D01*
X13856Y231552D01*
X14040Y231247D01*
X14194Y230926D01*
X14319Y230592D01*
X14414Y230248D01*
X14479Y229898D01*
X14513Y229543D01*
X14516Y229187D01*
X14488Y228832D01*
X14429Y228480D01*
X14340Y228135D01*
X14221Y227799D01*
X14073Y227475D01*
X13898Y227165D01*
X13860Y227096D01*
X13835Y227021D01*
X13822Y226944D01*
Y226865D01*
X13833Y226787D01*
X13857Y226712D01*
X13892Y226642D01*
X13938Y226578D01*
X13993Y226522D01*
X14056Y226475D01*
X14126Y226438D01*
X14201Y226413D01*
X14278Y226400D01*
X14357D01*
X14435Y226411D01*
X14510Y226435D01*
X14580Y226470D01*
X14644Y226516D01*
X14647Y226519D01*
Y175087D01*
X14597Y175134D01*
X14532Y175179D01*
X14460Y175214D01*
X14384Y175236D01*
X14305Y175246D01*
X14226Y175244D01*
X14148Y175230D01*
X14073Y175203D01*
X14003Y175165D01*
X13940Y175117D01*
X13886Y175059D01*
X13841Y174994D01*
X13806Y174922D01*
X13784Y174846D01*
X13774Y174767D01*
X13776Y174688D01*
X13790Y174610D01*
X13817Y174535D01*
X13856Y174466D01*
X14040Y174161D01*
X14194Y173840D01*
X14319Y173506D01*
X14414Y173162D01*
X14479Y172812D01*
X14513Y172457D01*
X14516Y172101D01*
X14488Y171746D01*
X14429Y171394D01*
X14340Y171049D01*
X14221Y170713D01*
X14073Y170389D01*
X13898Y170079D01*
X13860Y170010D01*
X13835Y169935D01*
X13822Y169858D01*
Y169779D01*
X13833Y169701D01*
X13857Y169626D01*
X13892Y169556D01*
X13938Y169492D01*
X13993Y169436D01*
X14056Y169389D01*
X14126Y169352D01*
X14201Y169327D01*
X14278Y169314D01*
X14357D01*
X14435Y169325D01*
X14510Y169349D01*
X14580Y169384D01*
X14644Y169430D01*
X14647Y169433D01*
Y166853D01*
X11804D01*
Y167347D01*
X12006Y167403D01*
X12422Y167558D01*
X12823Y167749D01*
X13206Y167975D01*
X13270Y168022D01*
X13324Y168080D01*
X13369Y168145D01*
X13404Y168217D01*
X13426Y168293D01*
X13436Y168372D01*
X13434Y168451D01*
X13420Y168529D01*
X13393Y168604D01*
X13355Y168674D01*
X13307Y168737D01*
X13249Y168791D01*
X13184Y168836D01*
X13112Y168871D01*
X13036Y168893D01*
X12957Y168903D01*
X12878Y168901D01*
X12800Y168887D01*
X12725Y168860D01*
X12656Y168821D01*
X12351Y168637D01*
X12030Y168483D01*
X11804Y168398D01*
Y176088D01*
X11964Y176031D01*
X12288Y175883D01*
X12598Y175708D01*
X12667Y175670D01*
X12742Y175645D01*
X12819Y175632D01*
X12898D01*
X12976Y175643D01*
X13051Y175667D01*
X13121Y175702D01*
X13185Y175748D01*
X13241Y175803D01*
X13288Y175866D01*
X13325Y175936D01*
X13350Y176011D01*
X13363Y176088D01*
Y176167D01*
X13352Y176245D01*
X13328Y176320D01*
X13293Y176390D01*
X13247Y176454D01*
X13192Y176510D01*
X13128Y176556D01*
X12744Y176779D01*
X12340Y176963D01*
X11922Y177111D01*
X11804Y177141D01*
Y224433D01*
X12006Y224489D01*
X12422Y224644D01*
X12823Y224835D01*
X13206Y225061D01*
X13270Y225108D01*
X13324Y225166D01*
X13369Y225231D01*
X13404Y225303D01*
X13426Y225379D01*
X13436Y225458D01*
X13434Y225537D01*
X13420Y225615D01*
X13393Y225690D01*
X13355Y225760D01*
X13307Y225823D01*
X13249Y225877D01*
X13184Y225922D01*
X13112Y225957D01*
X13036Y225979D01*
X12957Y225989D01*
X12878Y225987D01*
X12800Y225973D01*
X12725Y225946D01*
X12656Y225907D01*
X12351Y225723D01*
X12030Y225569D01*
X11804Y225484D01*
Y233174D01*
X11964Y233117D01*
X12288Y232969D01*
X12598Y232794D01*
X12667Y232756D01*
X12742Y232731D01*
X12819Y232718D01*
X12898D01*
X12976Y232729D01*
X13051Y232753D01*
X13121Y232788D01*
X13185Y232834D01*
X13241Y232889D01*
X13288Y232952D01*
X13325Y233022D01*
X13350Y233097D01*
X13363Y233174D01*
Y233253D01*
X13352Y233331D01*
X13328Y233406D01*
X13293Y233476D01*
X13247Y233540D01*
X13192Y233596D01*
X13128Y233642D01*
X12744Y233865D01*
X12340Y234049D01*
X11922Y234197D01*
X11804Y234227D01*
Y236219D01*
G37*
G36*
X6220Y81330D02*X6425Y81245D01*
X6655Y81190D01*
X6891Y81172D01*
X6943Y81176D01*
X9231D01*
X9158Y81131D01*
X8619Y80671D01*
X8159Y80132D01*
X7789Y79528D01*
X7518Y78874D01*
X7353Y78185D01*
X7297Y77479D01*
X7353Y76773D01*
X7518Y76084D01*
X7789Y75430D01*
X8159Y74826D01*
X8619Y74287D01*
X9158Y73827D01*
X9762Y73457D01*
X10416Y73186D01*
X11105Y73021D01*
X11804Y72966D01*
Y71992D01*
X11105Y71937D01*
X10416Y71772D01*
X9762Y71501D01*
X9158Y71131D01*
X8619Y70671D01*
X8159Y70132D01*
X7789Y69528D01*
X7518Y68874D01*
X7353Y68185D01*
X7297Y67479D01*
X7353Y66773D01*
X7518Y66084D01*
X7789Y65430D01*
X8159Y64826D01*
X8619Y64287D01*
X9158Y63827D01*
X9762Y63457D01*
X10416Y63186D01*
X11105Y63021D01*
X11804Y62966D01*
Y61992D01*
X11105Y61937D01*
X10416Y61772D01*
X9762Y61501D01*
X9158Y61131D01*
X8619Y60671D01*
X8159Y60132D01*
X7789Y59528D01*
X7518Y58874D01*
X7353Y58185D01*
X7297Y57479D01*
X7353Y56773D01*
X7518Y56084D01*
X7789Y55430D01*
X8159Y54826D01*
X8619Y54287D01*
X9158Y53827D01*
X9762Y53457D01*
X10416Y53186D01*
X11105Y53021D01*
X11804Y52966D01*
Y51992D01*
X11105Y51937D01*
X10416Y51772D01*
X9762Y51501D01*
X9158Y51131D01*
X8619Y50671D01*
X8159Y50132D01*
X7789Y49528D01*
X7518Y48874D01*
X7353Y48185D01*
X7297Y47479D01*
X7353Y46773D01*
X7518Y46084D01*
X7789Y45430D01*
X8159Y44826D01*
X8619Y44287D01*
X9158Y43827D01*
X9762Y43457D01*
X10416Y43186D01*
X11105Y43021D01*
X11804Y42966D01*
Y41992D01*
X11105Y41937D01*
X10416Y41772D01*
X9762Y41501D01*
X9158Y41131D01*
X8619Y40671D01*
X8159Y40132D01*
X7789Y39528D01*
X7518Y38874D01*
X7353Y38185D01*
X7297Y37479D01*
X7353Y36773D01*
X7518Y36084D01*
X7789Y35430D01*
X8159Y34826D01*
X8619Y34287D01*
X9158Y33827D01*
X9762Y33457D01*
X10416Y33186D01*
X11105Y33021D01*
X11804Y32966D01*
Y31992D01*
X11105Y31937D01*
X10416Y31772D01*
X9762Y31501D01*
X9158Y31131D01*
X8619Y30671D01*
X8159Y30132D01*
X7789Y29528D01*
X7518Y28874D01*
X7353Y28185D01*
X7297Y27479D01*
X7353Y26773D01*
X7518Y26084D01*
X7789Y25430D01*
X8159Y24826D01*
X8619Y24287D01*
X9158Y23827D01*
X9762Y23457D01*
X10416Y23186D01*
X11105Y23021D01*
X11804Y22966D01*
Y21992D01*
X11105Y21937D01*
X10416Y21772D01*
X9762Y21501D01*
X9158Y21131D01*
X8619Y20671D01*
X8159Y20132D01*
X7789Y19528D01*
X7518Y18874D01*
X7353Y18185D01*
X7297Y17479D01*
X7353Y16773D01*
X7518Y16084D01*
X7789Y15430D01*
X8159Y14826D01*
X8619Y14287D01*
X9158Y13827D01*
X9762Y13457D01*
X10416Y13186D01*
X11105Y13021D01*
X11804Y12966D01*
Y11992D01*
X11105Y11937D01*
X10416Y11772D01*
X9762Y11501D01*
X9158Y11131D01*
X8619Y10671D01*
X8159Y10132D01*
X7789Y9528D01*
X7518Y8874D01*
X7353Y8185D01*
X7297Y7479D01*
X7353Y6773D01*
X7518Y6084D01*
X7789Y5430D01*
X8159Y4826D01*
X8619Y4287D01*
X9158Y3827D01*
X9762Y3457D01*
X10416Y3186D01*
X11105Y3021D01*
X11804Y2966D01*
Y1968D01*
X6220D01*
Y81330D01*
G37*
G36*
Y236219D02*X11804D01*
Y234227D01*
X11492Y234308D01*
X11054Y234381D01*
X10611Y234416D01*
X10167Y234412D01*
X9725Y234370D01*
X9289Y234289D01*
X8861Y234170D01*
X8445Y234015D01*
X8044Y233824D01*
X7661Y233598D01*
X7597Y233551D01*
X7543Y233493D01*
X7498Y233428D01*
X7463Y233356D01*
X7441Y233280D01*
X7431Y233201D01*
X7433Y233122D01*
X7447Y233044D01*
X7474Y232969D01*
X7512Y232899D01*
X7560Y232836D01*
X7618Y232782D01*
X7683Y232737D01*
X7755Y232702D01*
X7831Y232680D01*
X7910Y232670D01*
X7989Y232672D01*
X8067Y232686D01*
X8142Y232713D01*
X8211Y232752D01*
X8516Y232936D01*
X8837Y233090D01*
X9171Y233215D01*
X9515Y233310D01*
X9865Y233375D01*
X10220Y233409D01*
X10576Y233412D01*
X10931Y233384D01*
X11283Y233325D01*
X11628Y233236D01*
X11804Y233174D01*
Y225484D01*
X11696Y225444D01*
X11352Y225349D01*
X11002Y225284D01*
X10647Y225250D01*
X10291Y225247D01*
X9936Y225275D01*
X9584Y225334D01*
X9239Y225423D01*
X8903Y225542D01*
X8579Y225690D01*
X8269Y225865D01*
X8200Y225903D01*
X8125Y225928D01*
X8048Y225941D01*
X7969D01*
X7891Y225930D01*
X7816Y225906D01*
X7746Y225871D01*
X7682Y225825D01*
X7626Y225770D01*
X7579Y225707D01*
X7542Y225637D01*
X7517Y225562D01*
X7504Y225485D01*
Y225406D01*
X7515Y225328D01*
X7539Y225253D01*
X7574Y225183D01*
X7620Y225119D01*
X7675Y225063D01*
X7739Y225017D01*
X8123Y224794D01*
X8527Y224610D01*
X8945Y224462D01*
X9375Y224351D01*
X9813Y224278D01*
X10256Y224243D01*
X10700Y224247D01*
X11142Y224289D01*
X11578Y224370D01*
X11804Y224433D01*
Y177141D01*
X11492Y177222D01*
X11054Y177295D01*
X10611Y177330D01*
X10167Y177326D01*
X9725Y177284D01*
X9289Y177203D01*
X8861Y177084D01*
X8445Y176929D01*
X8044Y176738D01*
X7661Y176512D01*
X7597Y176465D01*
X7543Y176407D01*
X7498Y176342D01*
X7463Y176270D01*
X7441Y176194D01*
X7431Y176115D01*
X7433Y176036D01*
X7447Y175958D01*
X7474Y175883D01*
X7512Y175813D01*
X7560Y175750D01*
X7618Y175696D01*
X7683Y175651D01*
X7755Y175616D01*
X7831Y175594D01*
X7910Y175584D01*
X7989Y175586D01*
X8067Y175600D01*
X8142Y175627D01*
X8211Y175666D01*
X8516Y175850D01*
X8837Y176004D01*
X9171Y176129D01*
X9515Y176224D01*
X9865Y176289D01*
X10220Y176323D01*
X10576Y176326D01*
X10931Y176298D01*
X11283Y176239D01*
X11628Y176150D01*
X11804Y176088D01*
Y168398D01*
X11696Y168358D01*
X11352Y168263D01*
X11002Y168198D01*
X10647Y168164D01*
X10291Y168161D01*
X9936Y168189D01*
X9584Y168248D01*
X9239Y168337D01*
X8903Y168456D01*
X8579Y168604D01*
X8269Y168779D01*
X8200Y168817D01*
X8125Y168842D01*
X8048Y168855D01*
X7969D01*
X7891Y168844D01*
X7816Y168820D01*
X7746Y168785D01*
X7682Y168739D01*
X7626Y168684D01*
X7579Y168621D01*
X7542Y168551D01*
X7517Y168476D01*
X7504Y168399D01*
Y168320D01*
X7515Y168242D01*
X7539Y168167D01*
X7574Y168097D01*
X7620Y168033D01*
X7675Y167977D01*
X7739Y167931D01*
X8123Y167708D01*
X8527Y167524D01*
X8945Y167376D01*
X9375Y167265D01*
X9813Y167192D01*
X10256Y167157D01*
X10700Y167161D01*
X11142Y167203D01*
X11578Y167284D01*
X11804Y167347D01*
Y166853D01*
X7939D01*
X7874Y166858D01*
X7639Y166840D01*
X7409Y166784D01*
X7191Y166694D01*
X6989Y166571D01*
X6912Y166503D01*
X6811Y166416D01*
X6787Y166388D01*
X6220Y165821D01*
Y169400D01*
X6270Y169353D01*
X6335Y169308D01*
X6407Y169273D01*
X6483Y169251D01*
X6562Y169241D01*
X6641Y169243D01*
X6719Y169257D01*
X6794Y169284D01*
X6864Y169322D01*
X6927Y169370D01*
X6981Y169428D01*
X7026Y169493D01*
X7061Y169565D01*
X7083Y169641D01*
X7093Y169720D01*
X7091Y169799D01*
X7077Y169877D01*
X7050Y169952D01*
X7011Y170021D01*
X6827Y170326D01*
X6673Y170647D01*
X6548Y170981D01*
X6453Y171325D01*
X6388Y171675D01*
X6354Y172030D01*
X6351Y172386D01*
X6379Y172741D01*
X6438Y173093D01*
X6527Y173438D01*
X6646Y173774D01*
X6794Y174098D01*
X6969Y174408D01*
X7007Y174477D01*
X7032Y174552D01*
X7045Y174629D01*
Y174708D01*
X7034Y174786D01*
X7010Y174861D01*
X6975Y174931D01*
X6929Y174995D01*
X6874Y175051D01*
X6811Y175098D01*
X6741Y175135D01*
X6666Y175160D01*
X6589Y175173D01*
X6510D01*
X6432Y175162D01*
X6357Y175138D01*
X6287Y175103D01*
X6223Y175057D01*
X6220Y175054D01*
Y226486D01*
X6270Y226439D01*
X6335Y226394D01*
X6407Y226359D01*
X6483Y226337D01*
X6562Y226327D01*
X6641Y226329D01*
X6719Y226343D01*
X6794Y226370D01*
X6864Y226408D01*
X6927Y226456D01*
X6981Y226514D01*
X7026Y226579D01*
X7061Y226651D01*
X7083Y226727D01*
X7093Y226806D01*
X7091Y226885D01*
X7077Y226963D01*
X7050Y227038D01*
X7011Y227107D01*
X6827Y227412D01*
X6673Y227733D01*
X6548Y228067D01*
X6453Y228411D01*
X6388Y228761D01*
X6354Y229116D01*
X6351Y229472D01*
X6379Y229827D01*
X6438Y230179D01*
X6527Y230524D01*
X6646Y230860D01*
X6794Y231184D01*
X6969Y231494D01*
X7007Y231563D01*
X7032Y231638D01*
X7045Y231715D01*
Y231794D01*
X7034Y231872D01*
X7010Y231947D01*
X6975Y232017D01*
X6929Y232081D01*
X6874Y232137D01*
X6811Y232184D01*
X6741Y232221D01*
X6666Y232246D01*
X6589Y232259D01*
X6510D01*
X6432Y232248D01*
X6357Y232224D01*
X6287Y232189D01*
X6223Y232143D01*
X6220Y232140D01*
Y236219D01*
G37*
G36*
X1969Y1968D02*Y236219D01*
X6220D01*
Y232140D01*
X6167Y232088D01*
X6121Y232024D01*
X5898Y231640D01*
X5714Y231236D01*
X5566Y230818D01*
X5455Y230388D01*
X5382Y229950D01*
X5347Y229507D01*
X5351Y229063D01*
X5393Y228621D01*
X5474Y228185D01*
X5593Y227757D01*
X5748Y227341D01*
X5939Y226940D01*
X6165Y226557D01*
X6212Y226493D01*
X6220Y226486D01*
Y175054D01*
X6167Y175002D01*
X6121Y174938D01*
X5898Y174554D01*
X5714Y174150D01*
X5566Y173732D01*
X5455Y173302D01*
X5382Y172864D01*
X5347Y172421D01*
X5351Y171977D01*
X5393Y171535D01*
X5474Y171099D01*
X5593Y170671D01*
X5748Y170255D01*
X5939Y169854D01*
X6165Y169471D01*
X6212Y169407D01*
X6220Y169400D01*
Y165821D01*
X3909Y163510D01*
X3856Y163465D01*
X3703Y163285D01*
X3579Y163084D01*
X3489Y162865D01*
X3434Y162636D01*
X3428Y162539D01*
X3417Y162400D01*
X3420Y162363D01*
Y84685D01*
X3417Y84646D01*
X3435Y84410D01*
X3490Y84180D01*
X3580Y83962D01*
X3627Y83886D01*
X3703Y83761D01*
X3724Y83737D01*
X3857Y83581D01*
X3904Y83541D01*
X5786Y81659D01*
X5826Y81612D01*
X5983Y81479D01*
X6006Y81458D01*
X6131Y81382D01*
X6207Y81335D01*
X6220Y81330D01*
Y1968D01*
X1969D01*
G37*
G54D12*X35059Y218502D02*X46023D01*
X46024Y218503D01*
X35059Y214565D02*X46023D01*
X46024Y214566D01*
X35059Y212597D02*X46024D01*
X35059Y208660D02*X46024D01*
X29528Y204723D02*X54134D01*
X29528Y198818D02*X54134D01*
X46023Y210628D02*X46024Y210629D01*
X29528Y216534D02*X54134D01*
X29528Y210629D02*X54134D01*
X35059Y206691D02*X46023D01*
X35059Y202754D02*X46023D01*
X46024Y202755D01*
X35059Y200786D02*X46024D01*
X46023Y206691D02*X46024Y206692D01*
X46023Y198817D02*X46024Y198818D01*
X35059Y196849D02*X46024D01*
X35059Y194880D02*X46023D01*
X46024Y194881D01*
X35059Y192912D02*X46024D01*
X35059Y190943D02*X46023D01*
Y183069D02*X46024Y183070D01*
X46023Y190943D02*X46024Y190944D01*
X35059Y188975D02*X59056D01*
X46024Y190944D02*X60039D01*
X29528Y187007D02*X46023Y187006D01*
X35059Y183069D02*X46023D01*
X23622Y180117D02*X26575Y183070D01*
X35058D01*
X35059Y183069D01*
Y185038D02*X57087D01*
X21654Y191929D02*X24606Y194881D01*
X23622Y180117D02*Y166338D01*
X21654Y191929D02*Y167322D01*
X24606Y194881D02*X35058D01*
X35059Y194880D01*
X59056Y188975D02*X61024Y187007D01*
X60039Y190944D02*X62992Y187991D01*
Y167322D01*
X59055Y183070D02*X57087Y185038D01*
X59055Y183070D02*Y158464D01*
X56102Y155511D01*
X63977Y163385D02*X61024Y166338D01*
Y187007D02*Y166338D01*
X62992Y167322D02*X64961Y165353D01*
X24019Y106275D02*Y111786D01*
X21657Y100369D02*X19688Y102338D01*
X31105Y110606D02*X24019Y117692D01*
X31105Y106275D02*Y110606D01*
Y106275D02*X39010D01*
X31496Y116141D02*X32480Y115157D01*
X61026Y100369D02*X53152D01*
X33467D02*X21657D01*
X35436Y102338D02*X33467Y100369D01*
X47247Y102338D02*X35436D01*
X11811Y97479D02*X6890Y102400D01*
X39370Y98424D02*X34449D01*
X31496Y95471D01*
Y90550D01*
X19685Y99408D02*X11811Y107282D01*
X19685Y102361D02*Y109251D01*
X11811Y117125D01*
X23624Y138166D02*X24019Y137771D01*
X23624Y151550D02*Y138166D01*
X19688Y116117D02*Y121550D01*
X24019Y111786D02*X19688Y116117D01*
X24019Y117692D02*Y122023D01*
X19688Y121550D02*X13782Y127456D01*
X6890Y102400D02*Y161417D01*
X19685Y86613D02*Y99408D01*
X6890Y161417D02*X8858Y163385D01*
X4921Y84645D02*Y162400D01*
X7874Y165353D01*
X8858Y163385D02*X20669D01*
X23622Y166338D01*
X21654Y167322D02*X19685Y165353D01*
X7874D02*X19685D01*
X55515Y133440D02*X62601Y126354D01*
X55515Y137771D02*Y133440D01*
Y137771D02*X50895D01*
X65944Y142716D02*X40355D01*
X62601Y137771D02*Y130311D01*
X50895Y137771D02*X39047Y125923D01*
X40355Y142716D02*X35433Y137794D01*
X31128D01*
X31105Y137771D01*
X62601Y126354D02*Y122023D01*
X66929Y141731D02*Y132361D01*
Y141731D02*X65944Y142716D01*
X76772Y161416D02*X74803Y163385D01*
X63977D01*
X62601Y130311D02*X66929Y125983D01*
Y132361D02*X71811Y127479D01*
X76772Y82440D02*Y161416D01*
X78740Y74408D02*Y162400D01*
X75787Y165353D01*
X64961D01*
X39010Y106275D02*X39047Y106238D01*
X39370Y118109D02*X44292D01*
X66929Y125983D02*Y99185D01*
X62601Y101944D02*Y106275D01*
X55515Y122023D02*X31105D01*
X44292Y118109D02*X47244Y115157D01*
Y108267D01*
X49213Y106298D01*
X56102D01*
X31496Y122046D02*Y116141D01*
X62601Y79110D02*Y36689D01*
X71811Y27479D01*
Y77479D02*X76772Y82440D01*
X71811Y67479D02*X78740Y74408D01*
X23625Y82653D02*X19688Y86590D01*
X39373Y82653D02*X23625D01*
X25593Y84621D02*X24019Y86195D01*
X25593Y84621D02*X32457D01*
X24019Y86195D02*Y90527D01*
X55515Y74779D02*X31262D01*
X32457Y84621D02*X38386Y90550D01*
X62601Y101944D02*X61026Y100369D01*
Y96432D02*X53153D01*
X62601Y94857D02*X61026Y96432D01*
X62601Y90527D02*Y94857D01*
Y79110D02*X55515Y86196D01*
X66929Y99185D02*X62601Y94857D01*
X53153Y96432D02*X39373Y82653D01*
X55515Y86196D02*Y90527D01*
X38386Y90550D02*X43333D01*
X53152Y100369D01*
X4921Y84645D02*X6890Y82676D01*
X13779D01*
X16732Y79723D01*
Y75787D01*
X17717Y74802D01*
X23625Y74542D02*X23862Y74779D01*
X23625Y66905D02*Y74542D01*
X17717Y74802D02*X23622D01*
G54D13*X11811Y127479D03*
Y117479D03*
Y107479D03*
Y97479D03*
Y87479D03*
Y77479D03*
Y67479D03*
Y57479D03*
Y47479D03*
Y37479D03*
Y27479D03*
Y17479D03*
Y7479D03*
G54D11*G36*
X8811Y160479D02*Y154479D01*
X14811D01*
Y160479D01*
X8811D01*
G37*
G54D13*X11811Y147479D03*
Y137479D03*
G54D14*X10434Y229329D03*
X30119Y172243D03*
X10434D03*
G54D15*X49016Y229329D03*
G54D16*X72480D03*
G54D14*X30119D03*
G54D15*X49016Y172243D03*
G54D16*X72480D03*
G54D11*G36*
X68811Y160479D02*Y154479D01*
X74811D01*
Y160479D01*
X68811D01*
G37*
G54D13*X71811Y147479D03*
Y137479D03*
Y127479D03*
Y117479D03*
Y107479D03*
Y97479D03*
Y87479D03*
Y77479D03*
Y67479D03*
Y57479D03*
Y47479D03*
Y37479D03*
Y27479D03*
Y17479D03*
Y7479D03*
G54D17*X40906Y200786D02*X51142D01*
X40906Y198818D02*X51142D01*
X40906Y196849D02*X51142D01*
X40906Y212597D02*X51142D01*
X40906Y210629D02*X51142D01*
X40906Y208660D02*X51142D01*
X40906Y204723D02*X51142D01*
X40906Y206692D02*X51142D01*
X40906Y202755D02*X51142D01*
X40906Y218503D02*X51142D01*
X40906Y216534D02*X51142D01*
X40906Y214566D02*X51142D01*
X40906Y194881D02*X51142D01*
X40906Y192912D02*X51142D01*
X40906Y190944D02*X51142D01*
X40906Y187007D02*X51142D01*
X40906Y185038D02*X51142D01*
X40906Y183070D02*X51142D01*
X40906Y188975D02*X51142D01*
X32205Y183069D02*X37914D01*
X32205Y185038D02*X37914D01*
X32205Y187006D02*X37914D01*
X32205Y188975D02*X37914D01*
X32205Y190943D02*X37914D01*
X32205Y192912D02*X37914D01*
X32205Y194880D02*X37914D01*
X32205Y196849D02*X37914D01*
X32205Y198817D02*X37914D01*
X32205Y200786D02*X37914D01*
X32205Y202754D02*X37914D01*
X32205Y204723D02*X37914D01*
X32205Y206691D02*X37914D01*
X32205Y208660D02*X37914D01*
X32205Y210628D02*X37914D01*
X32205Y212597D02*X37914D01*
X32205Y214565D02*X37914D01*
X32205Y216534D02*X37914D01*
X32205Y218502D02*X37914D01*
G54D18*X62601Y90920D02*Y90134D01*
X55515Y90920D02*Y90134D01*
Y75172D02*Y74386D01*
X62601Y75172D02*Y74386D01*
X24019Y90920D02*Y90134D01*
X31105Y90920D02*Y90134D01*
G54D19*X31262Y75779D02*Y73779D01*
X23862Y75779D02*Y73779D01*
G54D20*X38747Y106238D02*X39347D01*
X38747Y98438D02*X39347D01*
X46947Y102338D02*X47547D01*
G54D18*X62601Y106668D02*Y105882D01*
Y122416D02*Y121630D01*
X55515Y106668D02*Y105882D01*
Y122416D02*Y121630D01*
X62601Y138164D02*Y137378D01*
X55515Y138164D02*Y137378D01*
X24019Y138164D02*Y137378D01*
X31105Y138164D02*Y137378D01*
G54D20*X38747Y125923D02*X39347D01*
X38747Y118123D02*X39347D01*
X46947Y122023D02*X47547D01*
G54D18*X24019Y106668D02*Y105882D01*
X31105Y106668D02*Y105882D01*
X24019Y122416D02*Y121630D01*
X31105Y122416D02*Y121630D01*
G54D21*X56102Y155511D03*
G54D22*X29528Y216534D03*
Y198818D03*
Y204723D03*
Y210629D03*
X23625Y66905D03*
X54134Y216534D03*
Y210629D03*
Y204723D03*
Y198818D03*
X29528Y187007D03*
X23624Y151550D03*
G54D23*X38386Y90550D03*
X32480Y115157D03*
G54D11*G54D24*G54D11*G54D25*G54D26*G54D27*G54D26*G54D27*G54D26*G54D25*M02*
