G04 start of page 6 for group -4063 idx -4063 *
G04 Title: (unknown), componentmask *
G04 Creator: pcb 1.99z *
G04 CreationDate: Fri 24 Jun 2011 08:49:47 AM GMT UTC *
G04 For: russ *
G04 Format: Gerber/RS-274X *
G04 PCB-Dimensions: 86614 238188 *
G04 PCB-Coordinate-Origin: lower left *
%MOIN*%
%FSLAX25Y25*%
%LNTOPMASK*%
%ADD54C,0.0600*%
%ADD53R,0.0400X0.0400*%
%ADD52R,0.0570X0.0570*%
%ADD51R,0.0572X0.0572*%
%ADD50C,0.0318*%
%ADD49C,0.0973*%
%ADD48C,0.1359*%
%ADD47C,0.0877*%
%ADD46C,0.0200*%
%ADD45C,0.0660*%
G54D45*X11811Y127479D03*
Y117479D03*
Y107479D03*
Y97479D03*
Y87479D03*
Y77479D03*
Y67479D03*
Y57479D03*
Y47479D03*
Y37479D03*
Y27479D03*
Y17479D03*
Y7479D03*
G54D46*G36*
X8511Y160779D02*Y154179D01*
X15111D01*
Y160779D01*
X8511D01*
G37*
G54D45*X11811Y147479D03*
Y137479D03*
G54D47*X10434Y229329D03*
X30119Y172243D03*
X10434D03*
G54D48*X49016Y229329D03*
G54D49*X72480D03*
G54D47*X30119D03*
G54D48*X49016Y172243D03*
G54D49*X72480D03*
G54D46*G36*
X68511Y160779D02*Y154179D01*
X75111D01*
Y160779D01*
X68511D01*
G37*
G54D45*X71811Y147479D03*
Y137479D03*
Y127479D03*
Y117479D03*
Y107479D03*
Y97479D03*
Y87479D03*
Y77479D03*
Y67479D03*
Y57479D03*
Y47479D03*
Y37479D03*
Y27479D03*
Y17479D03*
Y7479D03*
G54D50*X40906Y200786D02*X51142D01*
X40906Y198818D02*X51142D01*
X40906Y196849D02*X51142D01*
X40906Y212597D02*X51142D01*
X40906Y210629D02*X51142D01*
X40906Y208660D02*X51142D01*
X40906Y204723D02*X51142D01*
X40906Y206692D02*X51142D01*
X40906Y202755D02*X51142D01*
X40906Y218503D02*X51142D01*
X40906Y216534D02*X51142D01*
X40906Y214566D02*X51142D01*
X40906Y194881D02*X51142D01*
X40906Y192912D02*X51142D01*
X40906Y190944D02*X51142D01*
X40906Y187007D02*X51142D01*
X40906Y185038D02*X51142D01*
X40906Y183070D02*X51142D01*
X40906Y188975D02*X51142D01*
X32205Y183069D02*X37914D01*
X32205Y185038D02*X37914D01*
X32205Y187006D02*X37914D01*
X32205Y188975D02*X37914D01*
X32205Y190943D02*X37914D01*
X32205Y192912D02*X37914D01*
X32205Y194880D02*X37914D01*
X32205Y196849D02*X37914D01*
X32205Y198817D02*X37914D01*
X32205Y200786D02*X37914D01*
X32205Y202754D02*X37914D01*
X32205Y204723D02*X37914D01*
X32205Y206691D02*X37914D01*
X32205Y208660D02*X37914D01*
X32205Y210628D02*X37914D01*
X32205Y212597D02*X37914D01*
X32205Y214565D02*X37914D01*
X32205Y216534D02*X37914D01*
X32205Y218502D02*X37914D01*
G54D51*X62601Y90920D02*Y90134D01*
X55515Y90920D02*Y90134D01*
Y75172D02*Y74386D01*
X62601Y75172D02*Y74386D01*
X24019Y90920D02*Y90134D01*
X31105Y90920D02*Y90134D01*
G54D52*X31262Y75779D02*Y73779D01*
X23862Y75779D02*Y73779D01*
G54D53*X38747Y106238D02*X39347D01*
X38747Y98438D02*X39347D01*
X46947Y102338D02*X47547D01*
G54D51*X62601Y106668D02*Y105882D01*
Y122416D02*Y121630D01*
X55515Y106668D02*Y105882D01*
Y122416D02*Y121630D01*
X62601Y138164D02*Y137378D01*
X55515Y138164D02*Y137378D01*
X24019Y138164D02*Y137378D01*
X31105Y138164D02*Y137378D01*
G54D53*X38747Y125923D02*X39347D01*
X38747Y118123D02*X39347D01*
X46947Y122023D02*X47547D01*
G54D51*X24019Y106668D02*Y105882D01*
X31105Y106668D02*Y105882D01*
X24019Y122416D02*Y121630D01*
X31105Y122416D02*Y121630D01*
G54D54*X56102Y155511D03*
M02*
