<?xml version="1.0" encoding="UTF-8" standalone="no"?>
<!-- Created with Inkscape (http://www.inkscape.org/) -->
<svg xmlns:dc="http://purl.org/dc/elements/1.1/" xmlns:cc="http://web.resource.org/cc/" xmlns:rdf="http://www.w3.org/1999/02/22-rdf-syntax-ns#" xmlns:svg="http://www.w3.org/2000/svg" xmlns="http://www.w3.org/2000/svg" xmlns:sodipodi="http://sodipodi.sourceforge.net/DTD/sodipodi-0.dtd" xmlns:inkscape="http://www.inkscape.org/namespaces/inkscape" version="1.0" width="475.35315" height="491.06744" id="svg2" sodipodi:version="0.32" inkscape:version="0.44" sodipodi:docname="anhinga.svg" sodipodi:docbase="C:\Documents and Settings\ryan\Desktop\new ones">
  <metadata id="metadata7">
    <rdf:RDF>
      <cc:Work rdf:about="">
        <dc:format>image/svg+xml</dc:format>
        <dc:type rdf:resource="http://purl.org/dc/dcmitype/StillImage"/>
      </cc:Work>
    </rdf:RDF>
  </metadata>
  <sodipodi:namedview inkscape:window-height="573" inkscape:window-width="853" inkscape:pageshadow="2" inkscape:pageopacity="0.0" guidetolerance="10.0" gridtolerance="10.0" objecttolerance="10.0" borderopacity="1.0" bordercolor="#666666" pagecolor="#ffffff" id="base" inkscape:zoom="0.76771532" inkscape:cx="237.67657" inkscape:cy="245.53372" inkscape:window-x="176" inkscape:window-y="232" inkscape:current-layer="svg2"/>
  <defs id="defs4"/>
  <path id="path1882" d="M 111.27213,431.1457 C 106.68541,430.36323 100.94819,428.49474 99.604338,423.50095 C 99.698463,417.55672 102.77355,428.72893 106.24277,427.64389 C 112.46225,428.78367 119.01345,429.54237 125.25625,428.26272 C 130.12637,425.75014 134.43913,421.9414 137.52118,417.40955 C 138.25379,413.25887 133.62661,419.83854 131.3257,419.75439 C 127.54545,421.12338 121.85643,424.45718 119.31546,419.50322 C 118.00983,417.30837 116.41376,416.8607 115.68348,419.4439 C 112.17321,418.79834 119.01543,413.36643 114.58123,411.8408 C 115.92006,408.55888 113.834,407.22038 111.74714,410.16338 C 109.90933,412.93752 109.13585,412.48188 110.30499,409.48219 C 108.22541,405.15936 104.80666,420.24634 102.38844,413.16441 C 103.26884,409.37916 99.442557,408.91172 99.305425,412.74147 C 99.366333,414.74812 98.066274,418.10047 97.280267,414.23728 C 97.221772,407.56714 101.11318,401.68139 103.93176,395.85366 C 107.2008,390.08785 110.15603,383.99188 114.51809,378.96888 C 114.58376,382.63838 110.62269,386.96867 108.89133,390.71567 C 106.88487,394.61994 104.38376,398.51258 103.81007,402.93948 C 106.63274,400.38467 108.27264,395.57533 110.37595,392.01489 C 113.01094,387.36904 115.0874,382.21904 118.87379,378.3717 C 121.14355,378.7549 123.96951,376.53048 120.62428,375.32329 C 121.38428,369.1444 126.28172,364.14922 127.05928,358.00042 C 129.09123,351.37068 133.02811,345.41603 136.23305,339.27266 C 141.53376,329.54247 147.21782,319.86481 150.65445,309.28384 C 147.88855,306.92882 142.23901,312.27121 138.88615,313.69344 C 134.09133,316.35641 129.86703,320.71834 124.23585,321.42506 C 120.38896,319.05027 125.61245,313.45261 127.10426,310.59968 C 134.13126,300.92883 142.56103,292.41089 150.49677,283.5011 C 149.41878,276.38935 149.25342,269.07283 147.08381,262.1792 C 144.89356,257.0734 140.6188,253.33505 137.20446,249.06139 C 129.71276,249.17023 122.13143,250.25038 114.70526,248.95406 C 111.25383,246.70311 106.57712,246.88935 102.93415,244.61634 C 98.528911,242.67269 94.032151,240.95057 89.518586,239.27797 C 88.216259,243.75144 87.736376,248.63559 85.116848,252.57617 C 82.292538,251.27403 85.71532,245.60065 86.369293,242.66446 C 86.721408,241.1502 87.857284,239.46391 87.741667,238.0523 C 83.94355,233.85215 79.195452,230.22152 76.758197,225.03152 C 80.309785,225.76944 82.578308,230.709 85.913366,232.75171 C 90.907304,236.25002 88.775897,226.39662 88.800281,223.76913 C 88.363224,221.85451 88.216196,216.06865 90.163633,220.85533 C 92.937597,225.89026 98.650783,220.45002 102.02281,218.90244 C 104.08107,217.97987 109.41445,213.82471 110.22512,215.59734 C 104.66121,220.82715 96.515954,222.61113 91.49356,228.45755 C 90.762326,232.65776 88.955263,237.9729 94.770469,239.31872 C 100.54444,241.97304 106.29692,245.35728 112.73087,245.95408 C 115.10315,246.646 116.61571,241.36119 116.56138,245.95748 C 119.89181,249.21237 125.92731,246.57492 130.26065,246.84033 C 133.94294,246.99507 137.99938,245.61964 135.42421,241.26764 C 133.77542,236.43265 131.98828,231.62752 130.79683,226.66547 C 128.39613,221.81857 125.51635,216.83544 121.13609,213.54013 C 116.56699,214.31388 121.31232,205.51808 116.48937,208.29821 C 115.16249,211.86133 111.88079,210.17981 114.00141,206.94343 C 116.40152,201.67133 112.0926,196.61276 109.39218,192.41027 C 108.13589,189.41631 103.93521,185.81769 102.82207,190.87872 C 100.51391,194.34603 101.96589,185.38566 101.46551,183.7413 C 101.52993,178.7219 97.914128,174.61264 93.500915,172.68311 C 90.143617,170.62153 85.300362,169.83089 82.96704,166.73456 C 86.398725,166.52774 93.9155,172.41872 92.907365,165.28808 C 93.215745,160.3715 92.179107,155.51561 88.491883,152.01523 C 86.919705,150.71831 84.890444,146.98879 88.393511,149.61299 C 91.296908,150.57184 96.32747,157.3657 98.055527,153.16531 C 97.211986,149.74173 100.33245,149.17838 100.80433,152.76036 C 100.22081,155.78872 105.73157,160.24628 104.70653,154.79174 C 103.91231,148.58466 100.39044,143.18252 99.028202,137.1518 C 99.299206,132.82125 101.48621,128.63868 100.96285,124.10724 C 100.46295,122.2423 102.56872,116.99298 102.91129,121.54514 C 102.93002,126.07585 102.78235,130.92216 100.59077,134.98297 C 101.7083,140.18356 105.11565,144.82585 106.32031,150.13811 C 107.86296,153.45387 108.73063,161.42067 113.1377,160.17341 C 110.59221,156.2873 109.2581,151.69423 109.46309,147.00603 C 109.72465,142.53912 107.98964,138.29733 107.51639,133.9968 C 110.37171,134.87474 110.7913,140.66666 111.80988,143.66776 C 112.06829,147.64921 112.94824,154.57292 118.24245,154.18433 C 120.10971,153.30722 117.75808,145.85595 120.42366,148.96755 C 121.59291,153.89653 119.66718,159.09201 121.17744,163.96412 C 126.78001,167.67634 124.51223,157.96492 123.88009,155.0213 C 123.81978,153.18349 120.85871,145.82389 124.17358,149.52004 C 126.92052,154.97323 126.58259,161.5586 129.95918,166.72553 C 134.84081,168.0385 129.59485,160.58298 129.23676,158.39846 C 127.88289,155.82748 130.60561,153.05658 131.51318,156.95929 C 133.2666,159.41456 133.59348,167.66241 137.13586,166.12341 C 137.32151,160.10207 134.39515,154.46632 132.14007,149.00527 C 128.96401,142.13845 124.48777,135.88924 122.34428,128.55685 C 121.28353,124.25667 119.1213,119.34975 120.56199,115.04449 C 122.2578,117.04839 125.48313,121.13878 126.4095,115.99778 C 127.39521,111.37001 129.58936,104.99683 124.52276,101.94197 C 123.72096,99.614982 128.90686,96.505047 125.67741,93.314064 C 123.02269,90.866804 116.32947,89.984807 118.64269,95.415228 C 119.15831,100.8586 121.0618,106.2866 120.51392,111.76127 C 115.28506,111.9971 110.91638,107.36984 106.82697,104.50672 C 105.39616,103.28566 101.16452,99.625457 102.99965,98.47016 C 106.36582,102.22228 111.28815,104.24949 115.84137,106.22344 C 119.45432,106.02348 115.86755,98.828772 115.8763,95.944409 C 115.1795,90.507528 111.19805,86.631345 107.08206,83.46559 C 103.63071,80.403622 102.74411,75.687928 98.943106,72.851256 C 98.399546,67.788623 105.9982,79.185421 105.54383,72.313005 C 106.46241,66.703979 109.34817,78.054473 106.21881,79.312159 C 108.14628,82.205784 111.49749,83.717956 114.17175,85.855123 C 113.30515,81.588288 111.76906,77.403231 111.19644,73.130812 C 115.52163,74.8134 113.67618,82.087777 116.77729,85.45159 C 119.30382,90.223051 126.66098,91.205214 129.14709,85.831961 C 134.40524,78.396321 136.15358,69.192421 140.738,61.413524 C 142.4376,63.640588 139.14734,69.111241 137.89936,72.23472 C 135.4872,76.303129 134.68762,81.091975 131.6654,84.825646 C 127.10128,91.295764 127.907,101.27697 134.44846,106.15532 C 136.85123,107.76863 136.59916,110.27538 133.68375,108.12687 C 128.8638,105.74139 130.20319,114.11826 128.41834,116.80734 C 126.51163,122.15117 123.84286,128.4043 127.25492,133.76209 C 131.80548,140.79384 135.85504,148.25857 137.99644,156.41317 C 139.92728,160.02099 139.2562,168.69016 143.94541,168.83107 C 145.72325,167.02084 145.10472,160.52758 145.97724,160.74749 C 146.57027,166.19313 145.44364,172.30481 148.5736,177.09252 C 150.22876,181.10553 149.6178,185.85119 152.0212,189.55733 C 157.46542,189.429 155.20646,180.68187 154.19121,177.00872 C 153.9055,174.33139 151.29783,168.41817 154.28164,167.47546 C 155.39178,171.2021 154.71345,179.37423 159.37589,179.65902 C 163.91882,176.2294 162.06364,169.09722 158.21934,165.85096 C 155.10513,161.83139 156.45177,155.47297 151.71459,152.57055 C 149.66715,151.13234 145.81809,148.56828 146.03139,153.01338 C 142.73462,154.12434 144.02962,146.52669 143.61194,144.20994 C 142.9992,141.55234 145.12364,132.57537 146.42015,139.54569 C 145.51516,143.3882 151.85658,151.3711 154.39586,146.95462 C 152.42074,144.34575 156.49244,140.78802 156.37839,145.25866 C 155.35948,150.23478 161.3182,156.87629 165.69268,152.02539 C 168.93321,147.90331 166.64919,157.86505 166.74966,159.94267 C 166.01246,163.73837 166.35758,168.21211 170.24938,170.11523 C 171.5607,171.13416 173.95109,172.51517 170.87558,172.06208 C 167.42499,171.53363 164.1127,172.87058 164.42303,176.89878 C 161.80732,181.43024 157.49247,186.0623 161.33677,191.38768 C 162.19897,195.11144 166.1314,201.02474 166.57565,193.53662 C 167.56855,189.57987 167.28986,184.30304 170.21355,181.47722 C 171.18571,184.17693 167.72782,191.67603 171.31686,191.52024 C 175.57161,187.93179 177.94661,182.50567 182.49448,179.26539 C 182.00045,183.40967 177.58851,187.16783 174.91868,190.6277 C 171.41349,193.91686 166.1606,196.80089 167.93899,202.59245 C 168.76517,207.01677 170.8569,211.591 174.59678,214.24782 C 179.34786,215.41453 179.94739,208.58865 182.27007,205.83056 C 184.848,202.06251 187.76487,198.29851 187.84097,193.48364 C 188.46407,186.31757 189.34783,179.06402 188.72343,171.87562 C 187.24956,166.24148 182.96651,161.8672 179.40748,157.42566 C 175.31216,154.71173 175.00743,149.70089 171.97464,146.21147 C 166.49141,139.72121 163.3974,131.49123 161.24532,123.36671 C 160.21988,120.56764 161.9067,119.03592 162.77003,122.57238 C 163.34169,124.73399 166.03032,133.39427 167.4478,127.49515 C 168.26515,121.35559 168.13089,114.35798 163.46869,109.66627 C 161.09581,105.17792 157.13012,104.4312 155.38022,109.89546 C 154.73971,112.10151 149.4296,117.57169 151.92246,112.16401 C 154.88956,108.0297 156.86501,103.24241 157.2382,98.131357 C 158.16123,94.613441 156.7182,89.925212 158.73343,87.115399 C 161.83915,90.748357 159.88225,96.079014 161.53302,100.31924 C 162.97885,105.20044 166.20344,109.83361 170.69221,112.27258 C 172.50539,111.51312 176.43291,105.15216 174.67462,110.64188 C 171.88145,116.01362 169.57257,121.72287 169.21972,127.84641 C 169.12285,132.08843 168.30397,137.58 171.72413,140.72073 C 174.70142,140.9024 172.72406,131.10915 175.16955,134.38474 C 176.44991,140.09365 174.30494,146.41908 177.18784,151.73552 C 180.28488,155.38842 183.58952,159.35804 187.9831,161.43044 C 189.10161,159.67015 191.70845,158.16062 191.42481,161.87634 C 190.33265,168.03767 194.34409,159.48104 194.96492,157.72765 C 196.96873,154.68981 195.97645,151.51142 195.04533,148.74137 C 200.09021,149.17139 201.12555,142.25274 202.85113,138.59352 C 204.97628,134.01114 204.10178,128.77114 205.73462,124.16127 C 209.21332,124.45172 206.49508,131.83408 206.4108,134.78587 C 203.59288,147.17814 196.33932,157.96985 192.46892,169.99439 C 190.73535,176.74591 192.02459,183.75341 192.0921,190.62076 C 200.22675,181.73226 208.38591,172.69149 218.55855,166.05997 C 235.66859,154.29839 255.61833,147.46604 275.70165,142.80507 C 280.20702,142.26884 287.06205,142.04798 284.67946,135.5338 C 284.42953,128.06981 282.91252,120.55079 283.8709,113.09957 C 287.33624,110.51594 287.94633,105.35088 291.49321,102.58781 C 294.46596,98.979331 301.141,98.125871 301.97978,93.146792 C 302.02213,89.685703 308.45975,91.11836 310.12027,87.631301 C 312.20106,83.856338 317.34526,83.486707 319.01941,80.080654 C 323.3227,78.381742 326.44373,74.04501 331.79173,74.906366 C 337.58784,74.768057 343.87463,74.968967 348.84659,78.315391 C 354.11454,80.469649 360.31868,79.256055 365.20122,82.711998 C 369.23741,85.14023 372.69401,88.582436 377.41154,89.759603 C 387.00178,92.326895 396.89523,93.635752 406.61576,95.65816 C 411.17126,96.536265 415.72597,97.426262 420.23518,98.521329 C 415.2634,100.23957 409.94374,101.24344 404.7269,99.9494 C 386.16806,97.952417 367.39054,98.599504 348.84731,100.46558 C 339.36182,101.74697 328.73505,102.76092 321.49001,109.72296 C 318.51544,113.03778 314.8138,116.49299 314.30524,121.14583 C 315.86624,125.37475 322.83502,123.26344 324.63724,128.29864 C 327.72228,132.01886 330.6863,136.51503 329.51189,141.60547 C 328.74959,155.33244 319.68524,166.38677 311.63713,176.76648 C 303.87032,186.45303 295.82346,196.27444 291.33997,207.99442 C 284.63094,221.86405 277.07453,235.4105 268.00317,247.8836 C 264.75406,252.36154 260.39456,255.78761 255.8999,258.85149 C 252.91415,262.86168 256.25312,267.85905 258.17397,271.59348 C 262.4584,278.62141 270.17597,282.2883 277.38042,285.5781 C 283.8869,289.11942 286.94189,296.18315 291.36863,301.72755 C 294.84514,300.27666 294.13711,294.36861 294.56476,290.92883 C 294.48839,285.86763 295.40623,280.88259 296.23909,275.93416 C 295.94599,270.15642 291.92279,265.43152 290.74715,259.83907 C 289.44568,252.57927 282.97736,259.15836 280.93208,262.45409 C 277.42553,266.38265 280.20997,271.57511 280.60329,276.05504 C 280.65391,277.89 282.43526,284.73691 280.48355,283.61121 C 278.9952,279.22519 278.52171,274.5309 277.00504,270.12649 C 276.51909,265.23683 277.12516,259.99867 272.39751,256.7954 C 270.49764,255.44298 269.17522,250.31436 272.445,254.01875 C 274.84597,257.32609 279.47865,262.98266 283.17521,257.77289 C 286.22558,254.48951 289.79709,250.07342 287.29865,245.43208 C 286.60366,240.48453 287.48267,234.96335 290.54546,230.92358 C 293.43134,233.51579 288.03833,240.06714 289.33315,244.30449 C 289.72022,250.24823 293.72113,243.13766 295.78699,244.25102 C 293.24282,248.05356 290.06613,252.14242 292.09346,257.19532 C 293.33493,260.61908 294.3588,267.1274 299.04042,266.56092 C 303.65891,265.66693 299.08082,273.04615 299.0234,275.48739 C 297.58243,279.92571 296.55584,285.22532 298.99076,289.4799 C 302.89227,290.86269 306.05315,284.89089 309.1731,282.76818 C 311.74897,279.4568 317.17901,276.72856 316.39893,271.88323 C 316.09744,269.57047 313.12194,264.41314 315.60978,263.65509 C 317.08928,265.44446 318.09188,274.59214 320.43456,268.89027 C 322.84849,264.11989 323.70736,258.14871 320.84767,253.37156 C 319.77612,250.20969 323.78929,250.52002 322.92817,253.50527 C 326.51906,256.52794 326.47589,247.26801 329.83465,246.26166 C 335.17712,244.02608 336.91756,238.55154 341.09942,234.99361 C 345.01329,232.54318 339.4313,239.44312 338.44715,240.38842 C 333.62977,245.71205 327.79952,251.43571 327.24741,259.0132 C 326.76673,260.92731 332.61107,266.8866 327.75357,264.52877 C 323.56792,260.63705 322.88669,269.00257 321.50789,271.59919 C 320.05587,274.47105 320.54651,279.06055 319.19126,281.08989 C 315.72256,276.14979 312.11779,284.732 309.04515,286.49397 C 304.86093,290.62023 299.2391,293.60494 297.041,299.39109 C 294.97459,303.7482 294.055,309.08374 296.6104,313.44409 C 296.56732,318.86136 291.40534,310.68907 290.53215,308.57109 C 288.34595,303.90469 286.11592,298.93628 281.57539,296.06544 C 274.68661,291.50343 267.40951,287.36122 259.69631,284.36183 C 253.80981,282.66709 247.27088,282.46895 241.37445,284.18331 C 237.99634,286.97735 233.01613,285.75243 229.05735,287.48602 C 217.61628,290.59962 206.24662,294.33403 195.8651,300.14703 C 193.75704,300.77721 193.73216,303.37035 192.69589,305.01046 C 183.92042,324.53955 175.74782,344.39716 165.18883,363.05407 C 159.18751,375.13167 154.85055,387.96627 148.55084,399.91022 C 145.74302,405.22227 143.71903,410.89511 141.17442,416.31273 C 136.76466,424.61406 128.60781,431.73487 118.75892,431.63151 C 116.25476,431.71935 113.74809,431.5127 111.27213,431.1457 z M 125.54188,418.35654 C 126.51569,421.11708 126.82165,415.22761 129.50422,416.51742 C 132.86967,413.71559 129.25535,410.32697 125.96408,410.52835 C 122.6696,404.82433 121.68404,418.23575 118.3,412.70693 C 116.6617,417.06821 122.54726,419.86312 125.15445,417.63595 L 125.54188,418.35655 L 125.54188,418.35654 z M 140.76012,410.96665 C 139.35477,408.00629 136.11589,414.42623 140.34233,412.03041 L 140.64789,411.55148 L 140.76012,410.96665 L 140.76012,410.96665 z M 108.1204,406.42823 C 109.93428,400.21623 113.66028,394.84626 115.92184,388.83048 C 115.86571,385.24993 111.90003,392.9935 111.10537,394.32098 C 108.53662,399.50194 105.69943,404.78167 104.77661,410.54227 C 105.82208,412.25102 107.75074,407.19685 108.1204,406.42823 z M 118.00388,404.6504 C 118.15301,398.65955 113.59631,408.81988 117.5992,406.15711 L 117.89517,405.47875 L 118.00388,404.6504 L 118.00388,404.6504 z M 146.44918,399.58854 C 144.75641,394.93831 141.68834,403.85754 145.57915,401.35896 C 146.03311,400.87838 146.42356,400.27091 146.44918,399.58854 z M 133.64879,396.74399 C 132.24344,393.78365 129.00456,400.20357 133.231,397.80776 L 133.53656,397.32883 L 133.64879,396.744 L 133.64879,396.74399 z M 127.95515,387.5922 C 129.20591,385.80806 131.67559,378.66483 128.46316,383.69724 C 126.19104,387.38743 123.73649,391.06138 122.27067,395.15813 C 124.51316,395.22749 126.56986,389.60563 127.95515,387.5922 z M 136.49332,391.76606 C 135.18318,386.8682 131.64654,396.31378 136.07553,393.33207 L 136.38109,392.62702 L 136.49332,391.76607 L 136.49332,391.76606 z M 140.76012,392.47721 C 139.35476,389.51683 136.11589,395.9368 140.34233,393.54096 L 140.64789,393.06203 L 140.76012,392.4772 L 140.76012,392.47721 z M 141.41051,381.08475 C 138.7121,376.6204 138.87474,386.73149 141.56381,382.28224 L 141.61418,381.66932 L 141.41051,381.08475 L 141.41051,381.08475 z M 146.44918,381.81022 C 142.45368,378.93942 143.08542,387.01614 146.44918,381.81022 z M 153.56049,382.52134 C 152.15512,379.56101 148.91629,385.98094 153.14271,383.58511 L 153.44827,383.10618 L 153.5605,382.52135 L 153.56049,382.52134 z M 147.87144,376.12116 C 143.87595,373.25035 144.50768,381.3271 147.87144,376.12116 z M 156.40502,376.91623 C 155.36447,372.84859 151.38177,378.84794 155.535,378.22627 C 156.05058,378.01332 156.41272,377.47643 156.40502,376.91623 z M 146.44918,371.14322 C 145.04381,368.18287 141.80496,374.60283 146.03139,372.20699 L 146.33695,371.72806 L 146.44918,371.14323 L 146.44918,371.14322 z M 137.64091,366.21161 C 135.23234,366.25758 134.82748,372.0663 137.29319,368.018 C 137.57768,367.52568 138.07843,366.78694 137.64091,366.21161 z M 160.67182,366.96039 C 158.86379,362.79293 157.23161,369.12364 160.48759,367.96485 L 160.67182,366.96038 L 160.67182,366.96039 z M 173.30291,344.53953 C 179.36099,332.01662 185.0984,319.29155 189.72717,306.16563 C 190.2678,302.40954 186.78965,309.92421 186.32606,310.96456 C 183.04982,320.27693 178.38927,329.05621 174.41315,338.10012 C 172.44969,342.92411 169.7332,347.535 168.35665,352.54134 C 170.4286,351.00513 171.78742,347.06355 173.30291,344.53953 z M 160.67182,341.19175 C 159.03151,337.99962 156.0739,345.98119 159.80179,343.03948 C 160.26767,342.53586 160.6489,341.89643 160.67182,341.19175 z M 205.27923,290.67527 C 209.84755,288.56918 209.30985,281.59471 204.70826,280.78016 C 202.03582,284.45673 198.51496,290.10165 200.27419,294.42487 C 202.26165,293.71787 203.75753,292.0716 205.27923,290.67527 z M 199.07298,285.80732 C 197.38016,281.15716 194.31215,290.07634 198.20295,287.57777 C 198.65691,287.09718 199.04734,286.48971 199.07298,285.80732 z M 188.34207,268.8241 C 191.79185,263.55125 194.85969,257.91286 199.02614,253.17918 C 201.4191,251.48132 204.78375,245.05232 199.31515,246.98649 C 198.88653,243.75432 204.64161,240.17824 202.77241,237.71085 C 198.41781,242.927 196.02111,249.53133 192.22028,255.16117 C 188.14536,261.27073 183.87799,267.3035 181.06648,274.13914 C 180.17187,276.91949 176.77005,282.52384 178.49568,284.1497 C 181.97023,279.16947 185.11862,273.96821 188.34207,268.8241 z M 242.71359,279.26264 C 246.89057,277.64239 250.22267,273.96069 248.46712,269.23653 C 248.98774,264.31139 245.52159,259.33819 241.03989,264.20561 C 232.98286,269.1542 224.03894,272.61761 216.36512,278.17042 C 216.59068,283.28775 223.94781,282.81351 227.90503,283.04675 C 233.10711,283.20738 238.30193,282.11944 242.71359,279.26264 z M 189.82826,280.20221 C 185.26499,275.18537 189.20818,285.67385 189.82826,280.20221 z M 157.13839,276.29099 C 159.75016,265.55664 162.69655,254.90084 165.26423,244.15209 C 167.05257,237.61369 168.92256,231.02772 172.13419,225.02792 C 174.32069,220.64531 170.57867,215.00605 166.40866,213.9811 C 162.93923,218.80016 163.45879,225.19676 161.44163,230.62237 C 158.83199,240.24513 153.57216,249.27834 153.66941,259.49678 C 153.62135,266.16259 153.12224,272.99348 154.70256,279.52797 C 155.98184,282.59624 156.94674,277.06593 157.13839,276.29099 z M 182.00962,264.7168 C 184.94942,259.62385 188.43287,254.85384 192.15668,250.34444 C 193.54825,245.90286 194.29649,241.14294 197.49299,237.4364 C 201.78651,231.67173 206.343,225.59997 212.75525,222.09852 C 217.16322,222.93777 216.40435,213.62601 219.9652,218.42979 C 224.01664,218.09508 220.0522,225.12733 219.28655,227.60363 C 216.33381,233.62045 212.96693,239.58281 208.45586,244.57497 C 206.3649,243.5597 210.45923,237.42305 211.49005,234.87517 C 213.25212,230.85597 216.89041,227.95408 218.44705,223.87736 C 215.72636,227.089 210.91667,228.10271 210.54264,233.06613 C 208.50559,238.36151 203.01659,242.78553 204.50122,248.98929 C 204.4787,254.09952 199.19481,256.61824 196.80064,260.59168 C 195.41399,262.84583 190.90413,268.14432 193.02885,269.54612 C 197.95215,264.68426 200.81301,257.84308 206.69564,253.9259 C 208.28395,253.58138 207.69556,257.8408 210.01503,254.97579 C 214.66416,250.86136 217.51635,244.89791 222.84819,241.5446 C 225.58779,242.10961 227.97825,240.26207 230.23894,239.59013 C 230.96348,245.40223 235.18563,235.95885 236.24421,234.25429 C 239.27399,228.83184 241.49442,222.76802 245.36279,217.9258 C 244.03817,223.72648 240.14059,228.66706 238.01058,234.22362 C 236.87378,236.20348 234.57364,242.99951 238.66738,238.5193 C 240.68305,237.46955 243.64341,229.32627 242.42776,235.16448 C 240.61609,238.74769 244.50984,239.24912 244.63554,235.69649 C 245.54831,232.87807 247.73064,225.42235 249.84886,225.8056 C 249.59425,229.55047 243.30317,235.3649 249.43321,237.2333 C 252.71825,237.1288 254.58337,230.92022 254.08257,228.57088 C 252.12563,229.60236 250.23465,236.20947 249.04342,234.97178 C 251.22224,229.55083 254.24272,224.39882 255.27081,218.56101 C 255.81031,215.40594 255.72091,218.75096 255.82072,220.14041 C 255.90194,221.90861 255.98315,223.67682 256.06437,225.44503 C 257.39079,223.35256 258.32382,220.93059 260.03894,219.13865 C 259.04729,224.68896 254.93086,229.49817 254.74206,235.2729 C 256.63109,234.98732 258.52391,227.90431 259.673,229.83626 C 258.123,231.82525 257.50381,237.22614 260.26465,232.59129 C 262.24395,228.89845 264.34475,225.01222 264.7865,220.79896 C 263.07674,219.26803 261.06618,211.40937 264.1373,212.56018 C 263.74597,215.55949 266.81376,217.62522 268.14082,214.18107 C 268.3991,217.46644 267.64149,220.74646 267.3744,224.02276 C 268.66714,219.6769 270.55947,215.21991 269.56652,210.6102 C 269.59697,206.8379 272.1377,208.51545 271.32532,211.33882 C 271.34095,216.71207 270.30006,222.06185 268.92,227.18643 C 272.8297,226.49656 270.50449,220.06069 274.91191,219.10174 C 276.84334,214.19794 275.0704,208.7284 275.81019,203.60237 C 276.59696,197.36252 277.65051,206.34827 277.29754,208.22473 C 277.01266,209.93247 277.55851,218.48452 279.63667,213.83317 C 280.67788,210.43712 278.33071,205.53578 279.84996,202.99312 C 282.12431,204.54995 281.37899,214.02017 282.76711,207.76458 C 282.71403,205.56001 288.35006,200.41948 283.47562,202.95185 C 282.54614,200.23076 287.64111,194.32659 288.19731,198.97279 C 287.94387,194.73478 290.35352,190.12747 288.62302,186.2166 C 285.78738,181.96006 282.45025,177.72412 278.00142,175.08608 C 273.02434,175.22905 280.32672,180.61909 281.2216,182.50752 C 284.03273,187.80542 277.69483,180.83068 275.78381,180.32097 C 270.08945,177.49939 276.01046,185.35762 276.58641,187.48913 C 277.34512,190.00233 280.89119,193.99905 279.3774,195.91199 C 275.21094,193.09511 275.29682,187.00824 271.7542,183.60185 C 267.5448,186.06138 273.5091,191.59678 274.04111,195.12279 C 274.43442,196.29874 274.39957,201.15667 274.05302,200.75071 C 272.55698,195.06251 269.78491,189.55172 265.52937,185.45496 C 263.19068,186.4389 270.69217,193.99698 264.87622,192.61894 C 263.64975,191.27195 257.63929,187.33187 259.48842,191.76519 C 263.10995,194.78263 262.7454,199.84308 263.22277,204.11104 C 261.13483,200.48278 259.74103,196.1064 256.12116,193.69981 C 253.68499,192.86265 256.69131,198.80918 252.87541,196.80733 C 249.11345,191.52364 248.72311,200.30713 249.23459,203.11536 C 249.87099,205.3243 247.45054,209.32888 246.93264,205.08615 C 245.99394,202.29885 247.90525,194.54788 243.76361,195.55405 C 241.80611,198.66925 243.3743,202.32449 240.43854,205.07588 C 241.07957,207.31544 237.21601,213.06914 236.12503,210.9364 C 237.43943,205.57112 239.70115,200.10895 238.97751,194.50739 C 234.11994,191.9831 234.43303,201.0785 233.97131,204.37872 C 234.28375,207.40131 231.98506,213.09015 229.63367,208.11382 C 227.52566,207.05978 224.86784,210.8883 228.12626,211.17882 C 227.65932,213.41139 227.16158,215.58406 230.07625,213.6192 C 227.21826,219.92988 222.07362,212.55269 223.47059,208.24987 C 223.0478,204.71346 224.86314,198.48104 220.7901,197.0494 C 218.12131,198.74282 217.17467,202.59983 220.61834,203.77288 C 220.15271,207.97404 218.85749,213.69793 214.95068,215.91793 C 210.42047,216.47441 207.81989,221.67883 204.73117,224.70189 C 201.42252,227.22266 200.65734,234.08988 196.48536,234.32435 C 196.89972,232.04419 197.65336,228.57762 195.56655,232.68494 C 192.60108,238.30936 190.4958,244.93891 184.95052,248.6017 C 184.94071,253.77048 180.07478,257.03286 178.56524,262.13025 C 177.34236,266.01008 174.26471,270.60204 175.54208,274.51316 C 178.09543,271.54683 179.93874,268.02694 182.00962,264.7168 z M 219.20219,235.49149 C 219.53593,232.87578 224.17091,230.04243 221.86541,234.56723 C 221.21602,237.08094 216.70806,240.36754 219.20219,235.49149 L 219.20219,235.49149 z M 223.25147,235.48481 C 224.17942,232.13825 228.08024,235.00544 224.67374,236.11201 C 224.33445,236.01637 223.35295,236.08745 223.25147,235.48481 z M 244.20316,227.46441 C 245.46269,222.28707 246.94586,229.94874 243.88632,229.68014 C 243.78565,228.92179 244.04063,228.19029 244.20316,227.46441 z M 230.38458,226.78354 C 229.7575,224.24225 235.40502,219.34612 233.11008,224.23939 C 232.63471,224.81746 231.1453,227.74018 230.38458,226.78354 z M 273.43752,212.64463 C 273.20149,210.22533 273.97807,206.30092 274.2337,211.24131 C 274.73773,213.29899 273.62019,220.14427 273.45949,214.60968 C 273.44118,213.95484 273.43589,213.29969 273.43752,212.64463 z M 254.5413,213.52364 C 254.42892,210.29409 259.35675,210.64605 256.51581,213.61337 C 256.06564,214.2434 254.53546,214.82125 254.5413,213.52364 z M 256.07586,207.07409 C 255.84975,202.79519 258.60161,207.48916 256.36083,208.55053 L 256.17506,208.0669 L 256.07586,207.07409 L 256.07586,207.07409 z M 254.5413,200.55538 C 255.58188,196.48774 259.56456,202.4871 255.41133,201.86542 C 254.89575,201.65247 254.53362,201.11559 254.5413,200.55538 z M 266.90833,197.62957 C 265.12147,191.84308 273.60393,201.26875 268.38163,200.32451 C 267.59305,199.62945 267.18444,198.61737 266.90833,197.62957 z M 176.35504,262.77947 C 177.30724,259.73566 181.28346,253.55144 177.38343,252.11843 C 174.39028,255.079 175.94942,260.26385 173.33738,263.71307 C 171.54913,265.4603 170.98052,271.46251 173.96831,267.04849 C 174.90357,265.70939 175.6767,264.26316 176.35504,262.77947 z M 171.9988,255.66816 C 170.2261,252.67824 167.51467,259.48486 166.46664,261.64561 C 166.18183,262.50859 164.0002,266.35635 165.47971,264.44305 C 167.74243,261.59905 170.46629,258.99783 171.9988,255.66816 z M 152.17931,249.26796 C 156.82492,238.03898 160.65288,226.39109 162.91459,214.43995 C 164.21915,209.60205 161.58236,204.56141 156.74902,203.06373 C 151.35023,201.93321 150.26514,196.47384 148.84749,192.0559 C 145.55902,193.22573 146.13899,199.84568 145.14033,203.34722 C 144.64301,209.27394 143.32885,215.1386 140.4131,220.38168 C 138.81171,223.35562 137.08382,226.25977 135.42448,229.20173 C 138.57761,237.61888 140.46411,246.78708 146.04876,254.02904 C 149.67518,259.2098 150.52138,251.56562 152.17931,249.26796 z M 170.62768,248.74453 C 168.98737,245.55239 166.02976,253.53397 169.75765,250.59226 C 170.22353,250.08864 170.60476,249.44921 170.62768,248.74453 z M 178.6412,239.93305 C 179.40928,238.42232 180.17736,236.9116 180.94544,235.40087 C 178.18413,237.56641 175.63728,241.35224 171.71521,240.66674 C 169.30663,241.53806 171.52191,243.34966 173.05442,242.5674 C 173.72441,249.4775 177.35722,242.13824 178.6412,239.93305 z M 184.85032,242.5122 C 187.58879,238.27402 181.09499,242.04589 182.58742,244.64559 C 183.50984,244.13016 184.17023,243.29412 184.85032,242.5122 z M 175.6056,230.42295 C 177.09513,224.11963 171.07841,233.88084 172.59468,235.80088 C 174.29074,234.56225 174.92457,232.31885 175.6056,230.42295 z M 181.27683,229.02894 C 182.50393,227.47895 186.94229,219.87275 182.61441,223.42364 C 180.27165,226.86513 177.95001,230.53424 176.85344,234.56527 C 178.67518,233.67204 179.95381,230.79046 181.27683,229.02894 z M 267.21993,226.86728 C 267.20704,221.9346 264.5394,230.05354 264.6189,231.84521 C 264.58232,236.16516 267.92327,227.75308 267.21993,226.86728 z M 206.16715,213.05057 C 203.43824,214.45874 201.62979,219.63931 199.83745,222.76666 C 198.92451,224.26231 197.2479,229.32628 199.85244,225.42877 C 202.29817,221.52449 204.89263,217.50502 206.16715,213.05057 z M 140.56234,215.59218 C 142.7567,211.37759 143.66197,206.71232 143.4807,201.98782 C 143.61568,193.52941 145.43525,184.97983 143.85182,176.58169 C 142.84525,171.47761 136.98153,170.52031 132.64705,170.39852 C 126.07381,168.46769 126.04432,176.47867 123.17973,180.13358 C 119.98328,184.40165 120.97117,178.41565 123.19241,176.98561 C 125.09054,173.89358 124.69826,168.96469 120.07743,171.66493 C 114.30701,172.88788 115.65091,179.91451 115.84466,184.23553 C 116.3607,188.85072 116.35458,193.81907 117.8103,198.13601 C 117.2931,195.84006 119.16405,191.06302 120.84675,195.40347 C 120.83597,198.18367 122.36894,199.66643 123.50264,196.35945 C 123.90274,194.41639 128.59437,188.62109 127.3388,193.71997 C 126.32283,197.89985 121.84413,201.05009 122.36694,205.5155 C 125.75281,207.2253 129.07747,199.47588 131.50017,201.32049 C 129.0254,205.18816 122.72663,208.89879 126.49403,214.16645 C 128.90892,217.47543 130.86719,222.73842 135.24147,223.45075 C 138.10025,221.89953 139.05885,218.26441 140.56234,215.59218 z M 131.43637,184.27836 C 129.56288,182.6732 128.97678,177.29025 132.00704,181.31466 C 133.96424,182.57167 136.37034,190.09077 132.44601,185.66176 L 131.94258,185.01019 L 131.43637,184.27836 L 131.43637,184.27836 z M 185.06817,210.51124 C 186.61686,212.9626 180.68796,218.70624 182.78704,219.56877 C 188.41247,213.65177 189.8716,205.20391 194.02888,198.41349 C 194.11257,202.83001 191.26857,207.73451 190.29236,212.36247 C 188.08206,216.24113 192.35651,217.52126 193.02729,213.11388 C 193.41805,208.82075 194.26302,204.42431 196.87237,200.8487 C 197.99939,198.35205 199.83518,197.21012 198.69495,200.86791 C 197.73244,203.21127 199.48012,205.4679 200.38258,201.98316 C 200.66835,196.40155 206.30514,193.34143 207.43447,188.47126 C 205.65855,187.79708 202.02475,189.60351 204.33656,185.98776 C 206.09449,183.69085 206.36525,178.23501 202.59747,182.1055 C 194.25526,190.3163 188.01284,200.42014 182.17395,210.49312 C 180.54074,214.07434 177.58929,218.02082 178.03849,221.93247 C 181.08765,218.67637 181.54343,213.38239 185.06817,210.51124 z M 197.6507,218.96088 C 195.48254,214.58532 190.69736,221.24103 195.85503,221.2604 C 196.85384,220.97726 197.65458,220.0171 197.6507,218.96088 z M 203.33978,211.84955 C 201.9344,208.8892 198.69556,215.30914 202.92198,212.91332 L 203.22754,212.43439 L 203.33977,211.84956 L 203.33978,211.84955 z M 209.06902,206.24444 C 212.89707,199.85703 203.49162,208.23495 206.69748,210.27316 C 207.70168,209.07686 208.31135,207.59743 209.06902,206.24444 z M 218.88471,204.38266 C 215.42455,201.77965 215.66902,214.97312 217.81,207.78295 C 218.23456,206.67534 218.68939,205.55862 218.88471,204.38266 z M 229.65167,203.39991 C 230.23524,199.03073 223.51969,206.32048 228.61308,204.40439 L 229.19814,203.95215 L 229.65167,203.39991 L 229.65167,203.39991 z M 159.7507,194.64293 C 158.96778,192.16233 156.29726,189.22632 156.62237,193.96206 C 155.43725,197.83983 164.46536,202.59014 160.70431,196.48898 C 160.39908,195.86717 160.07825,195.25318 159.7507,194.64293 z M 230.3628,196.72902 C 228.74392,191.09558 223.0966,202.74415 228.99456,199.18815 C 229.73829,198.59146 230.3396,197.71381 230.3628,196.72902 z M 216.14015,196.20466 C 214.73482,193.24428 211.49591,199.66423 215.72236,197.2684 L 216.02792,196.78948 L 216.14015,196.20465 L 216.14015,196.20466 z M 242.60349,187.75824 C 243.221,185.22263 240.51288,181.49248 239.40377,185.63971 C 238.22189,188.95541 244.08778,195.91372 242.60349,187.75824 z M 113.5688,178.86583 C 114.4004,173.01616 105.73248,174.77184 102.47508,176.05551 C 102.42462,178.42381 107.56398,175.15417 105.65882,179.05611 C 105.10326,183.6504 109.12514,186.77732 111.60369,190.12839 C 112.54942,186.42873 113.4116,182.70002 113.5688,178.86583 z M 243.16319,173.75829 C 238.83636,175.2506 235.33589,179.92645 231.76,183.06927 C 230.36465,184.11891 224.53605,191.17579 229.27752,187.56172 C 234.16689,183.2611 238.9165,178.68688 243.16319,173.75829 z M 237.47413,189.17727 C 236.44091,185.86924 231.29487,189.11084 235.54679,190.4873 C 236.45555,190.91136 237.51022,190.15814 237.47413,189.17727 z M 294.9597,179.96488 C 294.01913,177.34972 294.22963,173.1194 297.35573,177.02686 C 300.30779,179.08494 296.32554,172.43932 299.71434,171.4864 C 301.54295,165.87039 296.30889,161.93847 293.94054,157.59471 C 294.02834,152.03393 287.54538,154.49651 286.20032,158.06944 C 285.52282,159.25074 283.01594,161.36706 285.89226,160.73197 C 288.62053,160.84843 292.89976,160.13878 293.89278,163.13797 C 292.27054,163.62767 289.02358,161.77214 288.16606,161.95419 C 289.92218,163.76369 292.42635,165.10586 293.49025,167.40822 C 291.36661,167.23011 283.0581,163.40593 288.3201,167.22567 C 291.36061,167.77895 292.70612,176.74668 289.57814,171.18894 C 286.87582,168.52936 282.83935,169.61271 279.43095,169.5221 C 284.0101,170.74229 289.6722,172.30552 290.93381,177.52574 C 288.60723,177.90856 284.38065,169.87274 283.41209,173.98441 C 285.07747,179.96177 290.85566,184.03163 291.83183,190.24816 C 295.37285,188.34962 295.72624,183.54789 294.9597,179.96488 z M 217.56242,181.85943 C 215.37516,180.51552 208.90746,189.53326 214.14648,186.11164 C 215.47175,184.90608 217.00915,183.62585 217.56242,181.85943 z M 211.15272,180.62832 C 207.34847,177.52517 206.11922,190.55971 210.34968,184.14276 C 211.06633,183.18536 211.75086,181.8169 211.15272,180.62832 z M 238.03407,184.0805 C 238.66884,178.47142 231.587,188.4192 237.01577,185.67114 L 237.58891,184.955 L 238.03406,184.08049 L 238.03407,184.0805 z M 215.27685,178.39396 C 217.3424,175.12706 214.98043,172.57398 213.15073,176.74476 C 210.56087,178.73335 212.7539,182.67017 214.87458,179.19188 L 215.27685,178.39395 L 215.27685,178.39396 z M 247.68154,176.78986 C 244.28889,175.05432 254.06074,169.13804 250.19207,169.88437 C 248.43801,171.88955 243.00641,174.86084 244.14266,177.18856 C 244.55992,177.15596 249.29611,177.87151 247.68154,176.78986 z M 235.11634,170.32474 C 231.36454,166.81754 230.46358,180.41197 233.79234,174.17544 C 234.49931,173.06712 235.47815,171.71313 235.11634,170.32474 z M 113.45091,167.69706 C 114.79412,163.08942 105.13119,158.139 103.65637,163.19264 C 103.24715,164.32003 103.12238,168.58387 102.70107,168.031 C 101.75754,163.22328 100.0258,157.71534 94.869019,155.98641 C 92.50281,158.67836 96.533777,164.12748 97.234046,167.57539 C 98.646933,173.1048 104.84496,173.30525 109.34261,171.97385 C 111.5755,171.69985 113.43769,170.039 113.45091,167.69706 z M 244.22988,171.70363 C 246.13564,171.26692 245.76702,165.46025 249.57291,167.6387 C 253.4946,171.13762 258.5987,170.18814 262.24244,166.74752 C 265.75902,164.01951 269.22266,160.17832 269.53989,155.59955 C 266.69125,156.07868 264.56507,163.10443 261.80102,160.98036 C 262.23546,159.55765 268.24217,154.49862 263.77542,155.98571 C 261.00472,157.39896 258.09865,163.16341 255.1542,161.4799 C 256.02872,159.82954 261.35095,154.50435 256.33516,156.36571 C 253.72179,157.11877 249.51574,161.48223 247.81683,159.91733 C 248.78605,156.79983 242.05592,161.79145 243.87291,164.32909 C 243.55078,167.63344 235.23826,170.78746 238.77225,173.17731 C 240.57881,172.65067 242.31729,171.81368 244.22988,171.70363 z M 119.42614,167.8433 C 118.3856,163.77564 114.40288,169.77499 118.55612,169.15332 C 119.0717,168.94038 119.43383,168.40349 119.42614,167.8433 z M 164.79684,158.243 C 162.76383,154.0416 154.87482,157.64607 159.1646,161.87762 C 160.2245,163.26165 161.74453,166.21328 162.76857,166.79099 C 163.53824,163.966 164.43663,161.15863 164.79684,158.243 z M 238.89639,164.06719 C 238.25816,168.76833 245.33598,164.53696 241.40807,163.27889 C 240.89159,160.2871 242.48272,157.42442 243.10983,154.53663 C 239.70914,158.01673 235.70684,161.05991 233.30824,165.37256 C 233.36451,168.627 239.33913,158.99421 238.89639,164.06719 z M 273.76275,156.72307 C 271.70119,156.58516 267.56874,162.58968 269.6901,162.87062 C 271.3859,161.32675 273.73832,159.10816 273.76275,156.72307 z M 278.7198,157.09237 C 277.40969,152.19447 273.87301,161.64007 278.30202,158.65836 L 278.60758,157.95331 L 278.71981,157.09236 L 278.7198,157.09237 z M 284.40888,155.04291 C 283.36831,150.97526 279.38561,156.97459 283.53884,156.35294 C 284.05442,156.13999 284.41654,155.6031 284.40888,155.04291 z M 259.17124,151.15803 C 262.01748,149.42321 266.3708,156.13618 266.14932,150.65646 C 266.90823,148.68131 275.13674,149.68191 271.0622,147.41866 C 264.88905,147.23374 258.60876,148.65236 252.96594,151.12653 C 248.34201,155.54215 258.13671,151.38529 259.17124,151.15803 z M 105.83804,419.46027 C 104.35181,417.05205 108.90239,413.56475 108.24442,418.01168 C 109.29502,420.15512 114.1199,420.83425 109.26432,420.84304 C 108.04696,420.74752 106.63476,420.48663 105.83804,419.46027 z M 118.00388,369.88886 C 118.50957,366.55127 121.76903,367.62192 119.26291,370.48285 C 118.58866,371.93626 117.82621,370.81061 118.00388,369.88886 z M 122.27067,364.62473 C 122.43238,362.20896 127.90278,355.9889 125.00101,361.27132 C 124.66109,361.63588 122.37659,367.64445 122.27067,364.62473 z M 124.87955,341.71518 C 119.80708,335.8123 114.7367,329.42897 112.38735,321.90585 C 112.70482,315.16959 109.28516,308.99425 104.74411,304.25284 C 99.324901,298.13982 92.733312,292.9846 88.356285,286.00643 C 86.697908,277.53151 81.824641,270.06819 80.033078,261.63299 C 81.908029,260.02854 83.90935,266.901 85.053606,268.76784 C 88.514947,276.01493 89.189983,284.62342 94.740336,290.79791 C 100.22468,297.83849 107.66526,303.3154 112.23552,311.05523 C 114.62098,315.78297 112.47939,321.63607 115.85622,326.04753 C 120.09822,332.80429 126.14309,338.29448 130.18712,345.16637 C 128.91894,346.53329 126.00779,342.58959 124.87955,341.71518 z M 78.345445,307.5362 C 78.463523,303.65649 72.452914,302.89069 75.916474,298.93621 C 75.751967,296.52386 76.385537,289.97661 78.718683,295.29585 C 79.740201,299.08706 79.357183,303.78504 83.804195,305.49242 C 81.081648,304.62281 78.920718,309.1184 78.45662,308.93041 L 78.395843,308.33609 L 78.345445,307.53619 L 78.345445,307.5362 z M 83.07937,298.05954 C 81.20587,296.45441 80.619775,291.07143 83.650024,295.09584 C 85.607229,296.35286 88.013333,303.87196 84.089005,299.44295 L 83.585579,298.79138 L 83.079368,298.05955 L 83.07937,298.05954 z M 120.95192,288.73581 C 122.01903,283.92546 123.217,279.12324 124.70003,274.42688 C 124.49141,279.56011 123.482,284.85127 121.18526,289.46207 L 121.05078,289.46117 L 120.95192,288.73581 L 120.95192,288.73581 z M 103.78123,283.84183 C 103.01584,279.21289 107.75694,279.95578 106.51354,284.10405 C 105.99819,287.43297 103.5712,287.58096 103.78123,283.84183 z M 79.602727,281.62449 C 77.951663,279.76448 78.595243,275.66975 80.67848,279.59639 C 82.421364,281.26829 82.450386,286.50091 79.949239,282.23031 L 79.602727,281.62448 L 79.602727,281.62449 z M 99.62671,282.93909 C 99.287688,278.66682 91.942458,275.6767 93.073493,272.26875 C 94.903566,272.95643 97.125265,275.95095 98.297373,276.34219 C 97.861015,273.0273 96.502364,269.67388 97.272239,266.33624 C 100.39471,267.22867 99.899585,273.98909 100.67076,277.25332 C 101.19806,277.97222 100.52152,287.25576 99.62671,282.93909 z M 111.14308,275.22429 C 110.87551,272.55621 111.33566,265.6839 112.63654,271.87846 C 113.18114,274.88191 113.14925,279.51777 111.37587,281.42393 C 111.0537,279.37906 111.18691,277.28789 111.14308,275.22429 z M 339.87721,279.7096 C 341.99281,274.89519 344.35679,270.14436 345.23682,264.90724 C 348.49019,262.23583 346.4871,271.81004 344.90585,273.81185 C 343.802,275.2476 341.51155,280.9665 339.87721,279.7096 z M 349.83305,269.4646 C 350.47911,266.82631 353.84568,259.70769 355.75392,261.14366 C 355.05394,263.01148 351.4959,271.3721 349.83305,269.4646 z M 334.74711,262.30758 C 335.31019,260.63085 336.18306,252.97905 337.48401,257.90918 C 338.42323,259.56988 334.63909,268.87634 334.74711,262.30758 z M 301.47605,259.28766 C 303.02509,253.16543 306.03229,247.42905 306.55005,241.04139 C 307.91852,230.04832 308.61344,218.79328 306.85937,207.80591 C 306.08803,205.99176 303.63893,197.49684 307.41952,202.29543 C 307.73916,206.09022 311.46702,207.15316 312.21219,202.894 C 313.48854,200.21191 314.13153,194.95264 316.67545,194.16704 C 316.28771,201.02032 311.73526,206.70967 310.79047,213.46346 C 309.74735,219.53999 307.98364,225.9239 309.44176,232.05774 C 312.22165,237.97348 313.20125,227.85857 312.18968,225.47211 C 311.72605,223.63381 311.83589,219.68908 313.15238,223.67116 C 315.02507,228.45658 317.92351,223.95389 318.42932,221.04194 C 320.50065,221.30533 316.42785,227.71042 315.70711,230.04714 C 311.50432,238.92911 306.7625,247.66051 304.13968,257.17436 C 303.94553,257.87565 301.61301,262.26037 301.47605,259.28766 z M 67.513475,253.90243 C 62.952426,252.83861 58.244199,251.72241 54.676128,248.46341 C 52.955007,247.31331 47.626023,241.98754 50.947673,241.72179 C 55.244417,245.28945 58.842385,250.44662 64.737747,251.43727 C 66.307033,250.88112 72.778152,255.90248 67.513475,253.90243 z M 324.706,240.98414 C 323.73375,236.89205 313.56301,242.62587 319.78809,237.99932 C 323.41729,236.42621 318.05145,228.12684 322.38427,229.62737 C 322.21981,232.93426 324.66714,234.30452 326.1651,230.76308 C 328.24168,227.50158 332.36341,220.26116 325.02975,221.7338 C 324.08864,221.6029 320.37314,221.79011 321.19722,221.45682 C 325.46757,220.18106 331.18118,219.7882 332.59394,214.65991 C 332.92919,212.16346 336.07302,208.54421 334.60024,213.35577 C 333.87977,219.51852 341.64246,213.40463 343.61014,211.47395 C 345.69278,210.06795 349.4459,205.18974 351.16088,206.28009 C 348.43814,210.94224 343.9534,214.43226 339.37942,217.19128 C 332.94627,220.00634 329.87032,226.96757 326.98304,232.93044 C 324.58399,236.40365 326.39481,240.55106 328.08495,243.14333 C 326.57032,243.59439 325.21795,242.28638 324.706,240.98414 z M 281.56434,234.68973 C 277.80324,228.75345 286.26324,235.5285 284.67934,237.53427 C 283.223,237.26877 282.26759,235.8727 281.56434,234.68973 z M 53.847871,233.42547 C 52.184563,232.67278 49.372567,228.27711 53.249821,230.58601 C 55.658498,231.22012 60.721876,237.7461 55.224749,234.4401 L 54.545688,233.9649 L 53.847871,233.42546 L 53.847871,233.42547 z M 63.957814,224.73389 C 61.296402,220.89622 55.286434,221.09543 53.441524,216.04778 C 50.789113,211.76324 55.070261,213.24917 56.225352,216.15678 C 58.37957,220.48 62.320965,218.16771 61.144025,213.92092 C 60.304632,211.28366 64.515866,208.86085 63.265347,212.73109 C 63.449798,217.66124 65.611526,222.26137 65.989115,227.1506 C 65.240535,227.85913 64.398857,225.13958 63.957814,224.73389 z M 293.05406,219.53376 C 292.79419,217.13987 289.9898,211.77042 292.81871,211.14588 C 294.83575,214.94638 296.20145,220.21892 295.13936,224.29078 C 293.91893,223.04863 293.60408,221.13938 293.05406,219.53376 z M 298.02308,218.57895 C 299.75683,215.3507 292.89885,207.78454 299.63925,209.57543 C 301.71847,208.16779 303.71188,206.94062 302.31306,210.45134 C 301.03416,213.19189 301.52033,220.53014 297.90807,219.91245 L 297.84831,219.31208 L 298.02307,218.57896 L 298.02308,218.57895 z M 66.83228,214.85032 C 65.395282,212.95574 64.976896,205.56124 67.588496,211.01261 C 68.378621,212.60782 71.508238,219.82163 68.603084,218.26952 C 67.857877,217.21862 67.331403,216.03223 66.83228,214.85032 z M 327.92594,211.0568 C 330.50571,207.98052 333.62896,202.90228 335.73502,200.88009 C 333.35779,207.13891 329.1281,212.72411 323.82738,216.78006 C 324.89331,214.7378 326.5855,212.95693 327.92594,211.0568 z M 72.491403,206.95557 C 70.745329,203.40076 63.010351,203.56641 62.882396,198.31608 C 66.286547,198.13009 72.371458,205.82074 72.603676,198.06642 C 72.912501,191.92921 74.385645,201.02752 75.128287,202.80749 C 76.620812,205.80144 80.41243,204.86165 83.158387,205.24837 C 80.522568,205.87096 77.118443,205.43533 75.335932,207.76117 C 75.045551,210.07125 72.096747,208.95107 72.491403,206.95557 z M 325.14021,204.11104 C 324.12424,197.98492 330.83938,207.96247 326.07838,205.61776 L 325.55479,204.9394 L 325.14022,204.11104 L 325.14021,204.11104 z M 88.491883,201.13939 C 88.291971,195.46996 82.144589,193.09197 80.059043,188.42691 C 82.240407,186.59045 88.462298,195.61428 86.69892,189.55159 C 85.857733,186.96747 81.951711,183.61687 83.437787,181.23225 C 87.68623,183.23199 91.302378,187.44639 90.914566,192.41464 C 90.83306,196.5074 91.541345,201.11003 89.736364,204.82218 C 88.478932,204.21185 88.601928,202.31333 88.491883,201.13939 z M 329.92133,199.84424 C 329.49285,193.81476 334.98646,199.57114 331.89584,202.19238 C 330.36868,204.12473 329.83007,200.93184 329.92133,199.84424 z M 93.82538,184.19935 C 93.200198,181.64225 95.488274,174.37466 96.426148,180.62735 C 96.574271,183.24875 97.501482,190.18101 94.695401,190.09452 C 93.914424,188.24951 93.870081,186.17422 93.82538,184.19935 z M 337.09788,186.21093 C 338.03387,183.05669 340.87434,183.80493 338.99407,186.89889 C 337.76844,190.01302 334.99541,189.88249 337.09788,186.21093 z M 175.52657,177.16703 C 174.57296,175.13738 175.12581,167.91578 176.66652,173.63406 C 176.99748,175.88672 178.49549,180.10942 176.90668,181.46376 C 176.09654,180.1742 175.84426,178.62945 175.52657,177.16703 z M 68.273107,168.70138 C 67.271529,164.8976 63.966728,162.40084 60.395925,161.1853 C 57.643591,160.60306 56.137463,157.16313 60.164791,158.41337 C 62.979956,159.46734 66.737905,159.61282 64.700957,155.56836 C 67.332011,151.90604 67.283155,161.06393 69.77218,161.93666 C 70.989582,163.3401 78.003381,164.95719 72.669186,164.88647 C 66.953045,163.99248 72.104675,172.31643 70.033921,173.01579 C 69.252442,171.66614 68.776143,170.16944 68.273107,168.70138 z M 197.6507,166.41303 C 198.62316,162.39599 205.28328,160.13354 205.00721,156.56643 C 200.68532,157.03655 202.05924,152.82616 205.50837,153.62064 C 209.97541,155.02945 210.48556,146.86031 212.74234,147.6836 C 214.51699,153.96849 221.59197,147.12902 224.459,145.0705 C 227.78313,142.64876 230.54388,139.21917 234.03966,137.22633 C 232.21631,142.451 226.98278,145.45758 222.80532,148.69526 C 218.59018,152.20695 212.61396,153.45159 209.33702,158.0409 C 208.81764,163.29948 203.58231,164.89804 199.48618,166.82166 C 199.05598,167.00583 197.61975,167.41309 197.6507,166.41303 z M 181.38329,148.79589 C 182.53489,144.46004 179.16687,140.84271 178.49533,136.92065 C 185.60656,136.11014 178.91072,129.90139 176.80424,127.07746 C 174.83844,121.13311 180.39074,127.46905 181.96995,127.78844 C 180.96893,126.22394 180.69203,119.7718 182.99761,123.84381 C 184.69027,128.23524 185.26942,133.03195 184.91034,137.71166 C 184.98907,140.12085 189.03937,137.31489 187.53648,141.0989 C 186.52282,144.44976 184.80635,151.99332 181.10453,151.4876 C 180.96926,150.57706 181.17599,149.67399 181.38329,148.79589 z M 189.21484,150.06498 C 188.34698,147.08457 195.61603,139.58101 193.40291,146.01902 C 192.55595,147.30406 190.74734,150.58141 189.21484,150.06498 z M 137.95114,145.17289 C 135.82762,142.85482 137.64976,135.29445 139.76205,141.19505 C 141.83954,143.91583 142.96229,153.27646 138.72218,146.79628 L 138.32453,146.01276 L 137.95114,145.17289 L 137.95114,145.17289 z M 64.683152,142.25736 C 62.493262,140.72599 59.342066,134.72832 64.021,138.90715 C 66.20171,141.12986 69.693711,143.58414 70.19197,146.50932 C 67.987944,145.71892 66.337292,143.84312 64.683152,142.25736 z M 160.03343,142.6385 C 155.20901,139.55755 159.92477,136.07375 159.66735,131.87406 C 163.02267,129.11086 161.53767,137.76215 162.72077,139.58095 C 162.89727,141.71453 169.1057,146.03484 164.66351,146.27476 C 162.87102,145.42988 161.44106,143.99638 160.03343,142.6385 z M 212.15792,144.20765 C 214.23028,140.88508 214.919,134.81117 218.8597,133.78874 C 218.08837,135.90091 217.89232,139.89834 220.96592,136.74767 C 224.58953,133.33415 226.10338,128.4623 228.43326,124.2394 C 229.99781,128.75109 226.68112,133.36514 223.71601,136.6183 C 220.46966,139.89228 216.63719,143.34796 212.12168,144.40493 L 212.15792,144.20765 L 212.15792,144.20765 z M 78.180463,141.53139 C 75.318506,138.82733 70.817981,138.7284 68.22928,135.41777 C 66.599167,134.12456 65.375828,133.05039 68.166814,134.13784 C 70.2498,134.94833 74.220372,135.82456 71.065305,132.45686 C 69.429018,131.14039 66.311155,123.02419 70.621329,126.91956 C 74.886037,131.64972 78.142998,137.31133 80.460573,143.21958 C 80.405081,144.55263 78.47993,141.725 78.180463,141.53139 z M 79.796411,133.47132 C 78.855308,127.31278 72.519941,124.41134 68.850585,120.04256 C 70.139526,119.19575 77.717297,122.34051 73.585659,118.53035 C 70.453976,114.27799 75.873294,115.04158 76.512554,118.65911 C 78.380908,121.79784 79.934804,125.1091 81.636312,128.33896 C 82.833367,124.22278 83.953079,119.86188 82.659489,115.61572 C 82.936386,111.31601 86.803083,118.97353 86.842647,120.69403 C 87.650891,125.06338 88.116621,130.16 85.544907,134.0247 C 82.8656,137.15735 84.58454,127.99869 81.419222,131.86961 C 80.454347,133.97768 79.906243,138.04054 79.796411,133.47132 L 79.796411,133.47132 z M 193.59727,131.21997 C 190.83594,127.07683 194.25534,121.10546 190.04642,117.81802 C 188.04269,115.92447 183.0816,115.13456 185.98921,119.05948 C 186.79414,121.30075 191.41408,126.04885 188.45393,127.2166 C 184.87998,123.96963 182.45327,117.59394 185.16198,113.12145 C 187.37909,114.58428 191.03406,116.21996 190.48894,111.49745 C 189.95984,109.33918 191.28074,100.30854 193.16407,106.35685 C 193.80188,109.50703 193.80185,112.73835 194.09506,115.93062 C 195.99781,112.87078 197.47779,109.47664 199.81252,106.74146 C 198.47956,111.96887 195.98628,117.02224 195.70196,122.4721 C 196.95427,125.71659 198.41306,133.24487 195.70257,134.82258 C 194.73134,133.81 194.13463,132.49753 193.59727,131.21997 z M 92.209359,127.82885 C 89.65652,125.02876 90.617269,118.3055 94.630556,118.74257 C 95.704508,123.32537 94.645934,128.08684 94.536508,132.74475 C 93.760792,131.10611 92.985075,129.46748 92.209359,127.82885 z M 151.15399,130.66479 C 147.68681,124.56946 146.22743,117.46431 145.30484,110.56727 C 144.65341,107.80068 146.35155,106.06406 146.92197,109.63539 C 148.92248,116.30032 150.04276,123.35693 153.38732,129.50637 C 154.0116,131.24092 152.23634,132.46921 151.15399,130.66479 z M 214.69846,126.95318 C 215.21292,123.78607 212.89575,119.22544 213.88862,116.95822 C 215.94535,119.7067 219.74359,120.27714 219.40247,115.84618 C 223.99997,114.52581 220.53234,122.3491 219.24131,124.6642 C 218.39876,126.77239 214.67903,133.87104 214.71329,127.87576 L 214.69847,126.95318 L 214.69846,126.95318 z M 135.16656,124.56588 C 132.02793,122.47273 131.68527,116.62338 135.92149,121.15239 C 137.22558,122.6845 143.01692,126.90544 140.07488,127.94937 C 138.15856,127.34247 136.55577,125.97287 135.16656,124.56588 z M 201.9175,117.35289 C 201.20781,114.0987 204.91585,112.64595 204.733,116.63863 C 205.36262,119.06816 202.60465,124.62904 201.9175,117.35289 z M 168.61285,102.77467 C 170.84622,96.644944 169.14875,90.070943 168.2467,83.865212 C 168.99062,80.833735 171.1227,87.327721 171.98459,89.115264 C 172.6791,91.054967 173.32989,92.603383 173.47546,89.630713 C 174.19753,86.148669 174.44968,82.491849 175.77754,79.196183 C 176.21557,87.138944 174.80426,95.404497 171.34175,102.62836 C 170.7159,104.77699 166.93352,107.12491 168.61285,102.77467 z M 177.5119,104.56338 C 177.18236,99.626709 181.25935,95.429465 182.53728,90.743547 C 184.62169,90.740437 181.84083,98.200127 180.64014,100.54271 C 179.83817,101.78043 179.14467,104.5294 177.5119,104.56338 z M 133.89145,97.69946 C 131.30322,96.479584 129.56739,90.163289 133.87031,93.555734 C 135.89093,94.720793 140.22693,103.24679 135.14231,98.923248 L 134.52509,98.346088 L 133.89145,97.699462 L 133.89145,97.69946 z M 95.941095,95.641561 C 93.848666,92.980675 94.389916,89.375393 94.090486,86.199102 C 96.169219,89.164249 99.268871,91.89689 99.417035,95.735381 C 99.070218,97.679422 96.798505,96.278821 95.941095,95.641561 z M 139.51289,91.568319 C 137.92201,89.69399 138.23205,84.333474 141.14256,88.317986 C 143.98195,89.86445 144.45167,98.517959 140.55957,93.478075 C 140.156,92.873394 139.81468,92.229036 139.51289,91.568319 z M 146.56912,89.263158 C 144.974,87.12481 146.10695,83.349806 148.39969,86.837004 C 150.84211,88.962491 150.18888,96.670815 146.56912,89.263158 z M 82.445108,88.841611 C 75.077181,85.843633 88.705187,86.036989 86.248041,90.27558 C 84.869475,90.256133 83.639796,89.434392 82.445108,88.841611 z M 84.580655,79.072152 C 81.92184,78.064308 79.626843,72.230893 84.170487,75.457059 C 86.120613,77.109571 92.470359,83.098774 90.306675,76.953145 C 88.558918,75.062945 87.901874,70.628285 91.149995,73.929175 C 94.487097,76.741103 92.373671,84.905739 87.664353,81.490387 C 86.625477,80.698432 85.600127,79.888873 84.580655,79.072152 z M 127.48565,73.025624 C 124.34635,69.307292 129.7298,69.725293 129.16866,73.238966 C 128.6838,73.705035 127.89732,73.454976 127.48565,73.025624 z M 108.77112,63.946553 C 107.45169,60.406441 103.9743,57.487412 103.00435,54.197999 C 106.64009,53.661412 103.21159,44.368476 106.31714,44.314963 C 106.4649,50.776042 106.86034,57.77011 110.7926,63.190684 C 115.30737,65.899431 114.87581,57.602847 112.90313,55.703466 C 117.28872,55.514524 117.19277,49.919974 118.10294,46.696241 C 118.50814,44.647687 118.91334,42.599133 119.31854,40.550578 C 119.10043,47.577243 117.72175,54.816464 119.69967,61.684528 C 122.4476,66.081918 115.53977,61.368966 114.41798,65.016375 C 113.2273,65.678973 111.80862,69.577398 110.89399,68.132378 C 110.18637,66.737103 109.47874,65.341828 108.77112,63.946553 z M 124.57339,67.268838 C 122.68614,64.343331 123.64691,59.36708 127.30584,63.351527 C 128.67693,61.773199 127.01421,52.122396 130.18002,56.066023 C 130.5482,59.675163 129.02248,67.473909 124.57339,67.268838 z M 99.62671,50.624953 C 99.4006,46.346045 102.15249,51.040031 99.911693,52.101388 L 99.725922,51.617755 L 99.626709,50.624954 L 99.62671,50.624953 z " style="fill:black"/>
</svg>